<svg width="26" height="21" viewBox="0 0 26 21" fill="none" xmlns="http://www.w3.org/2000/svg">
<path d="M25.0119 2.64658C24.0884 3.0517 23.1043 3.32022 22.0784 3.4506C23.1338 2.82042 23.9394 1.83015 24.3181 0.636539C23.3341 1.22325 22.2476 1.63768 21.0896 1.86895C20.1552 0.874019 18.8235 0.257812 17.3707 0.257812C14.552 0.257812 12.2827 2.54569 12.2827 5.35044C12.2827 5.754 12.3168 6.14204 12.4007 6.51145C8.16793 6.30502 4.42258 4.27635 1.90653 1.186C1.46727 1.94811 1.20961 2.82042 1.20961 3.75948C1.20961 5.52273 2.11763 7.08575 3.47111 7.99066C2.65312 7.97514 1.85065 7.73766 1.17081 7.36359C1.17081 7.37911 1.17081 7.39929 1.17081 7.41947C1.17081 9.8936 2.93561 11.9487 5.24988 12.4221C4.83545 12.5354 4.38378 12.5897 3.91502 12.5897C3.58907 12.5897 3.26001 12.5711 2.95113 12.5028C3.6108 14.519 5.4827 16.0013 7.7085 16.0495C5.97629 17.4045 3.77688 18.2209 1.39587 18.2209C0.978342 18.2209 0.577886 18.2023 0.177429 18.1511C2.43271 19.6054 5.10553 20.4359 7.98788 20.4359C17.3567 20.4359 22.4788 12.6751 22.4788 5.94802C22.4788 5.72296 22.4711 5.50566 22.4602 5.28991C23.4706 4.57281 24.3197 3.67721 25.0119 2.64658Z" fill="white"/>
</svg>
