<svg width="25" height="25" viewBox="0 0 25 25" fill="none" xmlns="http://www.w3.org/2000/svg">
<path fill-rule="evenodd" clip-rule="evenodd" d="M7.92619 0H17.2391C21.5246 0 24.9999 3.47528 24.9999 7.76079V17.0737C24.9999 21.3592 21.5246 24.8345 17.2391 24.8345H7.92619C3.64068 24.8345 0.165405 21.3592 0.165405 17.0737V7.76079C0.165405 3.47528 3.64068 0 7.92619 0ZM17.2392 22.5058C20.2349 22.5058 22.6717 20.069 22.6717 17.0733V7.76036C22.6717 4.76469 20.2349 2.32781 17.2392 2.32781H7.92625C4.93059 2.32781 2.4937 4.76469 2.4937 7.76036V17.0733C2.4937 20.069 4.93059 22.5058 7.92625 22.5058H17.2392Z" fill="white"/>
<path fill-rule="evenodd" clip-rule="evenodd" d="M6.37396 12.4171C6.37396 8.98841 9.15388 6.2085 12.5826 6.2085C16.0113 6.2085 18.7912 8.98841 18.7912 12.4171C18.7912 15.8458 16.0113 18.6258 12.5826 18.6258C9.15388 18.6258 6.37396 15.8458 6.37396 12.4171ZM8.70228 12.4174C8.70228 14.5562 10.4438 16.2978 12.5827 16.2978C14.7215 16.2978 16.4631 14.5562 16.4631 12.4174C16.4631 10.277 14.7215 8.53698 12.5827 8.53698C10.4438 8.53698 8.70228 10.277 8.70228 12.4174Z" fill="white"/>
<circle cx="19.257" cy="5.74283" r="0.8273" fill="white"/>
</svg>
