<svg width="1501" height="75" viewBox="0 0 1501 75" fill="none" xmlns="http://www.w3.org/2000/svg">
<g clip-path="url(#clip0_8_1084)">
<path d="M1217 6.64995C1217 6.64995 1255.81 25.583 1272.16 71.0141L1274.2 21.8004C1274.2 21.8004 1300.75 40.7335 1315.05 71.0141C1315.05 71.0141 1321.18 55.8636 1321.18 33.1481C1321.18 33.1481 1341.61 44.4957 1355.91 71.0141C1355.91 71.0141 1349.78 36.9509 1317.1 21.8004C1317.1 21.8004 1320.16 27.4742 1316.08 61.5578C1316.08 61.5578 1293.6 16.1266 1262.96 4.77902V38.8422C1262.96 38.8219 1236.41 0.976149 1217 6.64995Z" fill="white"/>
<path d="M134.824 0.0398858C134.824 0.0398858 96.011 27.5345 65.3692 75.0195C65.3692 75.0195 65.3692 50.0263 75.5832 25.0331C75.5832 25.0331 63.3264 25.0331 36.7702 65.0141L53.1125 20.0304C53.1125 20.0304 14.2995 37.5195 0 62.5128C0 62.5128 4.08558 40.0209 30.6418 22.5318C57.1981 5.0426 65.3692 2.54124 65.3692 2.54124L49.0269 42.5223C49.0269 42.5223 71.4976 10.025 87.8399 7.52362L80.6901 36.2587C80.6901 36.279 117.46 -1.22096 134.824 0.0398858Z" fill="white"/>
</g>
<defs>
<clipPath id="clip0_8_1084">
<rect width="1501" height="75" fill="white"/>
</clipPath>
</defs>
</svg>
