<svg width="375" height="90" viewBox="0 0 375 90" fill="none" xmlns="http://www.w3.org/2000/svg">
<path d="M192.951 47.4163L190.363 83.6544L185.181 47.4163L167.052 44.8294L185.181 42.2381L190.363 6L192.951 42.2381L213.674 44.8294L192.951 47.4163Z" fill="white"/>
<path d="M203.315 29.295L192.549 36.6099H185.986L174.822 29.295L181.888 42.7101L181.788 46.9312L174.822 60.3594L185.64 50.6105L192.711 50.7766L203.315 60.3594L198.133 47.4163L197.416 42.4697L203.315 29.295Z" fill="white"/>
<path d="M182.592 26.7081C182.592 26.7081 182.592 21.53 174.822 16.3563C174.822 16.3519 177.411 24.1213 182.592 26.7081Z" fill="white"/>
<path d="M195.046 26.2974C195.046 26.2974 200.14 25.3492 203.809 16.767C203.809 16.767 196.646 20.7304 195.046 26.2974Z" fill="white"/>
<path d="M203.577 38.8909C203.577 38.8909 208.431 40.7 216 35.2378C216 35.2334 207.814 34.945 203.577 38.8909Z" fill="white"/>
<path d="M196.039 60.3594C196.039 60.3594 196.039 65.5375 203.809 70.7112C203.809 70.7112 201.22 62.9462 196.039 60.3594Z" fill="white"/>
<path d="M202.501 48.7315C202.501 48.7315 203.97 53.6955 212.895 56.4528C212.891 56.4528 208.203 49.7453 202.501 48.7315Z" fill="white"/>
<path d="M173.48 50.2085C173.48 50.2085 168.626 48.3994 161.057 53.8616C161.057 53.8616 169.242 54.15 173.48 50.2085Z" fill="white"/>
<path d="M174.56 37.7766C174.56 37.7766 173.09 32.8126 164.166 30.0553C164.166 30.051 168.853 36.7629 174.56 37.7766Z" fill="white"/>
<path d="M183.585 60.7701C183.585 60.7701 178.491 61.7184 174.822 70.3005C174.822 70.3005 181.985 66.3328 183.585 60.7701Z" fill="white"/>
</svg>
