<svg width="106" height="177" viewBox="0 0 106 177" fill="none" xmlns="http://www.w3.org/2000/svg">
<g clip-path="url(#clip0_7_654)">
<path d="M91.8235 95.1926C92.7639 93.7168 113.895 57.2968 113.895 57.2968L88.8718 93.3118L75.8562 51.77L81.0737 92.505L46.1381 72.3195L79.1929 95.4567L40.0673 107.937L82.2782 103.66L60.6168 137.655L85.2384 105.546L93.8179 144.261L90.0625 104.47L124.998 124.655L91.9433 101.518L133.485 88.5023L91.8235 95.1926Z" fill="#FDE018"/>
<path d="M91.1065 49.0132C92.3315 49.7938 93.9573 49.4335 94.7378 48.2085C95.5183 46.9835 95.1581 45.3578 93.9331 44.5772C92.7081 43.7967 91.0823 44.157 90.3018 45.3819C89.5213 46.6069 89.8816 48.2327 91.1065 49.0132Z" fill="#FDE018"/>
<path d="M60.5889 54.5159C61.8139 55.2964 63.4397 54.9362 64.2202 53.7112C65.0008 52.4862 64.6405 50.8604 63.4155 50.0799C62.1905 49.2994 60.5648 49.6597 59.7842 50.8846C59.0037 52.1096 59.364 53.7354 60.5889 54.5159Z" fill="#FDE018"/>
<path d="M97.9798 28.4565C99.2048 29.237 100.831 28.8767 101.611 27.6517C102.392 26.4268 102.031 24.801 100.806 24.0205C99.5814 23.2399 97.9556 23.6002 97.1751 24.8252C96.3946 26.0501 96.7548 27.6759 97.9798 28.4565Z" fill="#FDE018"/>
<path d="M32.2003 92.5369C33.4252 93.3174 35.051 92.9572 35.8316 91.7322C36.6121 90.5072 36.2518 88.8814 35.0268 88.1009C33.8019 87.3204 32.1761 87.6807 31.3956 88.9056C30.615 90.1306 30.9753 91.7564 32.2003 92.5369Z" fill="#FDE018"/>
<path d="M11.6383 85.672C12.8632 86.4525 14.489 86.0922 15.2695 84.8673C16.0501 83.6423 15.6898 82.0165 14.4648 81.236C13.2399 80.4554 11.6141 80.8157 10.8335 82.0407C10.053 83.2657 10.4133 84.8914 11.6383 85.672Z" fill="#FDE018"/>
<path d="M40.6495 124.944C41.8745 125.724 43.5002 125.364 44.2808 124.139C45.0613 122.914 44.701 121.288 43.4761 120.508C42.2511 119.727 40.6253 120.088 39.8448 121.313C39.0642 122.538 39.4245 124.163 40.6495 124.944Z" fill="#FDE018"/>
<path d="M107.721 146.895C108.946 147.675 110.571 147.315 111.352 146.09C112.132 144.865 111.772 143.239 110.547 142.459C109.322 141.678 107.696 142.038 106.916 143.263C106.135 144.488 106.496 146.114 107.721 146.895Z" fill="#FDE018"/>
</g>
<defs>
<clipPath id="clip0_7_654">
<rect width="143.73" height="117.44" fill="white" transform="translate(63.1089) rotate(32.5048)"/>
</clipPath>
</defs>
</svg>
