<svg width="55" height="78" viewBox="0 0 55 78" fill="none" xmlns="http://www.w3.org/2000/svg">
<path d="M31.9512 41.4162L29.3626 77.6544L24.1809 41.4162L6.05151 38.8294L24.1809 36.2381L29.3626 0L31.9512 36.2381L52.6736 38.8294L31.9512 41.4162Z" fill="white"/>
<path d="M42.3148 23.295L31.5491 30.6099H24.9856L13.822 23.295L20.8884 36.7101L20.7878 40.9312L13.822 54.3594L24.6402 44.6105L31.7109 44.7766L42.3148 54.3594L37.1331 41.4163L36.4159 36.4697L42.3148 23.295Z" fill="white"/>
<path d="M21.5924 20.7081C21.5924 20.7081 21.5924 15.53 13.822 10.3563C13.822 10.3519 16.4107 18.1213 21.5924 20.7081Z" fill="white"/>
<path d="M34.0457 20.2974C34.0457 20.2974 39.1399 19.3492 42.8086 10.767C42.8086 10.767 35.6461 14.7304 34.0457 20.2974Z" fill="white"/>
<path d="M42.5769 32.8909C42.5769 32.8909 47.4307 34.7 54.9999 29.2378C54.9999 29.2334 46.8141 28.945 42.5769 32.8909Z" fill="white"/>
<path d="M35.0386 54.3594C35.0386 54.3594 35.0386 59.5375 42.8089 64.7112C42.8089 64.7112 40.2203 56.9462 35.0386 54.3594Z" fill="white"/>
<path d="M41.5012 42.7315C41.5012 42.7315 42.9705 47.6955 51.8952 50.4528C51.8908 50.4528 47.2033 43.7453 41.5012 42.7315Z" fill="white"/>
<path d="M12.4796 44.2085C12.4796 44.2085 7.62585 42.3994 0.0566406 47.8616C0.0566406 47.8616 8.2424 48.15 12.4796 44.2085Z" fill="white"/>
<path d="M13.5595 31.7766C13.5595 31.7766 12.0903 26.8126 3.16553 24.0553C3.16553 24.051 7.85311 30.7629 13.5595 31.7766Z" fill="white"/>
<path d="M22.585 54.7701C22.585 54.7701 17.4907 55.7184 13.822 64.3005C13.822 64.3005 20.9846 60.3328 22.585 54.7701Z" fill="white"/>
</svg>
