<svg width="126" height="178" viewBox="0 0 126 178" fill="none" xmlns="http://www.w3.org/2000/svg">
<path d="M73.0231 94.8227L67.0963 177.79L55.2328 94.8227L13.7256 88.9L55.2328 82.9673L67.0963 0L73.0231 82.9673L120.467 88.9L73.0231 94.8227Z" fill="#F9288D"/>
<path d="M96.7503 53.334L72.1022 70.0815H57.0751L31.516 53.334L47.6945 84.0478L47.4642 93.7122L31.516 124.456L56.2842 102.136L72.4727 102.516L96.7503 124.456L84.8868 94.8227L83.2449 83.4976L96.7503 53.334Z" fill="#F9288D"/>
<path d="M49.3063 47.4114C49.3063 47.4114 49.3063 35.556 31.516 23.7107C31.516 23.7007 37.4428 41.4887 49.3063 47.4114Z" fill="#F9288D"/>
<path d="M77.8183 46.4709C77.8183 46.4709 89.4816 44.3 97.8812 24.6511C97.8812 24.6511 81.4825 33.7252 77.8183 46.4709Z" fill="#F9288D"/>
<path d="M97.3505 75.304C97.3505 75.304 108.463 79.4458 125.793 66.9402C125.793 66.9302 107.052 66.2699 97.3505 75.304Z" fill="#F9288D"/>
<path d="M80.0914 124.456C80.0914 124.456 80.0914 136.311 97.8817 148.157C97.8817 148.157 91.9549 130.379 80.0914 124.456Z" fill="#F9288D"/>
<path d="M94.8876 97.834C94.8876 97.834 98.2514 109.199 118.685 115.512C118.675 115.512 107.942 100.155 94.8876 97.834Z" fill="#F9288D"/>
<path d="M28.4424 101.215C28.4424 101.215 17.3297 97.0736 0 109.579C0 109.579 18.7413 110.24 28.4424 101.215Z" fill="#F9288D"/>
<path d="M30.9149 72.7528C30.9149 72.7528 27.551 61.3877 7.11778 55.0748C7.11778 55.0648 17.85 70.4317 30.9149 72.7528Z" fill="#F9288D"/>
<path d="M51.5789 125.396C51.5789 125.396 39.9156 127.567 31.516 147.216C31.516 147.216 47.9147 138.132 51.5789 125.396Z" fill="#F9288D"/>
</svg>
