<svg width="256" height="246" viewBox="0 0 256 246" fill="none" xmlns="http://www.w3.org/2000/svg">
<g clip-path="url(#clip0_8_1141)">
<path d="M127.634 132.317C128.941 130.266 158.314 79.6424 158.314 79.6424L123.531 129.703L105.44 71.9601L112.692 128.582L64.1316 100.524L110.078 132.685L55.6933 150.032L114.366 144.087L84.257 191.34L118.481 146.708L130.406 200.523L125.186 145.212L173.747 173.27L127.801 141.11L185.544 123.018L127.634 132.317Z" fill="#FDE018"/>
<path d="M126.638 68.1282C128.34 69.2131 130.6 68.7123 131.685 67.0096C132.77 65.3069 132.269 63.0471 130.567 61.9621C128.864 60.8772 126.604 61.378 125.519 63.0807C124.434 64.7834 124.935 67.0432 126.638 68.1282Z" fill="#FDE018"/>
<path d="M84.2182 75.777C85.9209 76.8619 88.1808 76.3611 89.2657 74.6584C90.3506 72.9557 89.8498 70.6959 88.1471 69.6109C86.4444 68.526 84.1846 69.0268 83.0997 70.7295C82.0147 72.4322 82.5155 74.692 84.2182 75.777Z" fill="#FDE018"/>
<path d="M136.192 39.5544C137.894 40.6394 140.154 40.1386 141.239 38.4359C142.324 36.7332 141.823 34.4734 140.121 33.3884C138.418 32.3035 136.158 32.8043 135.073 34.507C133.988 36.2097 134.489 38.4695 136.192 39.5544Z" fill="#FDE018"/>
<path d="M44.7583 128.626C46.461 129.711 48.7208 129.21 49.8058 127.507C50.8907 125.805 50.3899 123.545 48.6872 122.46C46.9845 121.375 44.7247 121.876 43.6398 123.578C42.5548 125.281 43.0556 127.541 44.7583 128.626Z" fill="#FDE018"/>
<path d="M16.177 119.084C17.8797 120.169 20.1395 119.668 21.2244 117.965C22.3094 116.263 21.8086 114.003 20.1059 112.918C18.4032 111.833 16.1434 112.334 15.0584 114.036C13.9735 115.739 14.4743 117.999 16.177 119.084Z" fill="#FDE018"/>
<path d="M56.5024 173.672C58.2051 174.756 60.465 174.256 61.5499 172.553C62.6348 170.85 62.134 168.59 60.4313 167.505C58.7286 166.421 56.4688 166.921 55.3839 168.624C54.2989 170.327 54.7997 172.587 56.5024 173.672Z" fill="#FDE018"/>
<path d="M149.731 204.183C151.434 205.268 153.694 204.767 154.779 203.065C155.864 201.362 155.363 199.102 153.66 198.017C151.957 196.932 149.698 197.433 148.613 199.136C147.528 200.838 148.029 203.098 149.731 204.183Z" fill="#FDE018"/>
<path d="M189.199 151.322C190.901 152.407 193.161 151.907 194.246 150.204C195.331 148.501 194.83 146.241 193.128 145.156C191.425 144.071 189.165 144.572 188.08 146.275C186.995 147.978 187.496 150.237 189.199 151.322Z" fill="#FDE018"/>
<path d="M217.773 160.876C219.475 161.961 221.735 161.46 222.82 159.758C223.905 158.055 223.404 155.795 221.701 154.71C219.999 153.625 217.739 154.126 216.654 155.829C215.569 157.531 216.07 159.791 217.773 160.876Z" fill="#FDE018"/>
<path d="M166.219 119.357C167.922 120.442 170.181 119.942 171.266 118.239C172.351 116.536 171.851 114.276 170.148 113.191C168.445 112.106 166.185 112.607 165.1 114.31C164.015 116.013 164.516 118.272 166.219 119.357Z" fill="#FDE018"/>
</g>
<defs>
<clipPath id="clip0_8_1141">
<rect width="199.784" height="163.241" fill="white" transform="translate(87.7211) rotate(32.5048)"/>
</clipPath>
</defs>
</svg>
