<svg width="126" height="178" viewBox="0 0 126 178" fill="none" xmlns="http://www.w3.org/2000/svg">
<path d="M73.0231 94.8227L67.0963 177.79L55.2328 94.8227L13.7256 88.9L55.2328 82.9673L67.0963 0L73.0231 82.9673L120.467 88.9L73.0231 94.8227Z" fill="white"/>
<path d="M96.7503 53.334L72.1023 70.0816H57.0751L31.5161 53.334L47.6945 84.0478L47.4642 93.7122L31.5161 124.456L56.2843 102.136L72.4727 102.516L96.7503 124.456L84.8868 94.8227L83.2449 83.4976L96.7503 53.334Z" fill="white"/>
<path d="M49.3063 47.4114C49.3063 47.4114 49.3063 35.556 31.5161 23.7107C31.5161 23.7007 37.4428 41.4887 49.3063 47.4114Z" fill="white"/>
<path d="M77.8183 46.471C77.8183 46.471 89.4816 44.3 97.8812 24.6512C97.8812 24.6512 81.4825 33.7252 77.8183 46.471Z" fill="white"/>
<path d="M97.3505 75.3039C97.3505 75.3039 108.463 79.4458 125.793 66.9401C125.793 66.9301 107.052 66.2698 97.3505 75.3039Z" fill="white"/>
<path d="M80.0914 124.456C80.0914 124.456 80.0914 136.311 97.8816 148.157C97.8816 148.157 91.9549 130.379 80.0914 124.456Z" fill="white"/>
<path d="M94.8876 97.834C94.8876 97.834 98.2515 109.199 118.685 115.512C118.675 115.512 107.942 100.155 94.8876 97.834Z" fill="white"/>
<path d="M28.4424 101.216C28.4424 101.216 17.3297 97.0737 0 109.579C0 109.579 18.7413 110.24 28.4424 101.216Z" fill="white"/>
<path d="M30.9149 72.7527C30.9149 72.7527 27.551 61.3876 7.1178 55.0748C7.1178 55.0648 17.85 70.4317 30.9149 72.7527Z" fill="white"/>
<path d="M51.5789 125.396C51.5789 125.396 39.9156 127.567 31.5161 147.216C31.5161 147.216 47.9147 138.132 51.5789 125.396Z" fill="white"/>
</svg>
