<svg width="1920" height="213" viewBox="0 0 1920 213" fill="none" xmlns="http://www.w3.org/2000/svg">
<path d="M970.023 109.823L964.096 192.79L952.233 109.823L910.726 103.9L952.233 97.9673L964.096 15L970.023 97.9673L1017.47 103.9L970.023 109.823Z" fill="white"/>
<path d="M993.75 68.334L969.102 85.0816H954.075L928.516 68.334L944.694 99.0478L944.464 108.712L928.516 139.456L953.284 117.136L969.473 117.516L993.75 139.456L981.887 109.823L980.245 98.4976L993.75 68.334Z" fill="white"/>
<path d="M946.306 62.4114C946.306 62.4114 946.306 50.556 928.516 38.7107C928.516 38.7007 934.443 56.4887 946.306 62.4114Z" fill="white"/>
<path d="M974.818 61.471C974.818 61.471 986.482 59.3 994.881 39.6512C994.881 39.6512 978.482 48.7252 974.818 61.471Z" fill="white"/>
<path d="M994.351 90.3039C994.351 90.3039 1005.46 94.4458 1022.79 81.9401C1022.79 81.9301 1004.05 81.2698 994.351 90.3039Z" fill="white"/>
<path d="M977.091 139.456C977.091 139.456 977.091 151.311 994.882 163.157C994.882 163.157 988.955 145.379 977.091 139.456Z" fill="white"/>
<path d="M991.888 112.834C991.888 112.834 995.251 124.199 1015.68 130.512C1015.67 130.512 1004.94 115.155 991.888 112.834Z" fill="white"/>
<path d="M925.442 116.216C925.442 116.216 914.33 112.074 897 124.579C897 124.579 915.741 125.24 925.442 116.216Z" fill="white"/>
<path d="M927.915 87.7527C927.915 87.7527 924.551 76.3876 904.118 70.0748C904.118 70.0648 914.85 85.4317 927.915 87.7527Z" fill="white"/>
<path d="M948.579 140.396C948.579 140.396 936.916 142.567 928.516 162.216C928.516 162.216 944.915 153.132 948.579 140.396Z" fill="white"/>
</svg>
