<svg width="357" height="236" viewBox="0 0 357 236" fill="none" xmlns="http://www.w3.org/2000/svg">
<path d="M44.544 187.167L27.7104 213.544L30.904 214.157L45.2558 186.975L44.544 187.167Z" fill="#E7348A"/>
<path d="M54.1053 191.672L53.3934 191.768L51.7197 206.605L54.6055 206.221L54.1053 191.672Z" fill="#E7348A"/>
<path d="M31.0195 175.665L0.584351 183.237L2.45047 185.882L31.6543 176.01L31.0195 175.665Z" fill="#E7348A"/>
<path d="M35.3675 182.911L34.7134 182.566L24.671 193.627L27.2297 194.988L35.3675 182.911Z" fill="#E7348A"/>
<path d="M128.442 38.3748C128.442 38.3748 134.137 67.4162 135.272 68.413L124.883 77.4801C124.883 77.4801 122.017 76.4258 120.574 67.6463C119.131 58.8476 118.534 57.6399 118.534 57.6399C118.534 57.6399 115.264 64.3491 118.708 77.4226C121.786 89.0966 124.498 93.7931 129.231 94.7324C130.231 94.9241 131.193 94.3298 131.424 93.333C132.078 90.5343 133.329 84.6494 133.021 80.6814L144.025 74.1063C144.025 74.1063 145.93 92.8155 138.908 99.2947C134.445 103.416 131.366 105.736 129.731 106.886C128.808 107.537 127.653 107.787 126.538 107.576C121.497 106.617 107.261 101.902 105.722 78.6877C105.722 78.6877 103.028 57.2374 117.169 49.3971L116.457 46.2151L126.615 37.4739L128.442 38.3748Z" fill="white"/>
<path d="M176.115 31.7812C171.594 32.5096 146.95 36.6118 140.948 39.4872C140.409 39.7364 140.101 40.3115 140.159 40.8866L141.255 53.1741C141.294 53.6916 141.775 54.075 142.294 53.9983L143.814 53.8067C143.814 53.8067 148.239 84.2282 150.855 86.6819L149.066 86.9119C148.681 86.9694 148.412 87.3145 148.45 87.6787L149.759 100.292C149.816 100.867 150.317 101.289 150.894 101.251C155.415 100.963 173.826 99.6211 183.791 96.4391C184.272 96.2857 184.561 95.8065 184.503 95.3081L182.599 81.6212L164.553 84.4774C164.553 84.4774 160.282 73.7427 160.263 72.9376C160.263 72.9376 174.384 69.6788 177.539 70.6756L175.442 56.3562C175.442 56.3562 167.112 55.5511 158.108 58.9248L156.569 50.3179C156.569 50.3179 172.364 47.0591 176.692 46.369C177.27 46.2731 177.693 45.7556 177.654 45.1805L176.846 32.3754C176.846 31.9921 176.5 31.7237 176.115 31.7812Z" fill="white"/>
<path d="M57.3949 58.0239C52.9509 59.1549 28.7875 65.4616 23.0737 68.8737C22.5735 69.1804 22.3042 69.7555 22.4196 70.3498L24.632 82.4839C24.7282 83.0015 25.2284 83.3273 25.7478 83.2123L27.2292 82.8864C27.2292 82.8864 34.4051 112.79 37.2524 114.995L35.5017 115.397C35.1169 115.474 34.886 115.858 34.963 116.222L37.4063 128.663C37.5217 129.218 38.0604 129.602 38.6183 129.506C43.1008 128.816 61.3003 125.806 70.9388 121.742C71.4005 121.551 71.6506 121.052 71.5352 120.554L68.3993 107.097L50.7 111.583C50.7 111.583 45.4672 101.27 45.3902 100.484C45.3902 100.484 59.1649 95.979 62.3777 96.6691L58.9917 82.5797C58.9917 82.5797 50.623 82.5222 41.9658 86.7011L39.6572 78.2666C39.6572 78.2666 55.0864 73.5894 59.338 72.5159C59.9152 72.3625 60.2807 71.8258 60.1845 71.2507L58.2222 58.5798C58.1453 58.1773 57.7797 57.9281 57.3949 58.0239Z" fill="white"/>
<path d="M71.2083 47.9021C70.8235 47.5187 70.1887 47.6146 69.9386 48.0938L63.2436 60.573C63.2436 60.573 62.9935 78.5729 74.0556 115.052C74.0556 115.052 72.3049 118.426 72.4588 121.014C72.4588 121.014 70.7658 122.624 83.0014 119.576C95.237 116.547 104.952 115.416 104.952 115.416C104.952 115.416 104.529 102.534 103.182 100.502C103.182 100.502 88.7345 104.586 83.4439 105.448C83.4439 105.448 80.2696 97.7804 77.0375 82.6943C73.8055 67.6272 71.2083 52.0235 71.2083 47.9021Z" fill="white"/>
<path d="M199.798 80.5474L200.818 95.0393C200.818 95.0393 195.681 95.6527 194.2 92.624C192.718 89.5761 181.637 57.2568 181.829 42.2856L188.62 34.8288C189.313 34.0812 190.429 33.9086 191.295 34.4454L193.507 35.8064C193.507 35.8064 206.185 66.2088 211.514 73.6848C211.514 73.6848 202.28 43.5891 202.126 37.7617L210.206 26.9119C210.61 26.3751 211.36 26.2601 211.899 26.6627L214.169 28.3304C214.169 28.3304 216.208 54.8414 226.866 72.7838C227.443 73.7615 227.443 74.9691 226.847 75.9276L216.728 92.2981C216.728 92.2981 214.419 95.8444 211.052 93.8125C207.705 91.7614 199.798 80.5474 199.798 80.5474Z" fill="white"/>
<path d="M326.175 0.860939C314.266 -3.35629 307.783 9.27624 307.417 9.54461C306.513 10.2347 301.742 13.9919 301.742 13.9919C295.47 19.2826 300.01 41.5189 300.01 41.5189C306.744 77.8638 321.423 67.3399 321.423 67.3399C329.753 58.2345 337.698 49.6275 338.372 49.0908C345.009 30.4391 338.083 5.09734 326.175 0.860939ZM327.387 56.03C327.387 56.03 317.133 59.5955 312.361 43.7617C307.59 27.9279 308.475 14.2986 308.475 14.2986C308.475 14.2986 319.864 5.82577 327.694 24.535C335.524 43.2441 327.387 56.03 327.387 56.03Z" fill="white"/>
<path d="M308.552 70.0616C288.968 73.4928 283.331 63.7357 283.331 63.7357C298.298 55.0329 298.125 30.3429 293.258 17.4803C288.39 4.61777 280.753 9.06503 280.753 9.06503C280.753 9.06503 271.153 17.212 265.631 24.5538C260.11 31.8956 264.4 30.4579 264.4 30.4579V32.6049C266.093 61.8188 272.115 82.2915 272.115 82.2915L275.712 77.9401C285.428 84.9944 297.067 81.3139 297.067 81.3139C297.067 81.3139 304.935 75.3906 308.899 72.7261C312.881 70.0807 308.552 70.0616 308.552 70.0616ZM279.06 58.4258L275.732 20.0873C277.213 20.3174 282.696 24.7838 284.408 32.8924C286.12 41.001 284.408 55.1479 282.619 57.9849C280.811 60.7645 279.06 58.4258 279.06 58.4258Z" fill="white"/>
<path d="M263.726 11.9028L263.323 26.9698L245.835 31.9538L252.568 71.0591C252.568 71.0591 253.915 77.3466 258.436 78.4392L245.469 87.8321C245.469 87.8321 244.296 88.6947 243.315 87.5063C242.333 86.2986 238.409 76.8673 236.735 65.7875C235.061 54.7077 232.195 36.5352 232.195 36.5352L219.382 40.81L217.439 26.0688L261.437 11.5769L263.726 11.9028Z" fill="white"/>
<path d="M105.395 126.209C102.721 126.726 88.1379 129.563 84.6365 131.365C84.3287 131.519 84.1556 131.864 84.194 132.209L85.0597 139.493C85.0982 139.8 85.3868 140.011 85.6946 139.972L86.5796 139.838C86.5796 139.838 89.7154 157.838 91.3122 159.257L90.2541 159.429C90.0232 159.467 89.8693 159.678 89.9078 159.908L90.889 167.384C90.9274 167.729 91.2352 167.959 91.5815 167.94C94.2557 167.691 105.164 166.579 111.051 164.528C111.339 164.432 111.493 164.145 111.455 163.838L110.089 155.749L99.4115 157.742C99.4115 157.742 96.6989 151.436 96.6797 150.956C96.6797 150.956 105.01 148.79 106.895 149.327L105.414 140.854C105.414 140.854 100.45 140.509 95.1599 142.675L94.1018 137.595C94.1018 137.595 103.432 135.391 105.991 134.912C106.337 134.854 106.568 134.528 106.549 134.183L105.856 126.592C105.837 126.324 105.626 126.151 105.395 126.209Z" fill="white"/>
<path d="M64.6291 169.358C61.2816 171.294 59.5694 168.841 59.5694 168.841C61.1277 164.01 60.4928 157.684 60.2235 155.48C59.9542 153.275 55.6448 140.01 48.3919 140.93C41.1583 141.85 35.5214 151.358 34.9635 152.758C34.4056 154.157 35.9254 153.85 35.9254 153.85C36.1563 158.7 38.0032 169.243 43.6208 176.566C49.2384 183.888 54.8752 175.473 54.8752 175.473C59.3385 179.556 60.8968 177.064 60.8968 177.064L65.187 170.336L64.6291 169.358ZM54.6444 166.77C51.4316 166.655 49.0268 170.527 49.0268 170.527C49.0268 170.527 46.8336 169.013 43.7747 160.119C40.7158 151.224 42.3895 147.084 42.3895 147.084C45.9871 146.662 50.2003 148.713 53.0283 156.706C55.8564 164.7 54.6444 166.77 54.6444 166.77Z" fill="white"/>
<path d="M68.6492 136.522C68.6492 136.522 68.226 135.793 67.4949 136.714C66.7639 137.634 62.2621 144.381 62.2621 144.381L68.3606 170.068C68.3606 170.068 69.8805 177.084 73.8051 175.014L84.4439 161.806C84.4439 161.806 85.175 160.963 82.9626 149.672C80.7502 138.381 79.5189 132.611 79.5189 132.611C79.5189 132.611 78.9225 131.404 77.672 132.899C76.4215 134.394 71.9775 139.206 71.9775 139.206L78.3261 165.429C78.3261 165.429 78.8263 166.579 77.9221 166.79C77.0179 167.001 76.2099 165.832 75.3827 163.896C74.5554 161.959 69.515 144.784 68.6492 136.522Z" fill="white"/>
<path d="M165.342 154.502C165.342 154.502 159.859 158.03 157.3 150.994C154.742 143.959 149.894 129.487 154.011 125.154C154.011 125.154 148.643 124.368 148.624 119.365C148.605 114.362 152.144 111.927 152.144 111.927L135.811 114.956C135.811 114.956 144.064 121.282 140.043 127.742C140.043 127.742 142.544 127.991 143.68 132.419C144.815 136.848 146.969 150.036 147.931 150.208C147.931 150.208 142.871 146.145 137.235 135.755C131.598 125.365 128.789 116.95 112.648 121.014C112.648 121.014 118.535 124.56 121.248 139.071C123.96 153.582 120.459 154.579 120.459 154.579C120.459 154.579 123.633 155.058 125.018 160.886C126.423 166.694 122.633 169.55 122.633 169.55L140.159 166.291C140.159 166.291 128.808 160.713 134.137 149.71C134.137 149.71 130.732 149.633 129.559 141.621C128.385 133.608 128.366 133.627 128.366 133.627C128.366 133.627 135.773 146.911 139.197 153.774C142.679 160.675 154.087 170.7 165.342 154.502Z" fill="white"/>
<path d="M318.267 126.094C318.267 126.094 312.784 129.621 310.226 122.586C307.686 115.551 302.819 101.078 306.936 96.7458C306.936 96.7458 301.568 95.9599 301.549 90.9567C301.53 85.9535 305.07 83.519 305.07 83.519L288.736 86.5478C288.736 86.5478 296.99 92.8736 292.969 99.3337C292.969 99.3337 295.47 99.5829 296.605 104.011C297.74 108.439 299.895 121.628 300.856 121.8C300.856 121.8 295.797 117.736 290.16 107.346C284.523 96.9567 281.714 88.5414 265.573 92.6053C265.573 92.6053 271.46 96.1516 274.173 110.663C276.885 125.174 273.384 126.171 273.384 126.171C273.384 126.171 276.558 126.65 277.944 132.477C279.348 138.286 275.558 141.142 275.558 141.142L293.084 137.883C293.084 137.883 281.734 132.305 287.063 121.302C287.063 121.302 283.657 121.225 282.484 113.212C281.31 105.199 281.291 105.219 281.291 105.219C281.291 105.219 288.698 118.503 292.122 125.366C295.585 132.266 306.994 142.311 318.267 126.094Z" fill="white"/>
<path d="M185.041 128.567C184.099 125.538 183.752 121.685 183.752 121.685C183.752 121.685 184.753 103.321 169.555 108.995C154.356 114.669 160.782 131.308 160.917 135.908C161.032 140.528 162.205 142.79 157.069 146.969C157.069 146.969 163.475 143.634 165.668 151.436C167.862 159.218 173.96 160.234 180.328 158.701C186.696 157.167 192.737 153.908 190.928 144.247C189.12 134.605 189.524 132.746 192.121 130.829C192.121 130.829 185.984 131.595 185.041 128.567ZM180.193 140.164C180.905 143.96 182.06 150.151 178.135 150.88C174.21 151.608 173.498 143.902 173.498 143.902C173.498 143.902 173.306 138.937 169.862 140.298C169.862 140.298 171.94 139.551 170.555 134.107C169.17 128.663 167.092 121.551 171.248 120.075C171.248 120.075 174.557 118.024 176.73 127.608C178.712 136.407 181.367 135.468 181.79 135.238C181.829 135.218 181.848 135.199 181.848 135.199C181.848 135.199 181.829 135.218 181.79 135.238C181.444 135.448 179.539 136.714 180.193 140.164Z" fill="white"/>
<path d="M222.229 117.027C222.229 117.027 206.781 125.825 205.723 120.094C204.646 114.362 202.452 112.56 200.086 113.749C197.7 114.937 196.623 121.052 206.185 124.464C215.746 127.877 221.729 130.081 222.383 139.589C223.037 149.097 212.245 152.95 207.878 153.391C203.51 153.832 199.413 153.851 197.258 150.19C195.103 146.528 188.947 145.436 187.216 146.126C185.484 146.816 199.855 138.228 199.855 138.228C199.855 138.228 203.049 145.397 206.088 143.729C209.109 142.062 207.512 133.474 200.913 133.953C194.314 134.432 194.584 135.87 194.584 135.87C194.584 135.87 198.258 133.704 194.449 129.238C190.64 124.771 181.463 109.436 195.411 104.624C209.359 99.8128 211.533 103.474 213.495 107.921C215.457 112.369 215.477 118.656 222.229 117.027Z" fill="white"/>
<path d="M267.324 90.5156L250.798 93.5252C250.798 93.5252 253.78 98.2025 255.646 107.5C257.512 116.777 257.359 122.701 254.396 125.02C254.396 125.02 257.705 124.867 258.397 129.18C259.09 133.493 257.57 135.583 255.05 135.985C252.53 136.388 247.489 134.988 248.624 125.96C248.624 125.96 245.873 124.924 245.008 119.538C244.142 114.151 246.22 97.244 240.891 96.2472C235.562 95.2504 227.905 98.3175 227.905 98.3175C227.905 98.3175 232.541 97.2057 234.196 109.838C235.869 122.471 238.89 127.512 235.562 132.094C235.562 132.094 239.044 130.79 240.275 136.138C241.506 141.467 245.431 147.467 257.147 144.496C268.863 141.525 269.671 137.327 269.055 131.174C268.44 125.001 267.959 124.349 270.729 123.161C270.729 123.161 266.766 123.793 266.131 119.845C265.496 115.877 258.898 93.3527 267.324 90.5156Z" fill="white"/>
<path d="M305.685 86.3363C305.685 86.3363 313.477 86.643 315.67 96.2468C317.863 105.851 319.576 114.803 313.919 118.943C313.919 118.943 319.075 118.905 319.749 125.806C320.422 132.688 314.343 133.972 314.343 133.972L355.282 126.381L352.069 109.934C352.069 109.934 353.551 114.86 346.913 117.333C340.276 119.806 332.485 122.068 329.984 117.659C327.483 113.25 337.775 110.605 345.49 112.771C345.49 112.771 346.567 112.617 346.394 108.956C346.221 105.295 344.566 99.2947 344.566 99.2947C344.566 99.2947 339.795 104.432 333.658 105.333C327.521 106.253 326.04 101.327 325.905 98.0295C325.77 94.7324 333.754 83.9785 344.951 89.6526L342.585 76.3875L305.685 86.3363Z" fill="white"/>
<path d="M120.286 180.63L124.307 175.301L350.934 142.291C350.934 142.291 358.245 142.061 356.283 146.298C354.32 150.515 347.048 151.78 334.563 153.218C322.077 154.636 120.286 180.63 120.286 180.63Z" fill="#E7348A"/>
<path d="M77.5001 234.956C72.171 235.722 67.8617 234.936 64.5527 232.598C61.2629 230.259 59.2621 226.751 58.5887 222.055C57.6845 215.805 59.1082 210.438 62.8404 205.933C66.5727 201.429 71.6901 198.707 78.1927 197.767C81.8095 197.25 84.676 197.652 86.773 198.994C88.87 200.336 90.1204 202.33 90.486 204.956C91.0054 208.56 89.678 211.799 86.5036 214.694C83.3293 217.588 78.0772 219.582 70.7282 220.675C71.2091 223.147 72.0556 225.007 73.2676 226.272C74.4797 227.537 75.8456 228.074 77.3654 227.844C78.8852 227.633 80.1165 226.943 81.0784 225.774C82.0403 224.604 82.3482 222.879 82.0211 220.598C87.6964 219.774 90.7361 220.713 91.1208 223.377C91.4479 225.659 90.3705 228.016 87.8503 230.412C85.3493 232.809 81.9057 234.323 77.5001 234.956ZM78.1927 204.707C76.2111 204.994 74.5374 206.24 73.1714 208.464C71.8055 210.687 70.9398 213.179 70.5935 215.959C74.4412 215.096 77.2307 213.793 79.0007 212.048C80.7514 210.304 81.5209 208.636 81.2708 207.007C81.1554 206.24 80.8283 205.627 80.2704 205.186C79.6932 204.745 79.0007 204.592 78.1927 204.707Z" fill="white"/>
<path d="M114.207 200.469C112.822 201.102 111.764 201.888 111.033 202.789C110.282 203.709 109.705 204.955 109.244 206.508C115.958 206.527 120.787 207.255 123.73 208.693C126.674 210.131 128.405 212.527 128.886 215.901C129.194 218.028 128.867 219.965 127.886 221.709C126.904 223.453 125.558 224.853 123.846 225.945C120.479 227.977 117.074 229.242 113.611 229.722C103.761 231.14 98.5471 229.741 97.9314 225.504C97.6236 223.377 98.2585 221.096 99.8553 218.699C101.029 219.926 102.664 220.865 104.761 221.556C106.858 222.246 108.859 222.457 110.725 222.188C113.957 221.728 115.688 220.022 115.939 217.108C109.917 217.262 105.454 216.552 102.529 215C99.6052 213.447 97.8929 210.897 97.3735 207.37C96.9695 204.572 97.5467 202.099 99.1242 199.933C100.702 197.767 102.799 196.118 105.434 194.968C108.07 193.818 111.11 192.993 114.553 192.495C117.997 191.997 120.921 192.246 123.345 193.223C125.769 194.201 127.116 195.62 127.385 197.479C127.655 199.338 127.212 200.872 126.058 202.06C124.904 203.249 123.557 203.958 122.018 204.188C120.479 204.418 119.017 204.207 117.631 203.575C116.285 202.961 115.131 201.926 114.207 200.469Z" fill="white"/>
<path d="M154.8 185.441L150.856 181.262C155.3 177.735 158.936 175.76 161.745 175.358C163.342 175.128 164.515 175.281 165.266 175.837C166.016 176.374 166.516 177.543 166.785 179.307C167.036 181.07 166.901 186.169 166.343 194.585C165.804 203.019 165.766 208.866 166.247 212.163C166.728 215.46 167.67 217.703 169.075 218.872C166.632 221.153 164.304 222.476 162.072 222.783C159.86 223.108 158.128 222.61 156.878 221.307C155.627 220.003 154.838 218.067 154.454 215.517C154.088 212.968 154.05 207.62 154.338 199.511C154.627 191.403 154.781 186.706 154.8 185.441Z" fill="white"/>
<path d="M197.682 208.885L197.047 208.674C196.393 211.607 195.2 214.003 193.469 215.862C191.738 217.722 189.66 218.814 187.255 219.159C183.946 219.639 181.118 218.776 178.79 216.572C176.462 214.367 174.981 211.204 174.385 207.064C173.461 200.623 174.846 194.93 178.559 189.965C182.272 185 187.351 182.048 193.815 181.128C195.489 180.878 197.047 180.821 198.49 180.936C198.875 181.99 199.164 182.91 199.318 183.735C201.087 182.22 202.992 181.3 205.051 181.013C207.898 180.61 209.533 181.933 209.976 185C210.129 186.092 209.995 189.447 209.552 195.083C209.11 200.719 209.091 204.859 209.475 207.505C209.86 210.15 210.726 211.875 212.073 212.719C210.168 214.923 208.032 216.207 205.685 216.552C203.338 216.897 201.511 216.437 200.241 215.191C198.952 213.926 198.105 211.837 197.682 208.885ZM184.927 202.655C185.197 204.552 185.812 205.952 186.755 206.872C187.698 207.792 188.91 208.137 190.391 207.926C191.872 207.715 193.257 206.968 194.527 205.664C195.816 204.38 196.797 202.712 197.49 200.661C197.278 196.693 197.355 191.958 197.759 186.438C193.835 186.993 190.564 188.91 187.986 192.169C185.408 195.447 184.389 198.936 184.927 202.655Z" fill="white"/>
<path d="M239.276 209.518C237.967 208.214 237.121 206.125 236.698 203.249C236.274 200.355 236.313 191.997 236.813 178.157L232.811 172.387C236.794 168.917 240.603 166.943 244.22 166.406C247.221 165.984 248.972 167.575 249.51 171.218C249.664 172.31 249.568 176.949 249.241 185.154C248.895 193.358 248.895 198.534 249.203 200.7L255.513 199.799C258.398 198.955 261.265 197.767 264.112 196.253C264.439 196.924 264.709 197.844 264.882 199.051C265.209 201.332 264.843 203.46 263.747 205.454C262.669 207.428 260.938 208.598 258.552 208.923C256.956 209.153 254.128 209.115 250.087 208.828C248.587 209.959 246.913 210.649 245.085 210.917C242.508 211.281 240.584 210.821 239.276 209.518Z" fill="white"/>
<path d="M279.503 205.913C276.079 206.412 273.558 205.913 271.962 204.437C270.365 202.961 269.364 200.968 268.999 198.418C268.633 195.888 268.556 192.342 268.768 187.798C268.98 183.255 268.941 179.997 268.672 178.022C268.383 176.048 267.748 174.552 266.767 173.556C270.115 171.14 273.02 169.741 275.521 169.396C277.117 169.166 278.31 169.319 279.137 169.856C279.945 170.393 280.465 171.37 280.677 172.808C280.888 174.246 280.792 177.85 280.426 183.62C280.042 189.389 279.965 192.936 280.157 194.258C280.349 195.581 280.869 196.559 281.715 197.211C282.562 197.862 283.582 198.092 284.794 197.92C286.006 197.747 287.218 197.096 288.43 195.945C289.661 194.795 290.565 193.3 291.161 191.421C291.258 188.201 291.604 183.083 292.22 176.086L288.045 171.945C291.565 168.553 295.086 166.597 298.626 166.099C300.377 165.85 301.685 165.984 302.531 166.521C303.378 167.057 303.897 167.958 304.09 169.262C304.282 170.565 304.109 174.38 303.57 180.706C303.031 187.032 302.955 191.479 303.339 194.067C303.705 196.635 304.571 198.361 305.936 199.242C304.032 201.447 301.877 202.731 299.492 203.076C297.106 203.421 295.298 203.153 294.105 202.252C292.912 201.351 292.181 200.048 291.931 198.342L291.296 198.131C290.276 200.182 288.718 201.888 286.602 203.287C284.466 204.648 282.1 205.53 279.503 205.913Z" fill="white"/>
<path d="M323.482 196.617C321.577 198.591 319.653 199.722 317.71 199.991C315.767 200.278 314.228 199.933 313.093 198.994C311.958 198.054 311.284 196.751 311.034 195.102C310.804 193.454 311.169 191.844 312.189 190.272C313.189 188.7 314.786 187.626 316.96 187.032L325.059 175.55C320.211 176.087 316.787 175.856 314.767 174.841C312.747 173.825 311.554 172.003 311.169 169.358C311.015 168.304 310.977 166.521 311.054 163.972C313.824 164.681 316.979 165.237 320.519 165.601C324.059 165.984 326.829 166.061 328.772 165.869C329.215 164.585 330.003 163.473 331.119 162.534C332.235 161.595 333.639 161.02 335.332 160.77C337.025 160.521 338.468 160.828 339.661 161.69C340.854 162.553 341.566 163.799 341.816 165.409C342.22 168.246 341.104 170.47 338.449 172.118L328.368 187.626C331.004 188.048 333.062 188.163 334.563 187.991L342.047 183.773C343.162 185.748 343.855 187.684 344.144 189.562C344.413 191.441 343.759 193.185 342.162 194.796C340.565 196.406 338.507 197.403 335.987 197.767C333.466 198.131 330.715 198.035 327.791 197.46C326.752 197.326 325.329 197.038 323.482 196.617Z" fill="white"/>
</svg>
