<svg width="1920" height="1439" viewBox="0 0 1920 1439" fill="none" xmlns="http://www.w3.org/2000/svg">
<path d="M-4.5 364.877C-4.5 364.877 320.363 310.02 338.244 277.247C356.126 244.457 379.968 200.342 399.031 199.742C399.031 199.742 394.851 168.733 415.131 169.333V119.856C415.131 119.856 402.61 116.275 402.61 106.733C402.61 106.733 381.978 107.844 381.308 96.8902C381.308 96.8902 369.916 93.5388 369.687 87.0477C369.687 87.0477 356.725 86.6067 355.385 78.3341H369.246C369.246 78.3341 369.916 73.1835 376.846 73.6422C383.777 74.0831 421.55 73.6069 421.55 73.6069C421.55 73.6069 426.241 74.7534 426.47 67.1511C426.699 59.5487 428.48 40.9927 438.991 39.8814C449.501 38.7702 451.511 62.0182 451.511 66.2691C451.511 70.5201 453.751 74.5418 458.671 74.1008C463.591 73.6598 500.906 74.1008 500.906 74.1008C500.906 74.1008 507.836 74.3301 508.506 79.022H519.016C519.016 79.022 521.027 85.7248 508.294 86.1834C508.294 86.1834 504.503 99.5889 494.892 98.707C494.892 98.707 493.993 109.22 481.261 110.772C481.261 110.772 481.031 122.396 464.949 122.396V167.781C464.949 167.781 482.16 163.089 482.16 198.402C482.16 198.402 516.512 205.704 546.897 255.181C577.281 304.658 624.983 364.877 624.983 364.877H628.703C628.703 364.877 634.964 361.296 631.684 351.472C628.404 341.629 614.102 325.542 615.883 304.076C617.664 282.61 622.143 280.228 614.102 270.686C606.061 261.143 595.921 236.996 612.903 221.509V234.632H645.086V219.127C645.086 219.127 659.388 224.19 657.906 248.337C656.425 272.485 647.766 270.403 655.526 279.629C663.285 288.854 663.267 281.71 663.267 281.71C663.267 281.71 665.648 270.086 672.208 270.386C678.768 270.686 677.869 245.639 702.01 245.639C726.152 245.639 728.533 265.606 728.233 270.386C727.933 275.148 723.771 289.753 705.89 289.753C705.89 289.753 714.231 302.577 709.77 315.383C705.308 328.206 698.448 324.625 702.328 354.435H765.513V250.701H779.215V211.049H789.936L800.359 150.83L809.899 210.449H818.84V250.401H848.042V188.101H865.624V154.71H882.306V114.176H888.866L910.028 51.8758L922.848 115.958H933.27V148.449H960.392V110.296H973.795V81.3856H983.335V48.2952H1000.02L1017.3 0L1033.1 47.0957H1046.22V69.4441H1061.12V114.758H1071.26V138.606H1084.08V100.753H1093.62L1100.18 33.6902L1120.44 101.053H1128.78V139.206H1143.09V168.716H1159.47V220.292H1173.77V195.544H1185.69L1196.71 129.663L1209.23 193.745H1226.52V222.355H1245V339.213H1306.54C1306.54 339.213 1333.8 337.872 1371.37 272.591C1408.91 207.309 1414.29 191.664 1414.29 191.664V150.301H1403.57V140.952H1414.29V128.217H1423.46V140.282H1432.17V149.454H1423.23V182.474C1423.23 182.474 1435.75 168.01 1452.06 168.01V132.238H1439.54V118.374H1452.06V102.058H1471.05V115.922H1484.69V131.568H1472.62V164.2C1472.62 164.2 1493.19 171.573 1499.89 178.964V163.988H1492.06V156.157H1499.89V146.544H1507.26V156.598H1515.76V164.87H1506.59V184.538C1506.59 184.538 1519.18 189.3 1550.46 234.914C1581.75 280.528 1624.67 324.643 1624.67 324.643H1922.82L1922.5 1439H-4.5V364.877Z" fill="#E7348A"/>
</svg>
