<svg width="375" height="402" viewBox="0 0 375 402" fill="none" xmlns="http://www.w3.org/2000/svg">
<path d="M-14.9999 101.932C-14.9999 101.932 -4.84168 86.6075 0.153698 77.452C5.14908 68.2916 11.8096 55.9677 17.135 55.8001C17.135 55.8001 15.9675 47.1374 21.6328 47.3049V33.483C21.6328 33.483 18.1351 32.4827 18.1351 29.8169C18.1351 29.8169 12.3712 30.1273 12.184 27.0673C12.184 27.0673 9.00153 26.1311 8.93749 24.3177C8.93749 24.3177 5.31658 24.1945 4.94217 21.8835H8.81433C8.81433 21.8835 9.00153 20.4446 10.9376 20.5727C12.8737 20.6959 23.4261 20.5629 23.4261 20.5629C23.4261 20.5629 24.7365 20.8832 24.8005 18.7594C24.8646 16.6356 25.3621 11.4517 28.2983 11.1413C31.2344 10.8309 31.796 17.3254 31.796 18.513C31.796 19.7005 32.4217 20.824 33.7962 20.7008C35.1706 20.5777 45.5949 20.7008 45.5949 20.7008C45.5949 20.7008 47.531 20.7649 47.7182 22.0756H50.6543C50.6543 22.0756 51.2159 23.9481 47.6591 24.0762C47.6591 24.0762 46.5999 27.8212 43.915 27.5748C43.915 27.5748 43.6638 30.5117 40.1069 30.9453C40.1069 30.9453 40.0428 34.1926 35.55 34.1926V46.8713C35.55 46.8713 40.3581 45.5606 40.3581 55.4256C40.3581 55.4256 49.9548 57.4657 58.443 71.2876C66.9312 85.1095 80.2571 101.932 80.2571 101.932H81.2966C81.2966 101.932 83.0455 100.932 82.1292 98.1873C81.2129 95.4377 77.2175 90.9438 77.7151 84.9469C78.2127 78.95 79.464 78.2848 77.2175 75.6189C74.9711 72.9531 72.1384 66.2072 76.8825 61.8808V65.5469H85.8732V61.2156C85.8732 61.2156 89.8686 62.6298 89.4547 69.3757C89.0409 76.1215 86.622 75.5401 88.7897 78.1172C90.9573 80.6944 90.9524 78.6987 90.9524 78.6987C90.9524 78.6987 91.6174 75.4514 93.4501 75.5352C95.2827 75.6189 95.0314 68.6217 101.776 68.6217C108.52 68.6217 109.185 74.1998 109.101 75.5352C109.018 76.8656 107.855 80.9457 102.859 80.9457C102.859 80.9457 105.19 84.528 103.943 88.1055C102.697 91.6878 100.781 90.6875 101.864 99.0152H119.516V70.036H123.344V58.9587H126.339L129.25 42.1359L131.915 58.7912H134.413V69.9522H142.571V52.5479H147.483V43.22H152.143V31.8964H153.976L159.888 14.4921L163.469 32.394H166.381V41.4707H173.957V30.8123H177.702V22.7359H180.367V13.4918H185.027L189.855 0L194.269 13.1567H197.934V19.4H202.097V32.059H204.93V38.7211H208.511V28.1464H211.176L213.009 9.41172L218.67 28.2302H221V38.8886H224.995V47.1325H229.572V61.5408H233.567V54.6274H236.897L239.976 36.2228L243.474 54.1247H248.302V62.1173H253.465V94.7626H270.658C270.658 94.7626 278.274 94.3882 288.767 76.1511C299.256 57.9141 300.758 53.5433 300.758 53.5433V41.9881H297.763V39.3764H300.758V35.8187H303.32V39.1892H305.754V41.7515H303.256V50.976C303.256 50.976 306.754 46.9354 311.311 46.9354V36.9422H307.813V33.0691H311.311V28.5111H316.616V32.3842H320.425V36.755H317.055V45.871C317.055 45.871 322.799 47.9307 324.671 49.9954V45.8119H322.484V43.624H324.671V40.9385H326.73V43.7472H329.105V46.0583H326.543V51.5525C326.543 51.5525 330.061 52.883 338.8 65.6258C347.54 78.3685 359.53 90.6925 359.53 90.6925H387L386.911 402H-15L-14.9999 101.932Z" fill="#E7348A"/>
</svg>
