<svg width="1920" height="1439" viewBox="0 0 1920 1439" fill="none" xmlns="http://www.w3.org/2000/svg">
<path d="M-1 364.877C-1 364.877 268.863 310.02 286.744 277.247C304.626 244.457 328.468 200.342 347.531 199.742C347.531 199.742 343.351 168.733 363.631 169.333V119.856C363.631 119.856 351.11 116.275 351.11 106.733C351.11 106.733 330.478 107.844 329.808 96.8902C329.808 96.8902 318.416 93.5388 318.187 87.0477C318.187 87.0477 305.225 86.6067 303.885 78.3341H317.746C317.746 78.3341 318.416 73.1835 325.346 73.6422C332.277 74.0831 370.05 73.6069 370.05 73.6069C370.05 73.6069 374.741 74.7534 374.97 67.1511C375.199 59.5487 376.98 40.9927 387.491 39.8814C398.001 38.7702 400.011 62.0182 400.011 66.2691C400.011 70.5201 402.251 74.5418 407.171 74.1008C412.091 73.6598 449.406 74.1008 449.406 74.1008C449.406 74.1008 456.336 74.3301 457.006 79.022H467.516C467.516 79.022 469.527 85.7248 456.794 86.1834C456.794 86.1834 453.003 99.5889 443.392 98.707C443.392 98.707 442.493 109.22 429.761 110.772C429.761 110.772 429.531 122.396 413.449 122.396V167.781C413.449 167.781 430.66 163.089 430.66 198.402C430.66 198.402 465.012 205.704 495.397 255.181C525.781 304.658 573.483 364.877 573.483 364.877H577.203C577.203 364.877 583.464 361.296 580.184 351.472C576.904 341.629 562.602 325.542 564.383 304.076C566.164 282.61 570.643 280.228 562.602 270.686C554.561 261.143 544.421 236.996 561.403 221.509V234.632H593.586V219.127C593.586 219.127 607.888 224.19 606.406 248.337C604.925 272.485 596.266 270.403 604.026 279.629C611.785 288.854 611.767 281.71 611.767 281.71C611.767 281.71 614.148 270.086 620.708 270.386C627.268 270.686 626.369 245.639 650.51 245.639C674.652 245.639 677.033 265.606 676.733 270.386C676.433 275.148 672.271 289.753 654.39 289.753C654.39 289.753 662.731 302.577 658.27 315.383C653.808 328.206 646.948 324.625 650.828 354.435H714.013V250.701H727.715V211.049H738.436L748.859 150.83L758.399 210.449H767.34V250.401H796.542V188.101H814.124V154.71H830.806V114.176H837.366L858.528 51.8758L871.348 115.958H881.77V148.449H908.892V110.296H922.295V81.3856H931.835V48.2952H948.517L965.799 0L981.6 47.0957H994.72V69.4441H1009.62V114.758H1019.76V138.606H1032.58V100.753H1042.12L1048.68 33.6902L1068.94 101.053H1077.28V139.206H1091.59V168.716H1107.97V220.292H1122.27V195.544H1134.19L1145.21 129.663L1157.73 193.745H1175.02V222.355H1193.5V339.213H1255.04C1255.04 339.213 1282.3 337.872 1319.87 272.591C1357.41 207.309 1362.79 191.664 1362.79 191.664V150.301H1352.07V140.952H1362.79V128.217H1371.96V140.282H1380.67V149.454H1371.73V182.474C1371.73 182.474 1384.25 168.01 1400.56 168.01V132.238H1388.04V118.374H1400.56V102.058H1419.55V115.922H1433.19V131.568H1421.12V164.2C1421.12 164.2 1441.69 171.573 1448.39 178.964V163.988H1440.56V156.157H1448.39V146.544H1455.76V156.598H1464.26V164.87H1455.09V184.538C1455.09 184.538 1467.68 189.3 1498.96 234.914C1530.25 280.528 1573.17 324.643 1573.17 324.643L1922.5 338.213V1438L-1 1439V364.877Z" fill="#E7348A"/>
</svg>
