<svg width="1920" height="542" viewBox="0 0 1920 542" fill="none" xmlns="http://www.w3.org/2000/svg">
<path d="M1920 3.27816C1920 3.27816 1658.66 -39.3237 1533.22 182.628C1533.22 182.628 1254.45 166.755 1198.71 361.808C1198.71 361.808 947.812 206.061 738.754 369.732C738.754 369.732 679.506 201.578 428.612 244.18C428.612 244.18 365.882 -0.187182 0 11.0085L0 542H1920V3.27816Z" fill="white"/>
<path d="M909.596 381.861L907.374 353L901.84 355.227L905.166 381.861L891.86 371.877L889.653 376.316L904.047 384.088L883 387.422V388.528L902.944 387.422L891.86 398.512L892.979 399.633L906.27 388.528L909.596 407.39H911.804L909.596 387.422L923.991 396.3L925.11 395.179L911.804 385.195L929.54 386.301L930.644 380.755L910.7 382.982L923.991 372.983L920.665 368.544L909.596 381.861Z" fill="#E7348A"/>
<path d="M962.775 381.861L960.552 353L955.018 355.227L958.345 381.861L945.039 371.877L942.831 376.316L957.226 384.088L936.178 387.422V388.528L956.122 387.422L945.039 398.512L946.158 399.633L959.448 388.528L962.775 407.39H964.983L962.775 387.422L977.169 396.3L978.273 395.179L964.983 385.195L982.704 386.301L983.822 380.755L963.879 382.982L977.169 372.983L973.843 368.544L962.775 381.861Z" fill="#31245D"/>
<path d="M1015.95 381.861L1013.73 353L1008.2 355.227L1011.51 381.861L998.216 371.877L996.009 376.316L1010.4 384.088L989.356 387.422V388.528L1009.3 387.422L998.216 398.512L999.335 399.633L1012.63 388.528L1015.95 407.39H1018.16L1015.95 387.422L1030.35 396.3L1031.45 395.179L1018.16 385.195L1035.88 386.301L1037 380.755L1017.06 382.982L1030.35 372.983L1027.02 368.544L1015.95 381.861Z" fill="#48BAEC"/>
<path d="M979.6 430H943.6L950.8 497.062H928L958 527L994 497.062H967.6L979.6 430Z" fill="#43BCF1"/>
</svg>
