<svg width="556" height="384" viewBox="0 0 556 384" fill="none" xmlns="http://www.w3.org/2000/svg">
<g clip-path="url(#clip0_8_1089)">
<path d="M38.4467 60.4096C38.4467 60.4096 86.289 97.0938 67.9717 146.437C49.6543 195.78 5.02945 207.595 5.02945 207.595C5.02945 207.595 51.0725 209.695 60.9175 238.371C70.7624 267.047 2.51901 293.203 2.51901 293.203C2.51901 293.203 74.6356 288.129 104.074 305.416C133.507 322.702 132.323 353.489 132.323 353.489C132.323 353.489 154.518 325.233 192.516 333.237C230.513 341.241 227.392 361.487 227.392 361.487C227.392 361.487 254.132 326.9 288.109 337.86C322.086 348.82 328.424 377.074 328.424 377.074C328.424 377.074 347.117 348.395 367.605 354.295C388.093 360.195 414.024 377.059 414.024 377.059C414.024 377.059 418.71 346.695 442.847 328.979C466.984 311.264 502.379 336.14 502.379 336.14C502.379 336.14 464.001 307.467 482.318 258.124C500.636 208.781 549.139 218.048 549.139 218.048C549.139 218.048 483.645 203.299 487.812 176.308C491.98 149.318 523.639 129.069 548.671 128.643C548.671 128.643 524.158 125.695 506.272 102.927C488.386 80.155 520.188 35.8717 520.188 35.8717C520.188 35.8717 482.424 72.5658 447.924 64.9797C413.423 57.3936 413.194 12.6957 413.194 12.6957C413.194 12.6957 409.408 60.35 359.34 61.2014C309.271 62.0528 316.941 35.4851 316.941 35.4851C316.941 35.4851 300.189 74.7096 250.639 72.1866C201.094 69.6637 169.343 21.1721 169.343 21.1721C169.343 21.1721 171.661 52.3773 130.014 67.989C88.3677 83.6007 38.4467 60.4096 38.4467 60.4096Z" fill="#F9288D"/>
</g>
<defs>
<clipPath id="clip0_8_1089">
<rect width="544.168" height="366.874" fill="white" transform="translate(11.592) rotate(1.81066)"/>
</clipPath>
</defs>
</svg>
