<svg width="318" height="219" viewBox="0 0 318 219" fill="none" xmlns="http://www.w3.org/2000/svg">
<g clip-path="url(#clip0_7_449)">
<path d="M22.6777 34.5686C22.6777 34.5686 49.9323 55.4668 39.4973 83.5764C29.0624 111.686 3.64059 118.417 3.64059 118.417C3.64059 118.417 29.8703 119.613 35.4787 135.949C41.0872 152.285 2.21045 167.186 2.21045 167.186C2.21045 167.186 43.2936 164.295 60.0639 174.143C76.8313 183.991 76.1567 201.529 76.1567 201.529C76.1567 201.529 88.8009 185.432 110.447 189.992C132.093 194.552 130.316 206.085 130.316 206.085C130.316 206.085 145.548 186.382 164.904 192.626C184.26 198.87 187.871 214.965 187.871 214.965C187.871 214.965 198.52 198.627 210.192 201.988C221.863 205.35 236.636 214.957 236.636 214.957C236.636 214.957 239.305 197.659 253.055 187.567C266.806 177.475 286.97 191.646 286.97 191.646C286.97 191.646 265.106 175.312 275.541 147.202C285.976 119.092 313.607 124.372 313.607 124.372C313.607 124.372 276.297 115.969 278.671 100.594C281.045 85.2179 299.081 73.6824 313.341 73.4398C313.341 73.4398 299.376 71.7601 289.187 58.7898C278.998 45.8171 297.114 20.59 297.114 20.59C297.114 20.59 275.602 41.4937 255.947 37.1721C236.293 32.8505 236.163 7.38709 236.163 7.38709C236.163 7.38709 234.006 34.5347 205.483 35.0197C176.96 35.5047 181.329 20.3697 181.329 20.3697C181.329 20.3697 171.786 42.715 143.559 41.2777C115.334 39.8405 97.2462 12.2159 97.2462 12.2159C97.2462 12.2159 98.5666 29.9928 74.8416 38.8864C51.1165 47.7801 22.6777 34.5686 22.6777 34.5686Z" fill="#F9288D"/>
</g>
<defs>
<clipPath id="clip0_7_449">
<rect width="310" height="209" fill="white" transform="translate(7.37915 0.154663) rotate(1.81066)"/>
</clipPath>
</defs>
</svg>
