<svg width="375" height="213" viewBox="0 0 375 213" fill="none" xmlns="http://www.w3.org/2000/svg">
<g clip-path="url(#clip0_7_440)">
<path d="M395 0.708556C395 0.708556 338.24 -8.5224 310.997 39.57C310.997 39.57 250.45 36.1307 238.344 78.3946C238.344 78.3946 183.853 44.6475 138.448 80.1116C138.448 80.1116 125.58 43.6761 71.0892 52.9071C71.0892 52.9071 57.4651 -0.0423127 -22 2.38357V212.994H395V0.708556Z" fill="white"/>
<path d="M168.753 97.529L167.97 87.3896L166.022 88.172L167.193 97.529L162.508 94.0214L161.731 95.5809L166.799 98.3113L159.388 99.4823V99.8708L166.411 99.4823L162.508 103.378L162.902 103.772L167.582 99.8708L168.753 106.497H169.53L168.753 99.4823L173.821 102.601L174.215 102.207L169.53 98.6999L175.775 99.0885L176.164 97.1404L169.142 97.9228L173.821 94.41L172.65 92.8505L168.753 97.529Z" fill="#E7348A"/>
<path d="M187.477 97.529L186.695 87.3896L184.746 88.172L185.917 97.529L181.232 94.0214L180.455 95.5809L185.523 98.3113L178.113 99.4823V99.8708L185.135 99.4823L181.232 103.378L181.626 103.772L186.306 99.8708L187.477 106.497H188.254L187.477 99.4823L192.545 102.601L192.934 102.207L188.254 98.6999L194.494 99.0885L194.888 97.1404L187.866 97.9228L192.545 94.41L191.374 92.8505L187.477 97.529Z" fill="#31245D"/>
<path d="M206.201 97.529L205.418 87.3896L203.47 88.172L204.636 97.529L199.956 94.0214L199.179 95.5809L204.247 98.3113L196.836 99.4823V99.8708L203.858 99.4823L199.956 103.378L200.35 103.772L205.03 99.8708L206.201 106.497H206.978L206.201 99.4823L211.269 102.601L211.658 102.207L206.978 98.6999L213.218 99.0885L213.612 97.1404L206.589 97.9228L211.269 94.41L210.098 92.8505L206.201 97.529Z" fill="#48BAEC"/>
<path d="M195.349 123.606H178.757L182.076 154.508H171.568L185.394 168.303L201.985 154.508H189.818L195.349 123.606Z" fill="#43BCF1"/>
</g>
<defs>
<clipPath id="clip0_7_440">
<rect width="417" height="213" fill="white" transform="translate(-22)"/>
</clipPath>
</defs>
</svg>
