<svg width="1920" height="1206" viewBox="0 0 1920 1206" fill="none" xmlns="http://www.w3.org/2000/svg">
<path d="M-2 364.877C-2 364.877 282.863 310.02 300.744 277.247C318.626 244.457 342.468 200.342 361.531 199.742C361.531 199.742 357.351 168.733 377.631 169.333V119.856C377.631 119.856 365.11 116.275 365.11 106.733C365.11 106.733 344.478 107.844 343.808 96.8902C343.808 96.8902 332.416 93.5388 332.187 87.0477C332.187 87.0477 319.225 86.6067 317.885 78.3341H331.746C331.746 78.3341 332.416 73.1835 339.346 73.6422C346.277 74.0831 384.05 73.6069 384.05 73.6069C384.05 73.6069 388.741 74.7534 388.97 67.1511C389.199 59.5487 390.98 40.9927 401.491 39.8814C412.001 38.7702 414.011 62.0182 414.011 66.2691C414.011 70.5201 416.251 74.5418 421.171 74.1008C426.091 73.6598 463.406 74.1008 463.406 74.1008C463.406 74.1008 470.336 74.3301 471.006 79.022H481.516C481.516 79.022 483.527 85.7248 470.794 86.1834C470.794 86.1834 467.003 99.5889 457.392 98.707C457.392 98.707 456.493 109.22 443.761 110.772C443.761 110.772 443.531 122.396 427.449 122.396V167.781C427.449 167.781 444.66 163.089 444.66 198.402C444.66 198.402 479.012 205.704 509.397 255.181C539.781 304.658 587.483 364.877 587.483 364.877H591.203C591.203 364.877 597.464 361.296 594.184 351.472C590.904 341.629 576.602 325.542 578.383 304.076C580.164 282.61 584.643 280.228 576.602 270.686C568.561 261.143 558.421 236.996 575.403 221.509V234.632H607.586V219.127C607.586 219.127 621.888 224.19 620.406 248.337C618.925 272.485 610.266 270.403 618.026 279.629C625.785 288.854 625.767 281.71 625.767 281.71C625.767 281.71 628.148 270.086 634.708 270.386C641.268 270.686 640.369 245.639 664.51 245.639C688.652 245.639 691.033 265.606 690.733 270.386C690.433 275.148 686.271 289.753 668.39 289.753C668.39 289.753 676.731 302.577 672.27 315.383C667.808 328.206 660.948 324.625 664.828 354.435H728.013V250.701H741.715V211.049H752.436L762.859 150.83L772.399 210.449H781.34V250.401H810.542V188.101H828.124V154.71H844.806V114.176H851.366L872.528 51.8758L885.348 115.958H895.77V148.449H922.892V110.296H936.295V81.3856H945.835V48.2952H962.517L979.799 0L995.6 47.0957H1008.72V69.4441H1023.62V114.758H1033.76V138.606H1046.58V100.753H1056.12L1062.68 33.6902L1082.94 101.053H1091.28V139.206H1105.59V168.716H1121.97V220.292H1136.27V195.544H1148.19L1159.21 129.663L1171.73 193.745H1189.02V222.355H1207.5V339.213H1269.04C1269.04 339.213 1296.3 337.872 1333.87 272.591C1371.41 207.309 1376.79 191.664 1376.79 191.664V150.301H1366.07V140.952H1376.79V128.217H1385.96V140.282H1394.67V149.454H1385.73V182.474C1385.73 182.474 1398.25 168.01 1414.56 168.01V132.238H1402.04V118.374H1414.56V102.058H1433.55V115.922H1447.19V131.568H1435.12V164.2C1435.12 164.2 1455.69 171.573 1462.39 178.964V163.988H1454.56V156.157H1462.39V146.544H1469.76V156.598H1478.26V164.87H1469.09V184.538C1469.09 184.538 1481.68 189.3 1512.96 234.914C1544.25 280.528 1587.17 324.643 1587.17 324.643H1921.32L1921 1267H-2V364.877Z" fill="#43BCF1"/>
</svg>
