<svg width="375" height="799" viewBox="0 0 375 799" fill="none" xmlns="http://www.w3.org/2000/svg">
<path d="M-14 101.932C-14 101.932 -3.84174 86.6075 1.15364 77.452C6.14902 68.2916 12.8095 55.9677 18.135 55.8001C18.135 55.8001 16.9674 47.1374 22.6328 47.3049V33.483C22.6328 33.483 19.135 32.4827 19.135 29.8169C19.135 29.8169 13.3711 30.1273 13.1839 27.0673C13.1839 27.0673 10.0015 26.1311 9.93742 24.3177C9.93742 24.3177 6.31652 24.1945 5.94211 21.8835H9.81427C9.81427 21.8835 10.0015 20.4446 11.9375 20.5727C13.8736 20.6959 24.426 20.5629 24.426 20.5629C24.426 20.5629 25.7364 20.8832 25.8005 18.7594C25.8645 16.6356 26.3621 11.4517 29.2982 11.1413C32.2344 10.8309 32.796 17.3254 32.796 18.513C32.796 19.7005 33.4216 20.824 34.7961 20.7008C36.1706 20.5777 46.5948 20.7008 46.5948 20.7008C46.5948 20.7008 48.5309 20.7649 48.7181 22.0756H51.6543C51.6543 22.0756 52.2159 23.9481 48.659 24.0762C48.659 24.0762 47.5998 27.8212 44.9149 27.5748C44.9149 27.5748 44.6637 30.5117 41.1068 30.9453C41.1068 30.9453 41.0428 34.1926 36.5499 34.1926V46.8713C36.5499 46.8713 41.3581 45.5606 41.3581 55.4256C41.3581 55.4256 50.9547 57.4657 59.4429 71.2876C67.9311 85.1095 81.2571 101.932 81.2571 101.932H82.2965C82.2965 101.932 84.0454 100.932 83.1291 98.1873C82.2128 95.4377 78.2175 90.9438 78.715 84.9469C79.2126 78.95 80.4639 78.2848 78.2175 75.6189C75.971 72.9531 73.1383 66.2072 77.8825 61.8808V65.5469H86.8732V61.2156C86.8732 61.2156 90.8685 62.6298 90.4547 69.3757C90.0409 76.1215 87.622 75.5401 89.7896 78.1172C91.9572 80.6944 91.9523 78.6987 91.9523 78.6987C91.9523 78.6987 92.6174 75.4514 94.45 75.5352C96.2826 75.6189 96.0314 68.6217 102.776 68.6217C109.52 68.6217 110.185 74.1998 110.101 75.5352C110.017 76.8656 108.855 80.9457 103.859 80.9457C103.859 80.9457 106.19 84.528 104.943 88.1055C103.697 91.6878 101.78 90.6875 102.864 99.0152H120.516V70.036H124.343V58.9587H127.339L130.25 42.1359L132.915 58.7912H135.413V69.9522H143.571V52.5479H148.483V43.22H153.143V31.8964H154.976L160.888 14.4921L164.469 32.394H167.381V41.4707H174.957V30.8123H178.701V22.7359H181.367V13.4918H186.027L190.855 0L195.269 13.1567H198.934V19.4H203.097V32.059H205.93V38.7211H209.511V28.1464H212.176L214.009 9.41172L219.669 28.2302H222V38.8886H225.995V47.1325H230.572V61.5408H234.567V54.6274H237.897L240.976 36.2228L244.474 54.1247H249.302V62.1173H254.465V94.7626H271.658C271.658 94.7626 279.274 94.3882 289.767 76.1511C300.256 57.9141 301.758 53.5433 301.758 53.5433V41.9881H298.763V39.3764H301.758V35.8187H304.32V39.1892H306.754V41.7515H304.256V50.976C304.256 50.976 307.754 46.9354 312.311 46.9354V36.9422H308.813V33.0691H312.311V28.5111H317.616V32.3842H321.424V36.755H318.055V45.871C318.055 45.871 323.799 47.9307 325.671 49.9954V45.8119H323.484V43.624H325.671V40.9385H327.73V43.7472H330.105V46.0583H327.543V51.5525C327.543 51.5525 331.061 52.883 339.8 65.6258C348.539 78.3685 360.53 90.6925 360.53 90.6925H388L387.911 799H-14V101.932Z" fill="#43BCF1"/>
</svg>
