<svg width="290" height="104" viewBox="0 0 290 104" fill="none" xmlns="http://www.w3.org/2000/svg">
<g clip-path="url(#clip0_8_970)">
<path d="M100.707 18.322C100.707 18.322 93.5634 5.80666 81.9963 4.26539C70.4292 2.72412 68.8985 14.0746 68.8144 25.6281C68.7304 37.1757 71.7918 79.9669 71.7918 79.9669C71.7918 79.9669 72.2179 87.7271 71.9598 89.6208C71.7077 91.5145 72.0439 110.822 102.741 101.437C133.439 92.0522 171.196 73.9691 191.346 88.2169C191.346 88.2169 194.918 94.4716 165.073 86.6398C165.073 86.6398 162.864 92.1239 184.035 98.8027C184.035 98.8027 199.426 104.711 204.27 68.7539L210.435 22.9936C211.161 17.6171 209.709 12.3003 206.515 9.12219C199.096 1.73245 182.204 -7.1448 148.992 9.36115C100.1 33.6631 90.1479 25.5923 75.5194 14.0029C75.5194 14.0029 73.3945 7.93935 91.1683 18.0174C108.942 28.0954 100.707 18.322 100.707 18.322Z" fill="#48BAEC"/>
<path d="M65.5009 33.8542C65.5009 33.8542 62.8658 64.3272 68.9885 84.4115C68.9885 84.4115 36.25 76.1914 19.9228 99.0536C19.9228 99.0536 16.2672 71.5915 48.4054 62.3976C48.4054 62.3976 15.2408 46.4114 0.108083 71.3645C0.114086 71.3645 -5.67247 37.8448 65.5009 33.8542Z" fill="#48BAEC"/>
<path d="M215.843 21.1656L207.512 72.0694C207.512 72.0694 221.54 66.2329 239.062 78.2046C256.583 90.1764 277.755 96.8552 290 71.5138C290 71.5138 278.859 77.7327 261.343 65.7609C261.343 65.7609 254.626 61.0117 253.69 57.033C253.69 57.033 277.755 64.1002 284.472 36.0944C284.472 36.0944 279.117 43.0839 269.249 39.8401C259.386 36.6082 226.306 9.0744 215.843 21.1656Z" fill="#48BAEC"/>
<path d="M95.0701 72.4876L89.8177 80.7077L90.8142 80.8988L95.2922 72.4278L95.0701 72.4876Z" fill="#E7348A"/>
<path d="M98.0534 73.8914L97.8313 73.9213L97.3091 78.5451L98.2095 78.4257L98.0534 73.8914Z" fill="#E7348A"/>
<path d="M90.8502 68.9032L81.354 71.2629L81.9363 72.0873L91.0483 69.0107L90.8502 68.9032Z" fill="#E7348A"/>
<path d="M92.2067 71.1614L92.0027 71.0538L88.8693 74.5008L89.6676 74.9249L92.2067 71.1614Z" fill="#E7348A"/>
<path d="M121.248 26.118C121.248 26.118 123.024 35.1685 123.379 35.4791L120.137 38.3048C120.137 38.3048 119.243 37.9762 118.792 35.2402C118.342 32.4981 118.156 32.1218 118.156 32.1218C118.156 32.1218 117.136 34.2127 118.21 38.2869C119.171 41.925 120.017 43.3886 121.494 43.6813C121.806 43.7411 122.106 43.5559 122.178 43.2452C122.382 42.373 122.772 40.539 122.676 39.3024L126.11 37.2534C126.11 37.2534 126.704 43.0839 124.513 45.1031C123.12 46.3875 122.16 47.1104 121.65 47.4688C121.362 47.6719 121.001 47.7496 120.653 47.6839C119.081 47.3852 114.639 45.9156 114.158 38.6812C114.158 38.6812 113.318 31.9963 117.73 29.553L117.508 28.5613L120.677 25.8372L121.248 26.118Z" fill="white"/>
<path d="M136.122 24.063C134.712 24.29 127.022 25.5684 125.149 26.4645C124.981 26.5421 124.885 26.7214 124.903 26.9006L125.245 30.7299C125.257 30.8912 125.407 31.0106 125.57 30.9867L126.044 30.927C126.044 30.927 127.424 40.4076 128.241 41.1723L127.683 41.244C127.562 41.2619 127.478 41.3694 127.49 41.4829L127.899 45.4138C127.917 45.593 128.073 45.7244 128.253 45.7125C129.663 45.6229 135.408 45.2047 138.517 44.213C138.667 44.1652 138.757 44.0159 138.739 43.8605L138.145 39.5952L132.515 40.4853C132.515 40.4853 131.182 37.1399 131.176 36.889C131.176 36.889 135.582 35.8734 136.566 36.1841L135.912 31.7215C135.912 31.7215 133.313 31.4706 130.504 32.522L130.024 29.8397C130.024 29.8397 134.952 28.8242 136.302 28.6091C136.482 28.5793 136.614 28.418 136.602 28.2387L136.35 24.2482C136.35 24.1287 136.242 24.045 136.122 24.063Z" fill="white"/>
<path d="M99.0799 32.2413C97.6933 32.5937 90.154 34.5591 88.3712 35.6225C88.2151 35.7181 88.1311 35.8973 88.1671 36.0825L88.8574 39.864C88.8874 40.0253 89.0435 40.1268 89.2055 40.091L89.6677 39.9894C89.6677 39.9894 91.9067 49.3088 92.7951 49.9958L92.2489 50.1212C92.1288 50.1451 92.0568 50.2646 92.0808 50.3781L92.8431 54.2552C92.8792 54.4284 93.0472 54.5479 93.2213 54.518C94.6199 54.3029 100.298 53.365 103.306 52.0986C103.45 52.0388 103.528 51.8835 103.492 51.7282L102.513 47.5345L96.991 48.9324C96.991 48.9324 95.3583 45.7184 95.3343 45.4735C95.3343 45.4735 99.6321 44.0696 100.635 44.2847L99.5781 39.8938C99.5781 39.8938 96.967 39.8759 94.2658 41.1782L93.5455 38.5497C93.5455 38.5497 98.3596 37.0921 99.6862 36.7575C99.8663 36.7097 99.9803 36.5425 99.9503 36.3633L99.338 32.4145C99.314 32.289 99.2 32.2114 99.0799 32.2413Z" fill="white"/>
<path d="M103.39 29.087C103.27 28.9676 103.072 28.9974 102.993 29.1468L100.905 33.0358C100.905 33.0358 100.827 38.6453 104.278 50.0137C104.278 50.0137 103.732 51.0651 103.78 51.8716C103.78 51.8716 103.252 52.3734 107.069 51.4235C110.887 50.4796 113.918 50.1272 113.918 50.1272C113.918 50.1272 113.786 46.1127 113.366 45.4795C113.366 45.4795 108.858 46.7519 107.207 47.0207C107.207 47.0207 106.217 44.6312 105.208 39.9297C104.2 35.2342 103.39 30.3714 103.39 29.087Z" fill="white"/>
<path d="M143.511 39.2606L143.83 43.7769C143.83 43.7769 142.227 43.9681 141.765 43.0242C141.302 42.0743 137.845 32.0023 137.905 27.3367L140.024 25.0128C140.24 24.7798 140.588 24.7261 140.858 24.8933L141.549 25.3175C141.549 25.3175 145.504 34.7921 147.167 37.122C147.167 37.122 144.286 27.7429 144.238 25.9268L146.759 22.5456C146.885 22.3783 147.119 22.3425 147.287 22.4679L147.995 22.9877C147.995 22.9877 148.632 31.2496 151.957 36.8412C152.137 37.1458 152.137 37.5222 151.951 37.8209L148.794 42.9226C148.794 42.9226 148.073 44.0278 147.023 43.3946C145.979 42.7554 143.511 39.2606 143.511 39.2606Z" fill="white"/>
<path d="M182.943 14.427C179.227 13.1128 177.204 17.0496 177.09 17.1332C176.808 17.3483 175.319 18.5192 175.319 18.5192C173.363 20.168 174.779 27.0977 174.779 27.0977C176.88 38.4243 181.46 35.1446 181.46 35.1446C184.059 32.307 186.538 29.6247 186.748 29.4574C188.819 23.6448 186.658 15.7473 182.943 14.427ZM183.321 31.62C183.321 31.62 180.122 32.7311 178.633 27.7967C177.144 22.8622 177.42 18.6147 177.42 18.6147C177.42 18.6147 180.974 15.9743 183.417 21.8048C185.86 27.6354 183.321 31.62 183.321 31.62Z" fill="white"/>
<path d="M177.444 35.9929C171.334 37.0622 169.575 34.0215 169.575 34.0215C174.245 31.3093 174.191 23.6149 172.672 19.6064C171.154 15.5979 168.771 16.9839 168.771 16.9839C168.771 16.9839 165.775 19.5228 164.052 21.8108C162.33 24.0988 163.668 23.6508 163.668 23.6508V24.3198C164.197 33.4241 166.075 39.8042 166.075 39.8042L167.198 38.4482C170.229 40.6466 173.861 39.4996 173.861 39.4996C173.861 39.4996 176.316 37.6536 177.552 36.8232C178.795 35.9988 177.444 35.9929 177.444 35.9929ZM168.242 32.3667L167.204 20.4189C167.666 20.4905 169.377 21.8825 169.911 24.4094C170.445 26.9364 169.911 31.3452 169.353 32.2293C168.789 33.0955 168.242 32.3667 168.242 32.3667Z" fill="white"/>
<path d="M163.458 17.868L163.332 22.5635L157.876 24.1167L159.977 36.3035C159.977 36.3035 160.397 38.263 161.808 38.6035L157.762 41.5307C157.762 41.5307 157.396 41.7995 157.089 41.4292C156.783 41.0528 155.559 38.1136 155.037 34.6607C154.514 31.2078 153.62 25.5445 153.62 25.5445L149.622 26.8767L149.016 22.2827L162.744 17.7664L163.458 17.868Z" fill="white"/>
<path d="M114.056 53.4905C113.222 53.6518 108.672 54.5359 107.58 55.0975C107.483 55.1453 107.429 55.2528 107.441 55.3603L107.712 57.6304C107.724 57.726 107.814 57.7917 107.91 57.7798L108.186 57.738C108.186 57.738 109.164 63.3475 109.662 63.7896L109.332 63.8433C109.26 63.8553 109.212 63.921 109.224 63.9927L109.53 66.3225C109.542 66.43 109.638 66.5017 109.746 66.4957C110.581 66.4181 113.984 66.0716 115.821 65.4324C115.911 65.4025 115.959 65.3129 115.947 65.2173L115.521 62.6963L112.19 63.3176C112.19 63.3176 111.343 61.3522 111.337 61.2028C111.337 61.2028 113.936 60.5278 114.525 60.6951L114.062 58.0546C114.062 58.0546 112.514 57.9471 110.863 58.6221L110.533 57.039C110.533 57.039 113.444 56.352 114.242 56.2027C114.351 56.1847 114.423 56.0832 114.417 55.9757L114.2 53.61C114.194 53.5263 114.128 53.4726 114.056 53.4905Z" fill="white"/>
<path d="M101.337 66.9378C100.292 67.5412 99.7581 66.7765 99.7581 66.7765C100.244 65.2711 100.046 63.2997 99.9622 62.6127C99.8782 61.9257 98.5336 57.7917 96.2706 58.0785C94.0136 58.3652 92.2548 61.3283 92.0808 61.7644C91.9067 62.2005 92.3809 62.1049 92.3809 62.1049C92.4529 63.6163 93.0292 66.902 94.7819 69.184C96.5347 71.466 98.2935 68.8435 98.2935 68.8435C99.6861 70.1159 100.172 69.3393 100.172 69.3393L101.511 67.2425L101.337 66.9378ZM98.2215 66.1313C97.219 66.0955 96.4687 67.3022 96.4687 67.3022C96.4687 67.3022 95.7844 66.8303 94.83 64.0584C93.8756 61.2865 94.3978 59.9961 94.3978 59.9961C95.5203 59.8647 96.8349 60.5039 97.7172 62.995C98.5996 65.4861 98.2215 66.1313 98.2215 66.1313Z" fill="white"/>
<path d="M102.591 56.7045C102.591 56.7045 102.459 56.4775 102.231 56.7642C102.003 57.051 100.599 59.1538 100.599 59.1538L102.501 67.1588C102.501 67.1588 102.976 69.3453 104.2 68.7001L107.52 64.5841C107.52 64.5841 107.748 64.3212 107.057 60.8026C106.367 57.284 105.983 55.4858 105.983 55.4858C105.983 55.4858 105.797 55.1094 105.407 55.5754C105.016 56.0414 103.63 57.5408 103.63 57.5408L105.611 65.7132C105.611 65.7132 105.767 66.0716 105.485 66.1373C105.203 66.203 104.95 65.8386 104.692 65.2352C104.434 64.6319 102.862 59.2792 102.591 56.7045Z" fill="white"/>
<path d="M132.761 62.308C132.761 62.308 131.05 63.4072 130.252 61.2148C129.453 59.0223 127.941 54.512 129.225 53.1619C129.225 53.1619 127.55 52.917 127.544 51.3578C127.538 49.7986 128.643 49.0399 128.643 49.0399L123.547 49.9838C123.547 49.9838 126.122 51.9552 124.867 53.9684C124.867 53.9684 125.648 54.0461 126.002 55.426C126.356 56.806 127.028 60.9161 127.328 60.9698C127.328 60.9698 125.75 59.7034 123.991 56.4655C122.232 53.2276 121.356 50.6051 116.319 51.8716C116.319 51.8716 118.156 52.9767 119.003 57.499C119.849 62.0213 118.757 62.3319 118.757 62.3319C118.757 62.3319 119.747 62.4812 120.179 64.2973C120.617 66.1074 119.435 66.9975 119.435 66.9975L124.903 65.982C124.903 65.982 121.362 64.2436 123.024 60.8145C123.024 60.8145 121.962 60.7906 121.596 58.2935C121.23 55.7964 121.224 55.8024 121.224 55.8024C121.224 55.8024 123.535 59.9423 124.603 62.081C125.69 64.2316 129.249 67.356 132.761 62.308Z" fill="white"/>
<path d="M180.476 53.4547C180.476 53.4547 178.765 54.5539 177.967 52.3614C177.174 50.169 175.656 45.6587 176.94 44.3086C176.94 44.3086 175.266 44.0637 175.26 42.5045C175.254 40.9453 176.358 40.1866 176.358 40.1866L171.262 41.1305C171.262 41.1305 173.837 43.1019 172.582 45.1151C172.582 45.1151 173.363 45.1927 173.717 46.5727C174.071 47.9527 174.743 52.0627 175.043 52.1165C175.043 52.1165 173.465 50.85 171.706 47.6122C169.947 44.3743 169.071 41.7518 164.035 43.0182C164.035 43.0182 165.871 44.1234 166.718 48.6457C167.564 53.1679 166.472 53.4786 166.472 53.4786C166.472 53.4786 167.462 53.6279 167.894 55.444C168.332 57.2541 167.15 58.1442 167.15 58.1442L172.618 57.1286C172.618 57.1286 169.077 55.3902 170.74 51.9612C170.74 51.9612 169.677 51.9373 169.311 49.4402C168.945 46.9431 168.939 46.9491 168.939 46.9491C168.939 46.9491 171.25 51.089 172.318 53.2277C173.399 55.3783 176.958 58.5086 180.476 53.4547Z" fill="white"/>
<path d="M138.907 54.2253C138.613 53.2814 138.505 52.0806 138.505 52.0806C138.505 52.0806 138.817 46.3576 134.075 48.1259C129.333 49.8942 131.338 55.0796 131.38 56.5133C131.416 57.953 131.782 58.6579 130.179 59.9602C130.179 59.9602 132.178 58.9208 132.863 61.3522C133.547 63.7776 135.45 64.0942 137.437 63.6163C139.424 63.1384 141.308 62.1228 140.744 59.1119C140.18 56.1071 140.306 55.5276 141.116 54.9302C141.116 54.9302 139.201 55.1692 138.907 54.2253ZM137.395 57.8395C137.617 59.0223 137.977 60.9519 136.752 61.1789C135.528 61.4059 135.306 59.0044 135.306 59.0044C135.306 59.0044 135.246 57.4572 134.171 57.8813C134.171 57.8813 134.819 57.6483 134.387 55.9517C133.955 54.2552 133.307 52.0388 134.603 51.5788C134.603 51.5788 135.636 50.9396 136.314 53.9266C136.932 56.6686 137.761 56.3759 137.893 56.3042C137.905 56.2982 137.911 56.2923 137.911 56.2923C137.911 56.2923 137.905 56.2982 137.893 56.3042C137.785 56.3699 137.191 56.7642 137.395 57.8395Z" fill="white"/>
<path d="M150.511 50.629C150.511 50.629 145.69 53.371 145.36 51.5848C145.024 49.7986 144.34 49.2371 143.601 49.6075C142.857 49.9779 142.521 51.8835 145.504 52.9469C148.488 54.0102 150.354 54.6972 150.559 57.6603C150.763 60.6234 147.395 61.8241 146.033 61.9615C144.67 62.0989 143.391 62.1049 142.719 60.9639C142.047 59.8229 140.126 59.4824 139.586 59.6974C139.045 59.9125 143.529 57.2362 143.529 57.2362C143.529 57.2362 144.526 59.4704 145.474 58.9507C146.417 58.4309 145.919 55.7546 143.86 55.904C141.801 56.0533 141.885 56.5014 141.885 56.5014C141.885 56.5014 143.031 55.8263 141.843 54.4344C140.654 53.0425 137.791 48.2633 142.143 46.7639C146.495 45.2644 147.173 46.4054 147.785 47.7914C148.398 49.1773 148.404 51.1368 150.511 50.629Z" fill="white"/>
<path d="M164.581 42.3671L159.425 43.305C159.425 43.305 160.355 44.7626 160.937 47.66C161.519 50.5513 161.471 52.3973 160.547 53.1201C160.547 53.1201 161.579 53.0723 161.796 54.4165C162.012 55.7606 161.537 56.4118 160.751 56.5372C159.965 56.6627 158.392 56.2266 158.746 53.4129C158.746 53.4129 157.888 53.0903 157.618 51.4116C157.348 49.7329 157.996 44.4639 156.333 44.1533C154.67 43.8426 152.281 44.7985 152.281 44.7985C152.281 44.7985 153.728 44.452 154.244 48.3888C154.766 52.3256 155.709 53.8967 154.67 55.3245C154.67 55.3245 155.757 54.9183 156.141 56.585C156.525 58.2458 157.75 60.1156 161.405 59.1896C165.061 58.2637 165.313 56.9554 165.121 55.0378C164.929 53.1142 164.779 52.911 165.643 52.5407C165.643 52.5407 164.407 52.7378 164.209 51.5072C164.011 50.2706 161.952 43.2512 164.581 42.3671Z" fill="white"/>
<path d="M176.55 41.0647C176.55 41.0647 178.981 41.1603 179.665 44.1532C180.35 47.1462 180.884 49.936 179.119 51.2264C179.119 51.2264 180.728 51.2144 180.938 53.365C181.148 55.5097 179.251 55.9099 179.251 55.9099L192.025 53.5443L191.022 48.4186C191.022 48.4186 191.485 49.9539 189.414 50.7246C187.343 51.4952 184.912 52.2001 184.131 50.8261C183.351 49.4521 186.562 48.6277 188.969 49.3028C188.969 49.3028 189.306 49.255 189.252 48.114C189.198 46.9729 188.681 45.1031 188.681 45.1031C188.681 45.1031 187.193 46.7041 185.278 46.9849C183.363 47.2716 182.901 45.7363 182.859 44.7088C182.817 43.6813 185.308 40.3299 188.801 42.0982L188.063 37.9643L176.55 41.0647Z" fill="white"/>
<path d="M118.703 70.4505L119.957 68.7897L190.668 58.5026C190.668 58.5026 192.949 58.4309 192.337 59.7512C191.725 61.0654 189.456 61.4597 185.56 61.9077C181.664 62.3498 118.703 70.4505 118.703 70.4505Z" fill="#E7348A"/>
<path d="M105.353 87.3805C103.69 87.6194 102.345 87.3745 101.313 86.6457C100.286 85.9169 99.6621 84.8236 99.452 83.36C99.1699 81.4125 99.6141 79.7398 100.779 78.336C101.943 76.9321 103.54 76.0838 105.569 75.7911C106.697 75.6298 107.592 75.7552 108.246 76.1734C108.9 76.5916 109.29 77.2128 109.404 78.0313C109.566 79.1544 109.152 80.164 108.162 81.066C107.171 81.9681 105.533 82.5894 103.24 82.9299C103.39 83.7005 103.654 84.28 104.032 84.6743C104.41 85.0686 104.836 85.2358 105.311 85.1641C105.785 85.0984 106.169 84.8834 106.469 84.519C106.769 84.1546 106.865 83.6169 106.763 82.906C108.534 82.6491 109.482 82.9418 109.602 83.7722C109.705 84.4831 109.368 85.2179 108.582 85.9647C107.802 86.7114 106.727 87.1833 105.353 87.3805ZM105.569 77.9536C104.95 78.0432 104.428 78.4315 104.002 79.1245C103.576 79.8175 103.306 80.5941 103.198 81.4603C104.398 81.1915 105.269 80.7853 105.821 80.2416C106.367 79.698 106.607 79.1783 106.529 78.6705C106.493 78.4315 106.391 78.2404 106.217 78.103C106.037 77.9656 105.821 77.9178 105.569 77.9536Z" fill="white"/>
<path d="M116.806 76.6334C116.374 76.8305 116.043 77.0755 115.815 77.3563C115.581 77.643 115.401 78.0313 115.257 78.5152C117.352 78.5212 118.859 78.7482 119.777 79.1962C120.695 79.6443 121.236 80.391 121.386 81.4424C121.482 82.1055 121.38 82.7089 121.074 83.2525C120.767 83.7961 120.347 84.2322 119.813 84.5728C118.763 85.206 117.7 85.6003 116.62 85.7496C113.546 86.1917 111.92 85.7556 111.727 84.4353C111.631 83.7722 111.83 83.0613 112.328 82.3146C112.694 82.6969 113.204 82.9897 113.858 83.2047C114.513 83.4198 115.137 83.4855 115.719 83.4019C116.728 83.2585 117.268 82.7268 117.346 81.8188C115.467 81.8666 114.075 81.6455 113.162 81.1616C112.25 80.6778 111.715 79.8832 111.553 78.784C111.427 77.9118 111.607 77.1412 112.1 76.4661C112.592 75.7911 113.246 75.2773 114.069 74.9189C114.891 74.5605 115.839 74.3036 116.914 74.1483C117.988 73.9929 118.901 74.0706 119.657 74.3753C120.413 74.6799 120.834 75.122 120.918 75.7015C121.002 76.2809 120.864 76.7589 120.503 77.1292C120.143 77.4996 119.723 77.7207 119.243 77.7923C118.763 77.864 118.306 77.7983 117.874 77.6012C117.454 77.41 117.094 77.0874 116.806 76.6334Z" fill="white"/>
<path d="M129.471 71.9498L128.241 70.6475C129.627 69.5483 130.762 68.933 131.638 68.8076C132.136 68.7359 132.503 68.7837 132.737 68.9569C132.971 69.1242 133.127 69.4886 133.211 70.0382C133.289 70.5878 133.247 72.1768 133.073 74.7994C132.905 77.4279 132.893 79.25 133.043 80.2775C133.193 81.305 133.487 82.0039 133.925 82.3684C133.163 83.0793 132.437 83.4914 131.74 83.587C131.05 83.6886 130.51 83.5333 130.12 83.127C129.729 82.7208 129.483 82.1174 129.363 81.3229C129.249 80.5284 129.237 78.8617 129.327 76.3347C129.417 73.8077 129.465 72.3441 129.471 71.9498Z" fill="white"/>
<path d="M142.851 79.2559L142.653 79.1902C142.449 80.1042 142.077 80.851 141.536 81.4304C140.996 82.0099 140.348 82.3504 139.598 82.458C138.565 82.6073 137.683 82.3385 136.956 81.6515C136.23 80.9645 135.768 79.9788 135.582 78.6884C135.294 76.6812 135.726 74.9069 136.884 73.3597C138.043 71.8124 139.628 70.8925 141.645 70.6057C142.167 70.528 142.653 70.5101 143.103 70.546C143.223 70.8745 143.313 71.1613 143.361 71.4182C143.914 70.9462 144.508 70.6595 145.15 70.5699C146.038 70.4444 146.549 70.8566 146.687 71.8124C146.735 72.153 146.693 73.1984 146.555 74.9547C146.417 76.7111 146.411 78.0014 146.531 78.8258C146.651 79.6502 146.921 80.1879 147.341 80.4507C146.747 81.1377 146.081 81.538 145.348 81.6455C144.616 81.753 144.046 81.6097 143.649 81.2214C143.247 80.8271 142.983 80.1759 142.851 79.2559ZM138.871 77.3144C138.955 77.9058 139.147 78.3419 139.442 78.6287C139.736 78.9154 140.114 79.023 140.576 78.9572C141.038 78.8915 141.47 78.6586 141.867 78.2523C142.269 77.8521 142.575 77.3323 142.791 76.6931C142.725 75.4565 142.749 73.981 142.875 72.2605C141.651 72.4337 140.63 73.0311 139.826 74.0467C139.021 75.0682 138.703 76.1555 138.871 77.3144Z" fill="white"/>
<path d="M155.829 79.4531C155.421 79.0469 155.157 78.3957 155.025 77.4996C154.893 76.5976 154.905 73.9929 155.061 69.6798L153.812 67.8816C155.055 66.8003 156.243 66.185 157.372 66.0177C158.308 65.8863 158.854 66.3821 159.022 67.5172C159.07 67.8577 159.04 69.3034 158.938 71.8602C158.83 74.4171 158.83 76.03 158.926 76.7051L160.895 76.4243C161.796 76.1615 162.69 75.7911 163.578 75.3191C163.68 75.5282 163.764 75.815 163.818 76.1913C163.92 76.9022 163.806 77.5653 163.464 78.1866C163.128 78.8019 162.588 79.1663 161.844 79.2679C161.345 79.3396 160.463 79.3276 159.202 79.238C158.734 79.5905 158.212 79.8055 157.642 79.8892C156.837 80.0027 156.237 79.8593 155.829 79.4531Z" fill="white"/>
<path d="M168.38 78.33C167.312 78.4853 166.526 78.33 166.027 77.87C165.529 77.41 165.217 76.7887 165.103 75.9942C164.989 75.2056 164.965 74.1004 165.031 72.6846C165.097 71.2688 165.085 70.2532 165.001 69.6379C164.911 69.0226 164.713 68.5566 164.407 68.246C165.451 67.4933 166.358 67.0572 167.138 66.9497C167.636 66.878 168.008 66.9258 168.266 67.093C168.519 67.2603 168.681 67.565 168.747 68.013C168.813 68.4611 168.783 69.5842 168.669 71.3823C168.549 73.1805 168.525 74.2856 168.585 74.6978C168.645 75.11 168.807 75.4147 169.071 75.6178C169.335 75.8209 169.653 75.8926 170.031 75.8389C170.409 75.7851 170.788 75.582 171.166 75.2235C171.55 74.8651 171.832 74.3991 172.018 73.8137C172.048 72.8101 172.156 71.215 172.348 69.0346L171.046 67.7442C172.144 66.6868 173.243 66.0775 174.347 65.9221C174.893 65.8445 175.302 65.8863 175.566 66.0536C175.83 66.2208 175.992 66.5016 176.052 66.9078C176.112 67.3141 176.058 68.5029 175.89 70.4743C175.722 72.4457 175.698 73.8316 175.818 74.6381C175.932 75.4386 176.202 75.9763 176.628 76.2511C176.034 76.9381 175.362 77.3383 174.617 77.4458C173.873 77.5534 173.309 77.4697 172.937 77.189C172.564 76.9082 172.336 76.502 172.258 75.9703L172.06 75.9046C171.742 76.5438 171.256 77.0755 170.595 77.5116C169.929 77.9357 169.191 78.2105 168.38 78.33Z" fill="white"/>
<path d="M182.102 75.4326C181.508 76.0479 180.908 76.4004 180.302 76.484C179.695 76.5737 179.215 76.4661 178.861 76.1734C178.507 75.8807 178.297 75.4745 178.219 74.9607C178.147 74.4469 178.261 73.9451 178.579 73.4553C178.891 72.9654 179.389 72.6309 180.068 72.4457L182.595 68.8673C181.082 69.0346 180.014 68.9629 179.383 68.6463C178.753 68.3296 178.381 67.7621 178.261 66.9377C178.213 66.6092 178.201 66.0536 178.225 65.259C179.089 65.4801 180.074 65.6533 181.178 65.7668C182.283 65.8863 183.147 65.9102 183.753 65.8505C183.891 65.4502 184.137 65.1037 184.486 64.811C184.834 64.5183 185.272 64.3391 185.8 64.2614C186.328 64.1837 186.779 64.2793 187.151 64.5482C187.523 64.817 187.745 65.2053 187.823 65.7071C187.949 66.5912 187.601 67.2842 186.773 67.798L183.627 72.6309C184.45 72.7623 185.092 72.7981 185.56 72.7444L187.895 71.4301C188.243 72.0454 188.459 72.6488 188.549 73.2342C188.633 73.8197 188.429 74.3633 187.931 74.8651C187.433 75.3669 186.791 75.6776 186.004 75.7911C185.218 75.9046 184.359 75.8747 183.447 75.6955C183.123 75.6537 182.679 75.5641 182.102 75.4326Z" fill="white"/>
</g>
<defs>
<clipPath id="clip0_8_970">
<rect width="290" height="104" fill="white"/>
</clipPath>
</defs>
</svg>
