<svg width="347" height="177" viewBox="0 0 347 177" fill="none" xmlns="http://www.w3.org/2000/svg">
<path d="M19.3877 150.02C19.0209 148.924 18.528 147.552 17.9148 145.904H8.6989L7.25609 150.02H0L8.09172 129.116H18.7204L26.8662 150.02H19.3877ZM16.2676 141.411C15.5342 139.398 14.7827 137.378 14.0132 135.365L13.3219 133.496C12.6486 135.245 11.6566 137.882 10.3461 141.417H16.2676V141.411Z" fill="white"/>
<path d="M34.8677 144.203C40.4526 144.167 45.0755 144.071 48.7366 143.915C48.4842 144.892 48.3339 145.832 48.2737 146.737C48.2136 147.642 48.1896 148.732 48.1896 150.02H27.822C27.9783 146.3 28.0505 142.813 28.0505 139.571C28.0505 136.33 27.9723 132.843 27.822 129.122H34.8677V144.203Z" fill="white"/>
<path d="M66.7057 129.086H73.8716V140.548C73.8355 143.37 72.8677 145.701 70.968 147.546C69.0683 149.391 65.8761 150.308 61.3914 150.308C56.8465 150.308 53.7325 149.427 52.0612 147.672C50.384 145.916 49.5664 143.61 49.6085 140.746V129.086H56.7744V140.284C56.7744 141.129 56.8345 141.818 56.9608 142.345C57.087 142.873 57.4898 143.37 58.1751 143.825C58.8605 144.287 59.9606 144.514 61.4815 144.514C63.1408 144.514 64.3491 144.281 65.1246 143.807C65.8941 143.34 66.351 142.813 66.4953 142.237C66.6396 141.662 66.7117 140.925 66.7117 140.021V129.086H66.7057Z" fill="white"/>
<path d="M103.196 129.116L105.451 150.02H97.9663L97.5034 135.108L94.6118 150.02H87.0491L84.1034 135.221L83.6706 150.02H76.186L78.4404 129.116H88.2635L90.7764 142.735L92.9706 129.116H103.196Z" fill="white"/>
<path d="M131.277 143.801C131.277 145.107 130.976 146.216 130.381 147.127C129.786 148.037 128.716 148.75 127.177 149.259C125.638 149.769 123.498 150.02 120.763 150.02H107.759C107.916 146.3 107.988 142.813 107.988 139.571C107.988 136.33 107.91 132.843 107.759 129.122H114.546V129.152H120.702C123.089 129.152 124.971 129.35 126.353 129.745C127.73 130.141 128.704 130.71 129.269 131.459C129.834 132.208 130.123 133.16 130.123 134.311C130.123 135.479 129.714 136.522 128.896 137.432C128.079 138.343 126.678 139.08 124.694 139.637C129.083 139.625 131.277 141.021 131.277 143.801ZM114.546 134.389V137.067H120.095C121.292 137.067 122.121 136.959 122.596 136.749C123.065 136.54 123.305 136.156 123.305 135.599C123.305 135.156 123.059 134.844 122.566 134.664C122.073 134.485 121.249 134.389 120.095 134.389H114.546ZM120.095 144.754C121.099 144.754 121.863 144.712 122.392 144.622C122.921 144.538 123.299 144.382 123.534 144.161C123.762 143.939 123.883 143.639 123.883 143.256C123.883 142.759 123.606 142.399 123.059 142.178C122.512 141.956 121.52 141.848 120.095 141.848H114.546V144.754H120.095Z" fill="white"/>
<path d="M155.558 140.32C154.741 141.471 153.34 142.309 151.356 142.825C151.585 143.13 151.753 143.37 151.849 143.544L156.532 150.02H148.669C147.821 148.445 146.481 146.222 144.653 143.34H140.409V150.02H133.592C133.748 146.3 133.82 142.813 133.82 139.571C133.82 136.33 133.742 132.843 133.592 129.122H140.409V129.152H146.33C150.22 129.152 152.937 129.775 154.476 131.021C156.015 132.268 156.785 133.957 156.785 136.09C156.785 137.756 156.376 139.164 155.558 140.32ZM140.409 134.676V137.96H144.31C145.946 137.96 147.184 137.906 148.026 137.804C148.861 137.696 149.444 137.528 149.775 137.301C150.1 137.073 150.268 136.737 150.268 136.294C150.268 135.875 150.112 135.545 149.805 135.317C149.498 135.09 148.921 134.922 148.074 134.826C147.226 134.73 145.976 134.682 144.316 134.682H140.409V134.676Z" fill="white"/>
<path d="M175.595 150.02C175.228 148.924 174.735 147.552 174.122 145.904H164.906L163.463 150.02H156.213L164.305 129.116H174.94L183.086 150.02H175.595ZM172.475 141.411C171.742 139.398 170.99 137.378 170.221 135.365L169.529 133.496C168.856 135.245 167.864 137.882 166.553 141.417H172.475V141.411Z" fill="white"/>
<path d="M201.854 130.111C203.952 130.986 205.419 132.196 206.26 133.742C207.096 135.287 207.517 137.181 207.517 139.427C207.517 141.56 207.036 143.418 206.074 145.012C205.112 146.605 203.663 147.84 201.74 148.714C199.816 149.589 197.447 150.026 194.634 150.026C192.921 150.026 191.177 150.026 189.404 150.026C187.63 150.026 185.839 150.014 184.029 149.996C184.186 146.216 184.258 142.693 184.258 139.427C184.258 136.126 184.18 132.681 184.029 129.092C186.32 128.9 189.404 128.805 193.275 128.805C196.894 128.799 199.756 129.236 201.854 130.111ZM195.439 144.293C197.231 144.293 198.427 143.861 199.022 142.998C199.618 142.136 199.918 140.943 199.918 139.427C199.918 137.972 199.606 136.791 198.98 135.887C198.355 134.982 197.177 134.532 195.439 134.532C193.57 134.532 192.175 134.592 191.249 134.706V144.293H195.439Z" fill="white"/>
<path d="M212.952 147.444C210.872 145.533 209.832 142.849 209.832 139.398C209.832 135.982 210.866 133.31 212.94 131.393C215.008 129.476 218.26 128.511 222.691 128.511C227.139 128.511 230.397 129.47 232.472 131.393C234.54 133.31 235.58 135.982 235.58 139.398C235.58 142.873 234.552 145.557 232.49 147.462C230.428 149.361 227.163 150.314 222.697 150.314C218.272 150.308 215.032 149.355 212.952 147.444ZM227.307 143.214C228.251 142.399 228.72 141.129 228.72 139.398C228.72 137.708 228.245 136.45 227.307 135.623C226.364 134.796 224.825 134.383 222.685 134.383C220.568 134.383 219.035 134.796 218.092 135.623C217.148 136.45 216.679 137.708 216.679 139.398C216.679 141.105 217.148 142.375 218.092 143.196C219.035 144.023 220.568 144.436 222.685 144.436C224.825 144.436 226.364 144.029 227.307 143.214Z" fill="white"/>
<path d="M250.476 144.754C257.793 144.718 263.101 144.61 266.395 144.436C266.263 145.221 266.179 146.036 266.149 146.869C266.119 147.702 266.107 148.756 266.107 150.02H243.659C243.815 146.3 243.888 142.813 243.888 139.571C243.888 136.33 243.809 132.843 243.659 129.122H266.107V134.335H250.476V137.097C251.402 137.115 252.767 137.127 254.576 137.127C257.636 137.127 260.804 137.067 264.081 136.953V141.908C260.804 141.794 257.636 141.734 254.576 141.734C252.767 141.734 251.396 141.746 250.476 141.764V144.754Z" fill="white"/>
<path d="M292.943 129.146C292.811 132.388 292.739 135.863 292.739 139.571C292.739 143.298 292.805 146.779 292.943 150.02H282.603L275.611 134.299L276.134 150.02H268.71C268.866 146.3 268.938 142.813 268.938 139.571C268.938 136.348 268.86 132.873 268.71 129.146H279.345L286.366 145.299L285.873 129.146H292.943Z" fill="white"/>
<path d="M307.852 144.754C315.168 144.718 320.476 144.61 323.771 144.436C323.639 145.221 323.554 146.036 323.524 146.869C323.494 147.702 323.482 148.756 323.482 150.02H301.035C301.191 146.3 301.263 142.813 301.263 139.571C301.263 136.33 301.185 132.843 301.035 129.122H323.482V134.335H307.852V137.097C308.778 137.115 310.142 137.127 311.952 137.127C315.012 137.127 318.18 137.067 321.456 136.953V141.908C318.18 141.794 315.012 141.734 311.952 141.734C310.142 141.734 308.772 141.746 307.852 141.764V144.754Z" fill="white"/>
<path d="M333.131 144.203C338.716 144.167 343.339 144.071 347 143.915C346.748 144.892 346.597 145.832 346.537 146.737C346.477 147.642 346.453 148.732 346.453 150.02H326.085C326.242 146.3 326.314 142.813 326.314 139.571C326.314 136.33 326.236 132.843 326.085 129.122H333.137V144.203H333.131Z" fill="white"/>
<path d="M4.55083 173.968C2.29645 171.949 1.16626 169.073 1.16626 165.329C1.16626 161.566 2.29645 158.594 4.55083 156.407C6.80521 154.22 10.316 153.13 15.0833 153.13C21.7442 153.13 26.2049 155.413 28.4653 159.972C26.5656 160.625 24.3413 161.602 21.7923 162.902C21.1791 161.728 20.2173 160.853 18.9007 160.284C17.5841 159.715 16.2375 159.433 14.8669 159.433C12.8409 159.433 11.332 159.966 10.3461 161.027C9.35416 162.087 8.8612 163.399 8.8612 164.951C8.8612 166.635 9.39624 168.007 10.4603 169.067C11.5244 170.128 13.1535 170.661 15.3478 170.661C17.0972 170.661 18.4919 170.373 19.5259 169.792C20.5599 169.217 21.3174 168.294 21.8043 167.036C23.5357 167.959 25.748 169.001 28.4472 170.158C27.3952 172.698 25.6338 174.478 23.163 175.484C20.6982 176.491 18.005 177 15.0953 177C10.322 177 6.81122 175.987 4.55083 173.968Z" fill="white"/>
<path d="M38.4626 170.913C46.4762 170.871 52.2834 170.757 55.8904 170.565C55.7401 171.428 55.656 172.315 55.6199 173.231C55.5899 174.148 55.5718 175.298 55.5718 176.682H30.9961C31.1644 172.608 31.2486 168.792 31.2486 165.239C31.2486 161.686 31.1644 157.875 30.9961 153.795H55.5718V159.499H38.4626V162.525C39.4726 162.549 40.9695 162.555 42.9533 162.555C46.3078 162.555 49.7766 162.489 53.3595 162.363V167.785C49.7766 167.659 46.3078 167.593 42.9533 167.593C40.9695 167.593 39.4726 167.605 38.4626 167.623V170.913Z" fill="white"/>
<path d="M84.9569 153.825C84.8067 157.378 84.7345 161.183 84.7345 165.239C84.7345 169.319 84.8067 173.13 84.9569 176.682H73.6309L65.9781 159.469L66.5492 176.682H58.4214C58.5897 172.608 58.6739 168.792 58.6739 165.239C58.6739 161.71 58.5897 157.905 58.4214 153.825H70.06L77.7489 171.512L77.2139 153.825H84.9569Z" fill="white"/>
<path d="M114.661 160.416C111.348 160.308 108.132 160.248 105.012 160.224V176.682H97.1065V160.224C93.9624 160.248 90.7581 160.308 87.4878 160.416V153.795H114.661V160.416Z" fill="white"/>
<path d="M141.244 166.06C140.349 167.318 138.816 168.234 136.639 168.804C136.892 169.139 137.072 169.403 137.174 169.595L142.296 176.688H133.7C132.774 174.963 131.307 172.524 129.305 169.373H124.658V176.688H117.192C117.36 172.614 117.444 168.798 117.444 165.245C117.444 161.692 117.36 157.881 117.192 153.801H124.658V153.831H131.145C135.407 153.831 138.377 154.514 140.066 155.88C141.755 157.246 142.597 159.097 142.597 161.428C142.591 163.25 142.14 164.795 141.244 166.06ZM124.652 159.876V163.471H128.92C130.712 163.471 132.071 163.411 132.984 163.297C133.904 163.184 134.541 162.998 134.896 162.746C135.257 162.495 135.431 162.129 135.431 161.644C135.431 161.183 135.263 160.823 134.926 160.571C134.589 160.32 133.958 160.14 133.026 160.038C132.101 159.93 130.73 159.882 128.914 159.882H124.652V159.876Z" fill="white"/>
<path d="M148.536 173.86C146.258 171.769 145.122 168.834 145.122 165.047C145.122 161.308 146.258 158.385 148.524 156.282C150.791 154.178 154.35 153.13 159.201 153.13C164.071 153.13 167.642 154.178 169.908 156.282C172.174 158.385 173.311 161.302 173.311 165.047C173.311 168.852 172.18 171.793 169.926 173.872C167.672 175.952 164.095 176.994 159.201 176.994C154.368 177 150.815 175.952 148.536 173.86ZM164.257 169.229C165.291 168.336 165.808 166.946 165.808 165.053C165.808 163.202 165.291 161.83 164.257 160.925C163.223 160.02 161.54 159.571 159.195 159.571C156.875 159.571 155.197 160.02 154.163 160.925C153.129 161.83 152.612 163.208 152.612 165.053C152.612 166.922 153.129 168.312 154.163 169.217C155.197 170.122 156.875 170.571 159.195 170.571C161.534 170.565 163.223 170.122 164.257 169.229Z" fill="white"/>
<path d="M201.674 154.885C203.97 155.844 205.581 157.168 206.495 158.858C207.415 160.547 207.872 162.626 207.872 165.083C207.872 167.414 207.343 169.457 206.291 171.2C205.239 172.944 203.652 174.298 201.548 175.25C199.437 176.209 196.846 176.682 193.768 176.682C191.893 176.682 189.981 176.682 188.045 176.682C186.104 176.682 184.144 176.67 182.16 176.652C182.328 172.512 182.412 168.654 182.412 165.083C182.412 161.47 182.328 157.695 182.16 153.765C184.667 153.555 188.045 153.448 192.284 153.448C196.245 153.448 199.377 153.927 201.674 154.885ZM194.652 170.409C196.612 170.409 197.923 169.936 198.572 168.989C199.227 168.043 199.552 166.743 199.552 165.083C199.552 163.483 199.209 162.195 198.524 161.206C197.838 160.218 196.546 159.727 194.646 159.727C192.602 159.727 191.069 159.792 190.059 159.918V170.415H194.652V170.409Z" fill="white"/>
<path d="M217.869 170.913C225.883 170.871 231.69 170.757 235.297 170.565C235.147 171.428 235.062 172.315 235.026 173.231C234.996 174.148 234.978 175.298 234.978 176.682H210.403C210.571 172.608 210.655 168.792 210.655 165.239C210.655 161.686 210.571 157.875 210.403 153.795H234.978V159.499H217.863V162.525C218.873 162.549 220.37 162.555 222.354 162.555C225.708 162.555 229.177 162.489 232.76 162.363V167.785C229.177 167.659 225.708 167.593 222.354 167.593C220.37 167.593 218.873 167.605 217.863 167.623V170.913H217.869Z" fill="white"/>
<path d="M247.537 173.968C245.283 171.949 244.152 169.073 244.152 165.329C244.152 161.566 245.283 158.594 247.537 156.407C249.791 154.22 253.302 153.13 258.069 153.13C264.73 153.13 269.191 155.413 271.451 159.972C269.552 160.625 267.327 161.602 264.778 162.902C264.165 161.728 263.203 160.853 261.887 160.284C260.57 159.715 259.224 159.433 257.853 159.433C255.827 159.433 254.318 159.966 253.332 161.027C252.34 162.087 251.847 163.399 251.847 164.951C251.847 166.635 252.382 168.007 253.446 169.067C254.51 170.128 256.14 170.661 258.334 170.661C260.083 170.661 261.478 170.373 262.512 169.792C263.546 169.217 264.303 168.294 264.79 167.036C266.522 167.959 268.734 169.001 271.433 170.158C270.381 172.698 268.62 174.478 266.149 175.484C263.684 176.491 260.991 177 258.081 177C253.308 177 249.797 175.987 247.537 173.968Z" fill="white"/>
<path d="M293.941 176.682C293.538 175.484 293.003 173.98 292.33 172.177H282.242L280.661 176.682H272.72L281.575 153.795H293.214L302.135 176.682H293.941ZM290.526 167.258C289.727 165.053 288.903 162.842 288.062 160.637L287.304 158.588C286.565 160.499 285.483 163.393 284.046 167.258H290.526Z" fill="white"/>
<path d="M310.894 170.314C317.008 170.272 322.07 170.164 326.079 169.996C325.803 171.068 325.635 172.099 325.574 173.088C325.508 174.076 325.478 175.274 325.478 176.682H303.181C303.349 172.608 303.433 168.792 303.433 165.239C303.433 161.686 303.349 157.875 303.181 153.795H310.9V170.314H310.894Z" fill="white"/>
<path d="M346.988 160.068C344.481 159.942 342.624 159.87 341.421 159.846V170.625C342.642 170.607 344.499 170.529 346.988 170.403V176.676H328.61V170.403C331.033 170.529 332.879 170.601 334.147 170.625V159.846C332.885 159.87 331.039 159.942 328.61 160.068V153.795H346.988V160.068Z" fill="white"/>
<path d="M164.648 49.855C164.648 49.855 168.429 50.574 168.79 55.4151C169.15 60.2562 169.331 64.7438 166.271 66.3615C166.271 66.3615 168.79 66.721 168.609 70.1302C168.429 73.5393 165.369 73.719 165.369 73.719L185.893 73.0001L185.532 64.7438C185.532 64.7438 185.893 67.2542 182.472 67.9732C179.052 68.6922 175.09 69.2314 174.188 66.8948C173.286 64.5641 178.511 64.0248 182.112 65.6365C182.112 65.6365 182.653 65.6365 182.833 63.8451C183.013 62.0536 182.653 58.998 182.653 58.998C182.653 58.998 179.953 61.1489 176.894 61.1489C173.834 61.1489 173.473 58.6385 173.653 57.0208C173.834 55.4031 178.517 50.7418 183.554 54.3306L183.374 47.6921L164.648 49.855Z" fill="white"/>
<path d="M170.046 44.1451L178.589 44.0253C178.589 44.0253 173.226 40.1428 176.226 36.4761C176.226 36.4761 174.88 35.7571 174.621 32.5217C174.363 29.2803 171.11 23.0671 169.427 22.1744C167.744 21.2817 163.614 22.5339 163.614 22.5339C163.614 22.5339 166.535 21.761 165.76 25.314C164.984 28.8669 163.632 34.7925 163.632 34.7925C163.632 34.7925 163.403 36.9973 161.005 37.2789C161.005 37.2789 163.205 38.0159 162.454 40.5503C161.702 43.0847 159.808 43.7138 159.808 43.7138L167.648 44.259C167.648 44.259 165.79 43.3603 166.547 40.6581C167.299 37.956 172.066 38.5911 171.832 41.1374C171.597 43.6838 170.046 44.1451 170.046 44.1451ZM167.016 36.0627L169.114 27.6087L170.948 35.829L167.016 36.0627Z" fill="white"/>
<path d="M226.219 59.1837C226.219 59.1837 223.436 58.7823 222.799 54.1629C222.131 49.3218 222.48 45.5352 215.957 47.1649C215.957 47.1649 210.919 48.6028 210.919 56.1341C210.919 63.4796 208.184 64.1746 208.046 64.2046C208.166 64.1806 210.408 63.7732 211.461 67.434C212.543 71.2026 213.979 72.4548 217.58 72.2811C221.181 72.1013 224.782 69.5909 224.422 64.7438C224.061 59.9027 226.219 59.1837 226.219 59.1837ZM219.648 64.1147C219.468 66.4454 218.927 67.8834 217.49 68.0631C216.047 68.2428 216.408 66.6251 216.228 64.1147C216.047 61.6043 214.605 62.1435 214.605 62.1435C215.326 61.6043 215.506 59.0939 215.506 59.0939C215.146 51.7363 217.13 52.0958 217.13 52.0958C219.648 51.7363 219.107 54.786 218.927 57.2964C218.747 59.8069 220.905 60.7056 220.905 60.7056C219.468 61.784 219.829 61.784 219.648 64.1147Z" fill="white"/>
<path d="M153.544 30.1131L160.68 28.9268C160.68 28.9268 157.62 27.5727 157.794 25.3739C157.963 23.175 155.925 21.4794 152.191 21.8209C148.452 22.1624 145.735 23.175 145.567 30.2869C145.398 37.3988 143.865 37.7343 143.865 37.7343C143.865 37.7343 146.583 38.2436 146.583 41.2872C146.583 44.3369 151.849 44.8402 155.245 43.8276C158.642 42.809 159.321 41.2872 159.49 39.0883C159.658 36.8895 161.87 35.8709 161.87 35.8709L154.229 36.2124C154.229 36.2124 155.42 39.5976 153.207 40.2747C151.001 40.9517 148.963 37.0572 149.3 34.5169C149.642 31.9765 148.452 27.5787 151.849 26.7279C155.239 25.8831 153.544 30.1131 153.544 30.1131Z" fill="white"/>
<path d="M203.116 21.6532L194.947 21.9408C194.947 21.9408 196.467 23.0432 196.936 26.5841C197.405 30.1251 197.712 35.6732 195.079 36.2903C195.079 36.2903 198.019 37.3688 197.862 40.1428C197.706 42.9169 197.556 43.534 196.005 44.3009L204.974 44.1451C204.974 44.1451 202.425 42.833 202.575 39.2921C202.732 35.7511 204.583 35.9009 204.583 35.9009C204.583 35.9009 202.882 35.9009 202.419 32.0484C201.956 28.1959 201.8 25.266 201.8 25.266C201.8 25.266 201.65 22.498 203.116 21.6532Z" fill="white"/>
<path d="M160.752 47.9138L151.506 48.2373C151.506 48.2373 153.231 49.4835 153.754 53.4918C154.277 57.5001 154.626 63.7732 151.656 64.4742C151.656 64.4742 154.981 65.6965 154.807 68.83C154.632 71.9635 154.458 72.6645 152.708 73.5333L162.85 73.3596C162.85 73.3596 159.965 71.8797 160.139 67.8714C160.313 63.8631 162.411 64.0368 162.411 64.0368C162.411 64.0368 160.488 64.0368 159.965 59.681C159.442 55.3252 159.267 52.0119 159.267 52.0119C159.267 52.0119 159.093 48.8724 160.752 47.9138Z" fill="white"/>
<path d="M151.506 48.2373C151.506 48.2373 145.404 46.4459 143.222 50.3883C141.04 54.3366 137.12 67.7935 137.12 67.7935L129.425 51.287C129.425 51.287 128.115 47.6981 122.885 49.4955C122.885 49.4955 123.9 49.6753 125.5 53.4439C127.099 57.2125 129.425 63.4916 129.425 63.4916C129.425 63.4916 130.297 64.7498 129.425 66.1818C129.425 66.1818 131.896 66.3615 132.479 68.5124C133.062 70.6634 134.806 73.8928 136.549 73.713C138.292 73.5333 139.747 73.5333 139.747 73.1738C139.747 72.8143 141.202 65.4568 143.673 65.277C143.673 65.277 142.657 64.0188 143.529 61.8679C144.4 59.717 147.292 50.0348 151.506 48.2373Z" fill="white"/>
<path d="M185.142 21.9348H177.441C177.441 21.9348 179.821 22.6298 180.242 25.985C180.663 29.3342 181.781 34.7805 179.124 37.4287C179.124 37.4287 181.222 38.2675 181.505 40.3585C181.787 42.4496 179.406 44.4088 179.406 44.4088L194.953 43.8516V36.5959C194.953 36.5959 190.823 40.2926 186.2 40.5742C186.2 40.5742 184.24 37.225 187.18 36.2484C187.18 36.2484 185.082 34.9902 185.082 33.1748C185.082 31.3593 184.661 26.2127 184.661 25.6375C184.655 25.0803 184.372 24.2415 185.142 21.9348Z" fill="white"/>
<path d="M204.259 46.9791L188.418 47.6981L189.139 55.4151C189.139 55.4151 190.582 51.4667 195.62 52.006C200.658 52.5452 200.658 55.9543 200.123 59.3635C199.582 62.7726 197.964 62.4131 197.964 62.4131C197.964 62.4131 200.483 62.2334 200.303 65.4628C200.123 68.6922 198.505 69.2314 196.341 69.4112C194.183 69.5909 192.019 68.5125 192.199 62.2334C192.199 62.2334 191.478 60.7954 185.899 62.0536C185.899 62.0536 188.237 62.7726 188.598 67.7935C188.959 72.8143 193.101 74.6118 197.598 74.2523C202.1 73.8928 205.521 71.3824 205.521 65.6425C205.521 59.9027 207.499 60.6217 207.499 60.6217C207.499 60.6217 205.16 61.3407 204.8 55.7746C204.433 50.2085 205.335 47.5184 204.259 46.9791Z" fill="white"/>
<path d="M141.617 31.9046C141.617 31.9046 143.835 36.7637 137.265 37.3508C130.694 37.938 120.498 36.7337 117.3 43.4202C117.3 43.4202 116.638 36.4102 126.377 34.8344C136.116 33.2586 138.9 35.6672 141.617 31.9046Z" fill="white"/>
<path d="M142.597 37.92C142.597 37.92 144.815 42.7791 138.244 43.3663C131.674 43.9534 121.478 42.7491 118.28 49.4356C118.28 49.4356 117.618 42.4256 127.357 40.8498C137.102 39.2801 139.874 41.6767 142.597 37.92Z" fill="white"/>
<path d="M208.623 31.8267C208.623 31.8267 207.577 36.6558 213.469 36.6558C221.428 36.6558 226.965 35.9668 227.656 42.5155C227.656 42.5155 223.851 38.0339 214.851 38.7229C205.858 39.4179 205.509 32.8632 208.623 31.8267Z" fill="white"/>
<path d="M226.965 45.2775C226.965 45.2775 227.656 41.1374 221.428 41.1374C215.2 41.1374 207.932 42.5155 206.898 38.0339C206.898 38.0339 203.092 42.174 210.703 43.2045C218.314 44.241 223.159 41.8265 226.965 45.2775Z" fill="white"/>
<path d="M183.669 0.515274L181.372 2.57634C181.372 2.57634 181.571 12.5162 182.124 14.8948C182.166 15.0865 182.4 15.1644 182.557 15.0386L184.721 13.2292C184.637 13.6845 183.47 2.85195 183.867 0.994592C183.927 0.712993 183.903 0.515274 183.669 0.515274Z" fill="white"/>
<path d="M180.272 16.3687L177.266 19.8437L176.93 19.6041L175.018 11.8511L172.679 15.1345C172.679 15.1345 170.912 15.1045 168.471 13.1573C168.471 13.1573 169.571 16.5604 170.1 17.1356L167.239 20.3231C167.239 20.3231 164.281 13.331 163.56 4.57149L166.139 1.3361H166.758C166.758 1.3361 169.385 9.61631 173.395 11.8511C173.395 11.8511 173.918 6.80631 173.058 3.57092L176.304 0L176.924 0.383454C176.924 0.383454 177.02 4.4277 178.072 8.23228C179.13 12.0369 179.557 16.129 180.272 16.3687Z" fill="white"/>
</svg>
