<svg width="375" height="177" viewBox="0 0 375 177" fill="none" xmlns="http://www.w3.org/2000/svg">
<path d="M33.3877 150.02C33.0209 148.924 32.528 147.552 31.9148 145.904H22.6989L21.2561 150.02H14L22.0917 129.116H32.7204L40.8662 150.02H33.3877ZM30.2676 141.411C29.5342 139.398 28.7827 137.378 28.0132 135.365L27.3219 133.496C26.6486 135.245 25.6566 137.882 24.3461 141.417H30.2676V141.411Z" fill="white"/>
<path d="M48.8677 144.203C54.4526 144.167 59.0755 144.071 62.7366 143.915C62.4842 144.892 62.3339 145.832 62.2737 146.737C62.2136 147.642 62.1896 148.732 62.1896 150.02H41.822C41.9783 146.3 42.0505 142.813 42.0505 139.571C42.0505 136.33 41.9723 132.843 41.822 129.122H48.8677V144.203Z" fill="white"/>
<path d="M80.7057 129.086H87.8716V140.548C87.8355 143.37 86.8677 145.701 84.968 147.546C83.0683 149.391 79.8761 150.308 75.3914 150.308C70.8465 150.308 67.7325 149.427 66.0612 147.672C64.384 145.916 63.5664 143.61 63.6085 140.746V129.086H70.7744V140.284C70.7744 141.129 70.8345 141.818 70.9608 142.345C71.087 142.873 71.4898 143.37 72.1751 143.825C72.8605 144.287 73.9606 144.514 75.4815 144.514C77.1408 144.514 78.3491 144.281 79.1246 143.807C79.8941 143.34 80.351 142.813 80.4953 142.237C80.6396 141.662 80.7117 140.925 80.7117 140.021V129.086H80.7057Z" fill="white"/>
<path d="M117.196 129.116L119.451 150.02H111.966L111.503 135.108L108.612 150.02H101.049L98.1034 135.221L97.6706 150.02H90.186L92.4404 129.116H102.263L104.776 142.735L106.971 129.116H117.196Z" fill="white"/>
<path d="M145.277 143.801C145.277 145.107 144.976 146.216 144.381 147.127C143.786 148.037 142.716 148.75 141.177 149.259C139.638 149.769 137.498 150.02 134.763 150.02H121.759C121.916 146.3 121.988 142.813 121.988 139.571C121.988 136.33 121.91 132.843 121.759 129.122H128.546V129.152H134.702C137.089 129.152 138.971 129.35 140.353 129.745C141.73 130.141 142.704 130.71 143.269 131.459C143.834 132.208 144.123 133.16 144.123 134.311C144.123 135.479 143.714 136.522 142.896 137.432C142.079 138.343 140.678 139.08 138.694 139.637C143.083 139.625 145.277 141.021 145.277 143.801ZM128.546 134.389V137.067H134.095C135.292 137.067 136.121 136.959 136.596 136.749C137.065 136.54 137.305 136.156 137.305 135.599C137.305 135.156 137.059 134.844 136.566 134.664C136.073 134.485 135.249 134.389 134.095 134.389H128.546ZM134.095 144.754C135.099 144.754 135.863 144.712 136.392 144.622C136.921 144.538 137.299 144.382 137.534 144.161C137.762 143.939 137.883 143.639 137.883 143.256C137.883 142.759 137.606 142.399 137.059 142.178C136.512 141.956 135.52 141.848 134.095 141.848H128.546V144.754H134.095V144.754Z" fill="white"/>
<path d="M169.558 140.32C168.741 141.471 167.34 142.309 165.356 142.825C165.585 143.13 165.753 143.37 165.849 143.544L170.532 150.02H162.669C161.821 148.445 160.481 146.222 158.653 143.34H154.409V150.02H147.592C147.748 146.3 147.82 142.813 147.82 139.571C147.82 136.33 147.742 132.843 147.592 129.122H154.409V129.152H160.33C164.22 129.152 166.937 129.775 168.476 131.021C170.015 132.268 170.785 133.957 170.785 136.09C170.785 137.756 170.376 139.164 169.558 140.32ZM154.409 134.676V137.96H158.31C159.946 137.96 161.184 137.906 162.026 137.804C162.861 137.696 163.444 137.528 163.775 137.301C164.1 137.073 164.268 136.737 164.268 136.294C164.268 135.875 164.112 135.545 163.805 135.317C163.498 135.09 162.921 134.922 162.074 134.826C161.226 134.73 159.976 134.682 158.316 134.682H154.409V134.676Z" fill="white"/>
<path d="M189.595 150.02C189.228 148.924 188.735 147.552 188.122 145.904H178.906L177.463 150.02H170.213L178.305 129.116H188.94L197.086 150.02H189.595ZM186.475 141.411C185.742 139.398 184.99 137.378 184.221 135.365L183.529 133.496C182.856 135.245 181.864 137.882 180.553 141.417H186.475V141.411Z" fill="white"/>
<path d="M215.854 130.111C217.952 130.986 219.419 132.196 220.26 133.742C221.096 135.287 221.517 137.181 221.517 139.427C221.517 141.56 221.036 143.418 220.074 145.012C219.112 146.605 217.663 147.84 215.74 148.714C213.816 149.589 211.447 150.026 208.634 150.026C206.921 150.026 205.177 150.026 203.404 150.026C201.63 150.026 199.839 150.014 198.029 149.996C198.186 146.216 198.258 142.693 198.258 139.427C198.258 136.126 198.18 132.681 198.029 129.092C200.32 128.9 203.404 128.805 207.275 128.805C210.894 128.799 213.756 129.236 215.854 130.111ZM209.439 144.293C211.231 144.293 212.427 143.861 213.022 142.998C213.618 142.136 213.918 140.943 213.918 139.427C213.918 137.972 213.606 136.791 212.98 135.887C212.355 134.982 211.177 134.532 209.439 134.532C207.57 134.532 206.175 134.592 205.249 134.706V144.293H209.439Z" fill="white"/>
<path d="M226.952 147.444C224.872 145.533 223.832 142.849 223.832 139.398C223.832 135.982 224.866 133.31 226.94 131.393C229.008 129.476 232.26 128.511 236.691 128.511C241.139 128.511 244.397 129.47 246.472 131.393C248.54 133.31 249.58 135.982 249.58 139.398C249.58 142.873 248.552 145.557 246.49 147.462C244.428 149.361 241.163 150.314 236.697 150.314C232.272 150.308 229.032 149.355 226.952 147.444ZM241.307 143.214C242.251 142.399 242.72 141.129 242.72 139.398C242.72 137.708 242.245 136.45 241.307 135.623C240.364 134.796 238.825 134.383 236.685 134.383C234.568 134.383 233.035 134.796 232.092 135.623C231.148 136.45 230.679 137.708 230.679 139.398C230.679 141.105 231.148 142.375 232.092 143.196C233.035 144.023 234.568 144.436 236.685 144.436C238.825 144.436 240.364 144.029 241.307 143.214Z" fill="white"/>
<path d="M264.476 144.754C271.793 144.718 277.101 144.61 280.395 144.436C280.263 145.221 280.179 146.036 280.149 146.869C280.119 147.702 280.107 148.756 280.107 150.02H257.659C257.815 146.3 257.888 142.813 257.888 139.571C257.888 136.33 257.809 132.843 257.659 129.122H280.107V134.335H264.476V137.097C265.402 137.115 266.767 137.127 268.576 137.127C271.636 137.127 274.804 137.067 278.081 136.953V141.908C274.804 141.794 271.636 141.734 268.576 141.734C266.767 141.734 265.396 141.746 264.476 141.764V144.754Z" fill="white"/>
<path d="M306.943 129.146C306.811 132.388 306.739 135.863 306.739 139.571C306.739 143.298 306.805 146.779 306.943 150.02H296.603L289.611 134.299L290.134 150.02H282.71C282.866 146.3 282.938 142.813 282.938 139.571C282.938 136.348 282.86 132.873 282.71 129.146H293.345L300.366 145.299L299.873 129.146H306.943Z" fill="white"/>
<path d="M321.852 144.754C329.168 144.718 334.476 144.61 337.771 144.436C337.639 145.221 337.554 146.036 337.524 146.869C337.494 147.702 337.482 148.756 337.482 150.02H315.035C315.191 146.3 315.263 142.813 315.263 139.571C315.263 136.33 315.185 132.843 315.035 129.122H337.482V134.335H321.852V137.097C322.778 137.115 324.142 137.127 325.952 137.127C329.012 137.127 332.18 137.067 335.456 136.953V141.908C332.18 141.794 329.012 141.734 325.952 141.734C324.142 141.734 322.772 141.746 321.852 141.764V144.754Z" fill="white"/>
<path d="M347.131 144.203C352.716 144.167 357.339 144.071 361 143.915C360.748 144.892 360.597 145.832 360.537 146.737C360.477 147.642 360.453 148.732 360.453 150.02H340.085C340.242 146.3 340.314 142.813 340.314 139.571C340.314 136.33 340.236 132.843 340.085 129.122H347.137V144.203H347.131Z" fill="white"/>
<path d="M18.5508 173.968C16.2965 171.949 15.1663 169.073 15.1663 165.329C15.1663 161.566 16.2965 158.594 18.5508 156.407C20.8052 154.22 24.316 153.13 29.0833 153.13C35.7442 153.13 40.2049 155.413 42.4653 159.972C40.5656 160.625 38.3413 161.602 35.7923 162.902C35.1791 161.728 34.2173 160.853 32.9007 160.284C31.5841 159.715 30.2375 159.433 28.8669 159.433C26.8409 159.433 25.332 159.966 24.3461 161.027C23.3542 162.087 22.8612 163.399 22.8612 164.951C22.8612 166.635 23.3962 168.007 24.4603 169.067C25.5244 170.128 27.1535 170.661 29.3478 170.661C31.0972 170.661 32.4919 170.373 33.5259 169.792C34.5599 169.217 35.3174 168.294 35.8043 167.036C37.5357 167.959 39.748 169.001 42.4472 170.158C41.3952 172.698 39.6338 174.478 37.163 175.484C34.6982 176.491 32.005 177 29.0953 177C24.322 177 20.8112 175.987 18.5508 173.968Z" fill="white"/>
<path d="M52.4626 170.913C60.4762 170.871 66.2834 170.757 69.8904 170.565C69.7401 171.428 69.656 172.315 69.6199 173.231C69.5899 174.148 69.5718 175.298 69.5718 176.682H44.9961C45.1644 172.608 45.2486 168.792 45.2486 165.239C45.2486 161.686 45.1644 157.875 44.9961 153.795H69.5718V159.499H52.4626V162.525C53.4726 162.549 54.9695 162.555 56.9533 162.555C60.3078 162.555 63.7766 162.489 67.3595 162.363V167.785C63.7766 167.659 60.3078 167.593 56.9533 167.593C54.9695 167.593 53.4726 167.605 52.4626 167.623V170.913V170.913Z" fill="white"/>
<path d="M98.9569 153.825C98.8067 157.378 98.7345 161.183 98.7345 165.239C98.7345 169.319 98.8067 173.13 98.9569 176.682H87.6309L79.9781 159.469L80.5492 176.682H72.4214C72.5897 172.608 72.6739 168.792 72.6739 165.239C72.6739 161.71 72.5897 157.905 72.4214 153.825H84.06L91.7489 171.512L91.2139 153.825H98.9569Z" fill="white"/>
<path d="M128.661 160.416C125.348 160.308 122.132 160.248 119.012 160.224V176.682H111.106V160.224C107.962 160.248 104.758 160.308 101.488 160.416V153.795H128.661V160.416V160.416Z" fill="white"/>
<path d="M155.244 166.06C154.349 167.318 152.816 168.234 150.639 168.804C150.892 169.139 151.072 169.403 151.174 169.595L156.296 176.688H147.7C146.774 174.963 145.307 172.524 143.305 169.373H138.658V176.688H131.192C131.36 172.614 131.444 168.798 131.444 165.245C131.444 161.692 131.36 157.881 131.192 153.801H138.658V153.831H145.145C149.407 153.831 152.377 154.514 154.066 155.88C155.755 157.246 156.597 159.097 156.597 161.428C156.591 163.25 156.14 164.795 155.244 166.06ZM138.652 159.876V163.471H142.92C144.712 163.471 146.071 163.411 146.984 163.297C147.904 163.184 148.541 162.998 148.896 162.746C149.257 162.495 149.431 162.129 149.431 161.644C149.431 161.183 149.263 160.823 148.926 160.571C148.589 160.32 147.958 160.14 147.026 160.038C146.101 159.93 144.73 159.882 142.914 159.882H138.652V159.876Z" fill="white"/>
<path d="M162.536 173.86C160.258 171.769 159.122 168.834 159.122 165.047C159.122 161.308 160.258 158.385 162.524 156.282C164.791 154.178 168.35 153.13 173.201 153.13C178.071 153.13 181.642 154.178 183.908 156.282C186.174 158.385 187.311 161.302 187.311 165.047C187.311 168.852 186.18 171.793 183.926 173.872C181.672 175.952 178.095 176.994 173.201 176.994C168.368 177 164.815 175.952 162.536 173.86ZM178.257 169.229C179.291 168.336 179.808 166.946 179.808 165.053C179.808 163.202 179.291 161.83 178.257 160.925C177.223 160.02 175.54 159.571 173.195 159.571C170.875 159.571 169.197 160.02 168.163 160.925C167.129 161.83 166.612 163.208 166.612 165.053C166.612 166.922 167.129 168.312 168.163 169.217C169.197 170.122 170.875 170.571 173.195 170.571C175.534 170.565 177.223 170.122 178.257 169.229Z" fill="white"/>
<path d="M215.674 154.885C217.97 155.844 219.581 157.168 220.495 158.858C221.415 160.547 221.872 162.626 221.872 165.083C221.872 167.414 221.343 169.457 220.291 171.2C219.239 172.944 217.652 174.298 215.548 175.25C213.437 176.209 210.846 176.682 207.768 176.682C205.893 176.682 203.981 176.682 202.045 176.682C200.104 176.682 198.144 176.67 196.16 176.652C196.328 172.512 196.412 168.654 196.412 165.083C196.412 161.47 196.328 157.695 196.16 153.765C198.667 153.555 202.045 153.448 206.284 153.448C210.245 153.448 213.377 153.927 215.674 154.885ZM208.652 170.409C210.612 170.409 211.923 169.936 212.572 168.989C213.227 168.043 213.552 166.743 213.552 165.083C213.552 163.483 213.209 162.195 212.524 161.206C211.838 160.218 210.546 159.727 208.646 159.727C206.602 159.727 205.069 159.792 204.059 159.918V170.415H208.652V170.409Z" fill="white"/>
<path d="M231.869 170.913C239.883 170.871 245.69 170.757 249.297 170.565C249.147 171.428 249.062 172.315 249.026 173.231C248.996 174.148 248.978 175.298 248.978 176.682H224.403C224.571 172.608 224.655 168.792 224.655 165.239C224.655 161.686 224.571 157.875 224.403 153.795H248.978V159.499H231.863V162.525C232.873 162.549 234.37 162.555 236.354 162.555C239.708 162.555 243.177 162.489 246.76 162.363V167.785C243.177 167.659 239.708 167.593 236.354 167.593C234.37 167.593 232.873 167.605 231.863 167.623V170.913H231.869Z" fill="white"/>
<path d="M261.537 173.968C259.283 171.949 258.152 169.073 258.152 165.329C258.152 161.566 259.283 158.594 261.537 156.407C263.791 154.22 267.302 153.13 272.069 153.13C278.73 153.13 283.191 155.413 285.451 159.972C283.552 160.625 281.327 161.602 278.778 162.902C278.165 161.728 277.203 160.853 275.887 160.284C274.57 159.715 273.224 159.433 271.853 159.433C269.827 159.433 268.318 159.966 267.332 161.027C266.34 162.087 265.847 163.399 265.847 164.951C265.847 166.635 266.382 168.007 267.446 169.067C268.51 170.128 270.14 170.661 272.334 170.661C274.083 170.661 275.478 170.373 276.512 169.792C277.546 169.217 278.303 168.294 278.79 167.036C280.522 167.959 282.734 169.001 285.433 170.158C284.381 172.698 282.62 174.478 280.149 175.484C277.684 176.491 274.991 177 272.081 177C267.308 177 263.797 175.987 261.537 173.968Z" fill="white"/>
<path d="M307.941 176.682C307.538 175.484 307.003 173.98 306.33 172.177H296.242L294.661 176.682H286.72L295.575 153.795H307.214L316.135 176.682H307.941ZM304.526 167.258C303.727 165.053 302.903 162.842 302.062 160.637L301.304 158.588C300.565 160.499 299.483 163.393 298.046 167.258H304.526Z" fill="white"/>
<path d="M324.894 170.314C331.008 170.272 336.07 170.164 340.079 169.996C339.803 171.068 339.635 172.099 339.574 173.088C339.508 174.076 339.478 175.274 339.478 176.682H317.181C317.349 172.608 317.433 168.792 317.433 165.239C317.433 161.686 317.349 157.875 317.181 153.795H324.9V170.314H324.894Z" fill="white"/>
<path d="M360.988 160.068C358.481 159.942 356.624 159.87 355.421 159.846V170.625C356.642 170.607 358.499 170.529 360.988 170.403V176.676H342.61V170.403C345.033 170.529 346.879 170.601 348.147 170.625V159.846C346.885 159.87 345.039 159.942 342.61 160.068V153.795H360.988V160.068Z" fill="white"/>
<path d="M178.648 49.855C178.648 49.855 182.429 50.574 182.79 55.4151C183.15 60.2562 183.331 64.7438 180.271 66.3615C180.271 66.3615 182.79 66.721 182.609 70.1302C182.429 73.5393 179.369 73.719 179.369 73.719L199.893 73.0001L199.532 64.7438C199.532 64.7438 199.893 67.2542 196.472 67.9732C193.052 68.6922 189.09 69.2314 188.188 66.8948C187.286 64.5641 192.511 64.0248 196.112 65.6365C196.112 65.6365 196.653 65.6365 196.833 63.8451C197.013 62.0536 196.653 58.998 196.653 58.998C196.653 58.998 193.953 61.1489 190.893 61.1489C187.834 61.1489 187.473 58.6385 187.653 57.0208C187.834 55.4031 192.517 50.7418 197.554 54.3306L197.374 47.6921L178.648 49.855Z" fill="white"/>
<path d="M184.046 44.1451L192.589 44.0253C192.589 44.0253 187.226 40.1428 190.226 36.4761C190.226 36.4761 188.88 35.7571 188.621 32.5217C188.363 29.2803 185.11 23.0671 183.427 22.1744C181.744 21.2817 177.614 22.5339 177.614 22.5339C177.614 22.5339 180.535 21.761 179.76 25.314C178.984 28.8669 177.632 34.7925 177.632 34.7925C177.632 34.7925 177.403 36.9973 175.005 37.2789C175.005 37.2789 177.205 38.0159 176.454 40.5503C175.702 43.0847 173.808 43.7138 173.808 43.7138L181.648 44.259C181.648 44.259 179.79 43.3603 180.547 40.6581C181.299 37.956 186.066 38.5911 185.832 41.1374C185.597 43.6838 184.046 44.1451 184.046 44.1451ZM181.016 36.0627L183.114 27.6087L184.948 35.829L181.016 36.0627Z" fill="white"/>
<path d="M240.219 59.1837C240.219 59.1837 237.436 58.7823 236.799 54.1629C236.131 49.3218 236.48 45.5352 229.957 47.1649C229.957 47.1649 224.919 48.6028 224.919 56.1341C224.919 63.4796 222.184 64.1746 222.046 64.2046C222.166 64.1806 224.408 63.7732 225.461 67.434C226.543 71.2026 227.979 72.4548 231.58 72.2811C235.181 72.1013 238.782 69.5909 238.422 64.7438C238.061 59.9027 240.219 59.1837 240.219 59.1837ZM233.648 64.1147C233.468 66.4454 232.927 67.8834 231.49 68.0631C230.047 68.2428 230.408 66.6251 230.228 64.1147C230.047 61.6043 228.605 62.1435 228.605 62.1435C229.326 61.6043 229.506 59.0939 229.506 59.0939C229.146 51.7363 231.13 52.0958 231.13 52.0958C233.648 51.7363 233.107 54.786 232.927 57.2964C232.747 59.8069 234.905 60.7056 234.905 60.7056C233.468 61.784 233.829 61.784 233.648 64.1147Z" fill="white"/>
<path d="M167.544 30.1131L174.68 28.9268C174.68 28.9268 171.62 27.5727 171.794 25.3739C171.963 23.175 169.925 21.4794 166.191 21.8209C162.452 22.1624 159.735 23.175 159.567 30.2869C159.398 37.3988 157.865 37.7343 157.865 37.7343C157.865 37.7343 160.583 38.2436 160.583 41.2872C160.583 44.3369 165.849 44.8402 169.245 43.8276C172.642 42.8091 173.321 41.2872 173.49 39.0883C173.658 36.8895 175.87 35.8709 175.87 35.8709L168.229 36.2124C168.229 36.2124 169.42 39.5976 167.207 40.2747C165.001 40.9517 162.963 37.0572 163.3 34.5169C163.642 31.9765 162.452 27.5787 165.849 26.7279C169.239 25.8831 167.544 30.1131 167.544 30.1131Z" fill="white"/>
<path d="M217.116 21.6532L208.947 21.9408C208.947 21.9408 210.467 23.0432 210.936 26.5841C211.405 30.1251 211.712 35.6732 209.079 36.2903C209.079 36.2903 212.019 37.3688 211.862 40.1428C211.706 42.9169 211.556 43.534 210.005 44.3009L218.974 44.1451C218.974 44.1451 216.425 42.833 216.575 39.2921C216.732 35.7511 218.583 35.9009 218.583 35.9009C218.583 35.9009 216.882 35.9009 216.419 32.0484C215.956 28.1959 215.8 25.266 215.8 25.266C215.8 25.266 215.65 22.498 217.116 21.6532Z" fill="white"/>
<path d="M174.752 47.9138L165.506 48.2373C165.506 48.2373 167.231 49.4835 167.754 53.4918C168.277 57.5001 168.626 63.7732 165.656 64.4742C165.656 64.4742 168.981 65.6965 168.807 68.83C168.632 71.9635 168.458 72.6645 166.708 73.5333L176.85 73.3595C176.85 73.3595 173.965 71.8797 174.139 67.8714C174.313 63.8631 176.411 64.0368 176.411 64.0368C176.411 64.0368 174.488 64.0368 173.965 59.681C173.442 55.3252 173.267 52.0119 173.267 52.0119C173.267 52.0119 173.093 48.8724 174.752 47.9138Z" fill="white"/>
<path d="M165.506 48.2373C165.506 48.2373 159.404 46.4459 157.222 50.3883C155.04 54.3366 151.12 67.7935 151.12 67.7935L143.425 51.287C143.425 51.287 142.115 47.6981 136.885 49.4955C136.885 49.4955 137.9 49.6753 139.5 53.4439C141.099 57.2125 143.425 63.4916 143.425 63.4916C143.425 63.4916 144.297 64.7498 143.425 66.1818C143.425 66.1818 145.896 66.3615 146.479 68.5124C147.062 70.6634 148.806 73.8928 150.549 73.713C152.292 73.5333 153.747 73.5333 153.747 73.1738C153.747 72.8143 155.202 65.4568 157.673 65.277C157.673 65.277 156.657 64.0188 157.529 61.8679C158.4 59.717 161.292 50.0348 165.506 48.2373Z" fill="white"/>
<path d="M199.142 21.9348H191.441C191.441 21.9348 193.821 22.6298 194.242 25.985C194.663 29.3342 195.781 34.7805 193.124 37.4287C193.124 37.4287 195.222 38.2675 195.505 40.3585C195.787 42.4496 193.406 44.4088 193.406 44.4088L208.953 43.8516V36.5959C208.953 36.5959 204.823 40.2926 200.2 40.5742C200.2 40.5742 198.24 37.225 201.18 36.2484C201.18 36.2484 199.082 34.9902 199.082 33.1748C199.082 31.3593 198.661 26.2127 198.661 25.6375C198.655 25.0803 198.372 24.2415 199.142 21.9348Z" fill="white"/>
<path d="M218.259 46.9791L202.418 47.6981L203.139 55.4151C203.139 55.4151 204.582 51.4667 209.62 52.006C214.658 52.5452 214.658 55.9543 214.123 59.3635C213.582 62.7726 211.964 62.4131 211.964 62.4131C211.964 62.4131 214.483 62.2334 214.303 65.4628C214.123 68.6922 212.505 69.2314 210.341 69.4112C208.183 69.5909 206.019 68.5125 206.199 62.2334C206.199 62.2334 205.478 60.7954 199.899 62.0536C199.899 62.0536 202.237 62.7726 202.598 67.7935C202.959 72.8143 207.101 74.6118 211.598 74.2523C216.1 73.8928 219.521 71.3824 219.521 65.6425C219.521 59.9027 221.499 60.6217 221.499 60.6217C221.499 60.6217 219.16 61.3407 218.8 55.7746C218.433 50.2085 219.335 47.5184 218.259 46.9791Z" fill="white"/>
<path d="M155.617 31.9046C155.617 31.9046 157.835 36.7637 151.265 37.3508C144.694 37.938 134.498 36.7337 131.3 43.4202C131.3 43.4202 130.638 36.4102 140.377 34.8344C150.116 33.2586 152.9 35.6672 155.617 31.9046Z" fill="white"/>
<path d="M156.597 37.92C156.597 37.92 158.815 42.7791 152.244 43.3663C145.674 43.9534 135.478 42.7491 132.28 49.4356C132.28 49.4356 131.618 42.4256 141.357 40.8498C151.102 39.2801 153.874 41.6767 156.597 37.92Z" fill="white"/>
<path d="M222.623 31.8267C222.623 31.8267 221.577 36.6558 227.469 36.6558C235.428 36.6558 240.965 35.9668 241.656 42.5155C241.656 42.5155 237.851 38.0339 228.851 38.7229C219.858 39.4179 219.509 32.8632 222.623 31.8267Z" fill="white"/>
<path d="M240.965 45.2775C240.965 45.2775 241.656 41.1374 235.428 41.1374C229.2 41.1374 221.932 42.5155 220.898 38.0339C220.898 38.0339 217.092 42.174 224.703 43.2045C232.314 44.241 237.159 41.8265 240.965 45.2775Z" fill="white"/>
<path d="M197.669 0.515274L195.372 2.57634C195.372 2.57634 195.571 12.5162 196.124 14.8948C196.166 15.0865 196.4 15.1644 196.557 15.0386L198.721 13.2292C198.637 13.6845 197.47 2.85195 197.867 0.994592C197.927 0.712993 197.903 0.515274 197.669 0.515274Z" fill="white"/>
<path d="M194.272 16.3687L191.266 19.8437L190.93 19.6041L189.018 11.8511L186.679 15.1345C186.679 15.1345 184.912 15.1045 182.471 13.1573C182.471 13.1573 183.571 16.5604 184.1 17.1356L181.239 20.3231C181.239 20.3231 178.281 13.331 177.56 4.57149L180.139 1.3361H180.758C180.758 1.3361 183.385 9.61631 187.395 11.8511C187.395 11.8511 187.918 6.80631 187.058 3.57092L190.304 0L190.924 0.383454C190.924 0.383454 191.02 4.4277 192.072 8.23228C193.13 12.0369 193.557 16.129 194.272 16.3687Z" fill="white"/>
</svg>
