<svg width="1920" height="463" viewBox="0 0 1920 463" fill="none" xmlns="http://www.w3.org/2000/svg">
<path d="M556.676 339.265C555.718 336.397 554.429 332.808 552.826 328.498H528.737L524.966 339.265H506L527.15 284.583H554.932L576.224 339.265H556.676ZM548.521 316.743C546.604 311.477 544.64 306.195 542.628 300.929L540.821 296.04C539.061 300.616 536.469 307.512 533.043 316.759H548.521V316.743Z" fill="white"/>
<path d="M597.138 324.047C611.736 323.952 623.82 323.702 633.389 323.294C632.729 325.849 632.337 328.309 632.179 330.676C632.022 333.043 631.959 335.895 631.959 339.265H578.722C579.131 329.532 579.319 320.41 579.319 311.932C579.319 303.453 579.115 294.331 578.722 284.599H597.138V324.047Z" fill="white"/>
<path d="M680.357 284.505H699.088V314.486C698.993 321.868 696.464 327.965 691.498 332.792C686.533 337.619 678.189 340.017 666.466 340.017C654.587 340.017 646.447 337.713 642.079 333.121C637.695 328.529 635.558 322.495 635.668 315.003V284.505H654.399V313.797C654.399 316.006 654.556 317.809 654.886 319.188C655.216 320.567 656.268 321.868 658.06 323.059C659.851 324.266 662.727 324.861 666.702 324.861C671.039 324.861 674.198 324.25 676.225 323.012C678.236 321.79 679.43 320.41 679.807 318.906C680.184 317.401 680.373 315.474 680.373 313.107V284.505H680.357Z" fill="white"/>
<path d="M775.738 284.583L781.631 339.265H762.068L760.858 300.256L753.299 339.265H733.532L725.832 300.553L724.701 339.265H705.138L711.03 284.583H736.706L743.274 320.207L749.01 284.583H775.738Z" fill="white"/>
<path d="M849.136 322.996C849.136 326.413 848.35 329.313 846.795 331.695C845.239 334.077 842.442 335.942 838.419 337.274C834.397 338.606 828.803 339.265 821.653 339.265H787.665C788.073 329.532 788.262 320.41 788.262 311.932C788.262 303.453 788.058 294.331 787.665 284.599H805.405V284.677H821.496C827.734 284.677 832.653 285.194 836.267 286.229C839.865 287.263 842.411 288.752 843.888 290.711C845.365 292.67 846.119 295.162 846.119 298.171C846.119 301.227 845.051 303.954 842.914 306.336C840.776 308.719 837.115 310.646 831.93 312.104C843.401 312.073 849.136 315.724 849.136 322.996ZM805.405 298.375V305.38H819.909C823.036 305.38 825.204 305.098 826.446 304.55C827.671 304.001 828.3 302.998 828.3 301.541C828.3 300.381 827.656 299.566 826.367 299.096C825.079 298.626 822.926 298.375 819.909 298.375H805.405ZM819.909 325.488C822.533 325.488 824.529 325.379 825.911 325.144C827.294 324.924 828.284 324.517 828.897 323.937C829.494 323.357 829.808 322.573 829.808 321.57C829.808 320.269 829.086 319.329 827.656 318.749C826.226 318.169 823.633 317.887 819.909 317.887H805.405V325.488H819.909V325.488Z" fill="white"/>
<path d="M912.603 313.891C910.466 316.9 906.805 319.094 901.619 320.442C902.217 321.241 902.656 321.868 902.908 322.323L915.149 339.265H894.595C892.38 335.143 888.876 329.328 884.099 321.79H873.005V339.265H855.186C855.594 329.532 855.783 320.41 855.783 311.932C855.783 303.453 855.579 294.331 855.186 284.599H873.005V284.677H888.483C898.65 284.677 905.752 286.307 909.775 289.567C913.797 292.827 915.809 297.246 915.809 302.826C915.809 307.183 914.74 310.866 912.603 313.891ZM873.005 299.127V307.716H883.203C887.477 307.716 890.714 307.575 892.914 307.308C895.098 307.026 896.622 306.587 897.487 305.992C898.335 305.396 898.775 304.518 898.775 303.359C898.775 302.262 898.367 301.4 897.565 300.804C896.764 300.209 895.255 299.77 893.04 299.519C890.824 299.268 887.556 299.143 883.219 299.143H873.005V299.127Z" fill="white"/>
<path d="M964.976 339.265C964.018 336.397 962.729 332.808 961.126 328.498H937.037L933.266 339.265H914.316L935.466 284.583H963.263L984.555 339.265H964.976ZM956.821 316.743C954.904 311.477 952.94 306.195 950.928 300.929L949.121 296.04C947.361 300.616 944.768 307.512 941.343 316.759H956.821V316.743Z" fill="white"/>
<path d="M1033.61 287.185C1039.1 289.473 1042.93 292.639 1045.13 296.682C1047.31 300.726 1048.41 305.678 1048.41 311.555C1048.41 317.135 1047.16 321.993 1044.64 326.162C1042.13 330.331 1038.34 333.56 1033.31 335.848C1028.29 338.136 1022.09 339.28 1014.74 339.28C1010.26 339.28 1005.71 339.28 1001.07 339.28C996.435 339.28 991.752 339.249 987.022 339.202C987.431 329.313 987.619 320.097 987.619 311.555C987.619 302.92 987.415 293.908 987.022 284.52C993.009 284.019 1001.07 283.768 1011.19 283.768C1020.65 283.752 1028.13 284.896 1033.61 287.185ZM1016.85 324.282C1021.53 324.282 1024.66 323.153 1026.21 320.896C1027.77 318.639 1028.55 315.521 1028.55 311.555C1028.55 307.747 1027.74 304.66 1026.1 302.293C1024.47 299.926 1021.39 298.751 1016.85 298.751C1011.96 298.751 1008.31 298.908 1005.89 299.205V324.282H1016.85Z" fill="white"/>
<path d="M1062.62 332.525C1057.18 327.526 1054.46 320.505 1054.46 311.477C1054.46 302.544 1057.17 295.554 1062.59 290.539C1067.99 285.523 1076.49 283 1088.08 283C1099.7 283 1108.22 285.508 1113.64 290.539C1119.05 295.554 1121.77 302.544 1121.77 311.477C1121.77 320.567 1119.08 327.589 1113.69 332.572C1108.3 337.541 1099.77 340.033 1088.09 340.033C1076.53 340.017 1068.06 337.525 1062.62 332.525ZM1100.14 321.461C1102.61 319.329 1103.84 316.006 1103.84 311.477C1103.84 307.057 1102.6 303.766 1100.14 301.603C1097.68 299.441 1093.65 298.359 1088.06 298.359C1082.53 298.359 1078.52 299.441 1076.05 301.603C1073.59 303.766 1072.36 307.057 1072.36 311.477C1072.36 315.944 1073.59 319.266 1076.05 321.414C1078.52 323.576 1082.53 324.658 1088.06 324.658C1093.65 324.658 1097.68 323.592 1100.14 321.461Z" fill="white"/>
<path d="M1160.7 325.488C1179.83 325.394 1193.7 325.112 1202.31 324.658C1201.97 326.711 1201.75 328.842 1201.67 331.021C1201.59 333.199 1201.56 335.958 1201.56 339.265H1142.88C1143.29 329.532 1143.48 320.41 1143.48 311.932C1143.48 303.453 1143.28 294.331 1142.88 284.599H1201.56V298.234H1160.7V305.459C1163.12 305.506 1166.69 305.537 1171.42 305.537C1179.42 305.537 1187.7 305.38 1196.26 305.083V318.044C1187.7 317.746 1179.42 317.589 1171.42 317.589C1166.69 317.589 1163.11 317.621 1160.7 317.668V325.488Z" fill="white"/>
<path d="M1271.7 284.661C1271.36 293.14 1271.17 302.23 1271.17 311.932C1271.17 321.68 1271.34 330.786 1271.7 339.265H1244.68L1226.4 298.14L1227.77 339.265H1208.36C1208.77 329.532 1208.96 320.41 1208.96 311.932C1208.96 303.5 1208.76 294.41 1208.36 284.661H1236.16L1254.51 326.915L1253.22 284.661H1271.7Z" fill="white"/>
<path d="M1310.67 325.488C1329.8 325.394 1343.67 325.112 1352.28 324.658C1351.94 326.711 1351.72 328.842 1351.64 331.021C1351.56 333.199 1351.53 335.958 1351.53 339.265H1292.85C1293.26 329.532 1293.45 320.41 1293.45 311.932C1293.45 303.453 1293.25 294.331 1292.85 284.599H1351.53V298.234H1310.67V305.459C1313.09 305.506 1316.66 305.537 1321.39 305.537C1329.39 305.537 1337.67 305.38 1346.23 305.083V318.044C1337.67 317.746 1329.39 317.589 1321.39 317.589C1316.66 317.589 1313.08 317.621 1310.67 317.668V325.488Z" fill="white"/>
<path d="M1376.75 324.047C1391.35 323.952 1403.43 323.702 1413 323.294C1412.34 325.849 1411.95 328.309 1411.79 330.676C1411.63 333.043 1411.57 335.895 1411.57 339.265H1358.33C1358.74 329.532 1358.93 320.41 1358.93 311.932C1358.93 303.453 1358.73 294.331 1358.33 284.599H1376.76V324.047H1376.75Z" fill="white"/>
<path d="M517.895 401.908C512.003 396.626 509.048 389.104 509.048 379.308C509.048 369.466 512.003 361.692 517.895 355.972C523.788 350.251 532.964 347.399 545.425 347.399C562.836 347.399 574.495 353.37 580.404 365.297C575.438 367.005 569.624 369.56 562.962 372.961C561.359 369.889 558.845 367.601 555.403 366.112C551.962 364.623 548.442 363.886 544.86 363.886C539.564 363.886 535.62 365.281 533.043 368.055C530.45 370.829 529.162 374.262 529.162 378.321C529.162 382.725 530.56 386.314 533.342 389.088C536.123 391.862 540.381 393.257 546.117 393.257C550.689 393.257 554.335 392.505 557.038 390.984C559.74 389.48 561.72 387.066 562.993 383.775C567.518 386.188 573.301 388.915 580.356 391.94C577.607 398.585 573.002 403.24 566.544 405.873C560.102 408.506 553.062 409.838 545.457 409.838C532.98 409.838 523.803 407.19 517.895 401.908Z" fill="white"/>
<path d="M606.535 393.915C627.481 393.805 642.66 393.507 652.089 393.006C651.696 395.263 651.476 397.582 651.381 399.98C651.303 402.378 651.256 405.387 651.256 409.008H587.019C587.459 398.35 587.679 388.367 587.679 379.073C587.679 369.779 587.459 359.811 587.019 349.138H651.256V364.059H606.535V371.973C609.175 372.036 613.088 372.052 618.273 372.052C627.041 372.052 636.108 371.879 645.473 371.55V385.734C636.108 385.405 627.041 385.232 618.273 385.232C613.088 385.232 609.175 385.264 606.535 385.311V393.915V393.915Z" fill="white"/>
<path d="M728.064 349.217C727.671 358.511 727.482 368.463 727.482 379.073C727.482 389.746 727.671 399.714 728.064 409.008H698.459L678.456 363.98L679.949 409.008H658.704C659.144 398.35 659.364 388.367 659.364 379.073C659.364 369.842 659.144 359.89 658.704 349.217H689.125L709.223 395.482L707.825 349.217H728.064Z" fill="white"/>
<path d="M805.704 366.457C797.046 366.175 788.639 366.018 780.484 365.955V409.008H759.82V365.955C751.602 366.018 743.227 366.175 734.679 366.457V349.138H805.704V366.457V366.457Z" fill="white"/>
<path d="M875.189 381.22C872.848 384.511 868.841 386.909 863.153 388.398C863.812 389.276 864.284 389.965 864.551 390.467L877.939 409.023H855.469C853.049 404.51 849.215 398.131 843.982 389.887H831.836V409.023H812.319C812.759 398.366 812.979 388.383 812.979 379.089C812.979 369.795 812.759 359.827 812.319 349.154H831.836V349.232H848.79C859.931 349.232 867.694 351.019 872.109 354.592C876.525 358.166 878.725 363.009 878.725 369.105C878.709 373.87 877.53 377.913 875.189 381.22ZM831.82 365.046V374.45H842.976C847.659 374.45 851.21 374.293 853.599 373.995C856.003 373.697 857.669 373.211 858.596 372.553C859.538 371.895 859.994 370.939 859.994 369.669C859.994 368.463 859.554 367.522 858.674 366.864C857.794 366.206 856.144 365.736 853.709 365.469C851.289 365.187 847.706 365.062 842.961 365.062H831.82V365.046Z" fill="white"/>
<path d="M894.25 401.626C888.294 396.156 885.324 388.477 885.324 378.572C885.324 368.792 888.294 361.144 894.218 355.643C900.142 350.141 909.445 347.399 922.126 347.399C934.853 347.399 944.187 350.141 950.111 355.643C956.035 361.144 959.005 368.776 959.005 378.572C959.005 388.524 956.051 396.219 950.158 401.657C944.266 407.096 934.916 409.823 922.126 409.823C909.492 409.838 900.205 407.096 894.25 401.626ZM935.341 389.511C938.043 387.176 939.395 383.54 939.395 378.587C939.395 373.744 938.043 370.155 935.341 367.789C932.638 365.422 928.238 364.247 922.11 364.247C916.044 364.247 911.66 365.422 908.958 367.789C906.255 370.155 904.904 373.76 904.904 378.587C904.904 383.477 906.255 387.113 908.958 389.48C911.66 391.846 916.044 393.022 922.11 393.022C928.222 393.006 932.638 391.846 935.341 389.511Z" fill="white"/>
<path d="M1033.14 351.991C1039.14 354.498 1043.36 357.962 1045.74 362.382C1048.15 366.801 1049.34 372.24 1049.34 378.666C1049.34 384.762 1047.96 390.106 1045.21 394.667C1042.46 399.228 1038.31 402.77 1032.81 405.262C1027.3 407.77 1020.52 409.008 1012.48 409.008C1007.58 409.008 1002.58 409.008 997.519 409.008C992.443 409.008 987.321 408.976 982.135 408.929C982.575 398.1 982.795 388.006 982.795 378.666C982.795 369.215 982.575 359.341 982.135 349.06C988.688 348.511 997.519 348.229 1008.6 348.229C1018.95 348.229 1027.14 349.483 1033.14 351.991ZM1014.79 392.598C1019.91 392.598 1023.34 391.36 1025.03 388.884C1026.75 386.408 1027.59 383.007 1027.59 378.666C1027.59 374.481 1026.7 371.111 1024.91 368.525C1023.12 365.939 1019.74 364.654 1014.77 364.654C1009.43 364.654 1005.42 364.827 1002.78 365.156V392.614H1014.79V392.598Z" fill="white"/>
<path d="M1075.47 393.915C1096.42 393.805 1111.6 393.507 1121.03 393.006C1120.63 395.263 1120.41 397.582 1120.32 399.98C1120.24 402.378 1120.19 405.387 1120.19 409.008H1055.96C1056.4 398.35 1056.62 388.367 1056.62 379.073C1056.62 369.779 1056.4 359.811 1055.96 349.138H1120.19V364.059H1075.46V371.973C1078.1 372.036 1082.01 372.052 1087.2 372.052C1095.96 372.052 1105.03 371.879 1114.4 371.55V385.734C1105.03 385.405 1095.96 385.232 1087.2 385.232C1082.01 385.232 1078.1 385.264 1075.46 385.311V393.915H1075.47Z" fill="white"/>
<path d="M1153.02 401.908C1147.13 396.626 1144.17 389.104 1144.17 379.308C1144.17 369.466 1147.13 361.692 1153.02 355.972C1158.91 350.251 1168.09 347.399 1180.55 347.399C1197.96 347.399 1209.62 353.37 1215.53 365.297C1210.56 367.005 1204.75 369.56 1198.09 372.961C1196.48 369.889 1193.97 367.601 1190.53 366.112C1187.09 364.623 1183.57 363.886 1179.98 363.886C1174.69 363.886 1170.74 365.281 1168.17 368.055C1165.58 370.829 1164.29 374.262 1164.29 378.321C1164.29 382.725 1165.69 386.314 1168.47 389.088C1171.25 391.862 1175.51 393.257 1181.24 393.257C1185.81 393.257 1189.46 392.505 1192.16 390.984C1194.87 389.48 1196.85 387.066 1198.12 383.775C1202.64 386.188 1208.43 388.915 1215.48 391.94C1212.73 398.585 1208.13 403.24 1201.67 405.873C1195.23 408.506 1188.19 409.838 1180.58 409.838C1168.11 409.838 1158.93 407.19 1153.02 401.908Z" fill="white"/>
<path d="M1274.31 409.008C1273.26 405.873 1271.86 401.939 1270.1 397.222H1243.73L1239.6 409.008H1218.84L1241.99 349.138H1272.41L1295.73 409.008H1274.31ZM1265.39 384.355C1263.3 378.587 1261.14 372.804 1258.94 367.036L1256.96 361.676C1255.03 366.676 1252.2 374.246 1248.45 384.355H1265.39Z" fill="white"/>
<path d="M1318.62 392.348C1334.61 392.238 1347.84 391.956 1358.32 391.517C1357.59 394.323 1357.15 397.018 1357 399.604C1356.82 402.19 1356.75 405.325 1356.75 409.008H1298.46C1298.9 398.35 1299.12 388.367 1299.12 379.073C1299.12 369.779 1298.9 359.811 1298.46 349.138H1318.64V392.348H1318.62Z" fill="white"/>
<path d="M1412.97 365.548C1406.42 365.219 1401.56 365.03 1398.42 364.968V393.163C1401.61 393.116 1406.46 392.912 1412.97 392.583V408.992H1364.93V392.583C1371.27 392.912 1376.09 393.1 1379.4 393.163V364.968C1376.1 365.03 1371.28 365.219 1364.93 365.548V349.138H1412.97V365.548Z" fill="white"/>
<path d="M939.784 130.412C939.784 130.412 949.668 132.292 950.611 144.956C951.554 157.619 952.025 169.358 944.027 173.59C944.027 173.59 950.611 174.53 950.14 183.448C949.668 192.366 941.67 192.836 941.67 192.836L995.316 190.955L994.373 169.358C994.373 169.358 995.316 175.925 986.375 177.806C977.434 179.686 967.079 181.097 964.722 174.985C962.365 168.888 976.02 167.477 985.432 171.693C985.432 171.693 986.846 171.693 987.318 167.007C987.789 162.321 986.846 154.328 986.846 154.328C986.846 154.328 979.791 159.955 971.793 159.955C963.795 159.955 962.852 153.388 963.323 149.156C963.795 144.925 976.035 132.731 989.203 142.119L988.732 124.754L939.784 130.412Z" fill="white"/>
<path d="M953.895 115.476L976.224 115.162C976.224 115.162 962.207 105.006 970.048 95.4148C970.048 95.4148 966.529 93.5341 965.853 85.0709C965.177 76.592 956.676 60.3395 952.276 58.0043C947.877 55.6691 937.081 58.9446 937.081 58.9446C937.081 58.9446 944.718 56.9229 942.691 66.2167C940.664 75.5106 937.129 91.0108 937.129 91.0108C937.129 91.0108 936.531 96.7783 930.262 97.5149C930.262 97.5149 936.013 99.4427 934.049 106.072C932.085 112.702 927.135 114.347 927.135 114.347L947.625 115.774C947.625 115.774 942.77 113.423 944.75 106.354C946.714 99.2859 959.175 100.947 958.562 107.608C957.949 114.269 953.895 115.476 953.895 115.476ZM945.975 94.3334L951.459 72.2193L956.252 93.7222L945.975 94.3334Z" fill="white"/>
<path d="M1100.72 154.814C1100.72 154.814 1093.45 153.764 1091.78 141.68C1090.04 129.017 1090.95 119.112 1073.9 123.375C1073.9 123.375 1060.73 127.136 1060.73 146.837C1060.73 166.051 1053.58 167.869 1053.22 167.948C1053.53 167.885 1059.4 166.819 1062.15 176.395C1064.97 186.253 1068.73 189.529 1078.14 189.074C1087.55 188.604 1096.97 182.037 1096.02 169.358C1095.08 156.695 1100.72 154.814 1100.72 154.814ZM1083.55 167.713C1083.08 173.809 1081.66 177.571 1077.91 178.041C1074.14 178.511 1075.08 174.279 1074.61 167.713C1074.14 161.146 1070.36 162.556 1070.36 162.556C1072.25 161.146 1072.72 154.579 1072.72 154.579C1071.78 135.333 1076.96 136.273 1076.96 136.273C1083.55 135.333 1082.13 143.31 1081.66 149.877C1081.19 156.444 1086.83 158.795 1086.83 158.795C1083.08 161.616 1084.02 161.616 1083.55 167.713Z" fill="white"/>
<path d="M910.762 78.7705L929.414 75.6673C929.414 75.6673 921.415 72.1253 921.871 66.3735C922.311 60.6216 916.984 56.1863 907.226 57.0796C897.452 57.9729 890.35 60.6216 889.91 79.225C889.47 97.8284 885.463 98.706 885.463 98.706C885.463 98.706 892.565 100.038 892.565 108C892.565 115.977 906.33 117.294 915.208 114.645C924.087 111.981 925.862 108 926.302 102.248C926.742 96.4962 932.525 93.8319 932.525 93.8319L912.553 94.7252C912.553 94.7252 915.664 103.58 909.882 105.351C904.115 107.122 898.788 96.935 899.668 90.2899C900.563 83.6447 897.452 72.141 906.33 69.9155C915.193 67.7056 910.762 78.7705 910.762 78.7705Z" fill="white"/>
<path d="M1040.34 56.6408L1018.98 57.3931C1018.98 57.3931 1022.96 60.2768 1024.18 69.5393C1025.41 78.8018 1026.21 93.3147 1019.33 94.9289C1019.33 94.9289 1027.01 97.75 1026.6 105.006C1026.19 112.263 1025.8 113.877 1021.75 115.883L1045.19 115.476C1045.19 115.476 1038.53 112.043 1038.92 102.781C1039.33 93.5184 1044.17 93.9102 1044.17 93.9102C1044.17 93.9102 1039.72 93.9102 1038.51 83.8327C1037.3 73.7553 1036.89 66.0913 1036.89 66.0913C1036.89 66.0913 1036.5 58.8506 1040.34 56.6408Z" fill="white"/>
<path d="M929.602 125.334L905.435 126.18C905.435 126.18 909.944 129.44 911.311 139.925C912.678 150.41 913.59 166.819 905.827 168.653C905.827 168.653 914.517 171.85 914.061 180.047C913.606 188.244 913.15 190.077 908.577 192.35L935.086 191.895C935.086 191.895 927.543 188.024 927.999 177.539C928.455 167.054 933.939 167.509 933.939 167.509C933.939 167.509 928.911 167.509 927.543 156.115C926.176 144.721 925.721 136.054 925.721 136.054C925.721 136.054 925.265 127.841 929.602 125.334Z" fill="white"/>
<path d="M905.435 126.18C905.435 126.18 889.485 121.494 883.781 131.807C878.077 142.135 867.832 177.335 867.832 177.335L847.719 134.157C847.719 134.157 844.293 124.77 830.623 129.471C830.623 129.471 833.278 129.942 837.458 139.8C841.638 149.658 847.719 166.083 847.719 166.083C847.719 166.083 849.997 169.374 847.719 173.12C847.719 173.12 854.177 173.59 855.701 179.216C857.226 184.843 861.783 193.29 866.339 192.82C870.896 192.35 874.699 192.35 874.699 191.409C874.699 190.469 878.502 171.223 884.96 170.753C884.96 170.753 882.304 167.462 884.583 161.835C886.861 156.209 894.42 130.882 905.435 126.18Z" fill="white"/>
<path d="M993.352 57.3774H973.223C973.223 57.3774 979.445 59.1954 980.545 67.9721C981.645 76.733 984.568 90.9794 977.623 97.9067C977.623 97.9067 983.107 100.101 983.845 105.571C984.584 111.04 978.361 116.165 978.361 116.165L1019 114.708V95.7282C1019 95.7282 1008.2 105.398 996.117 106.135C996.117 106.135 990.995 97.3739 998.679 94.8192C998.679 94.8192 993.195 91.528 993.195 86.7792C993.195 82.0304 992.095 68.5676 992.095 67.0631C992.079 65.6055 991.34 63.4113 993.352 57.3774Z" fill="white"/>
<path d="M1043.32 122.889L1001.92 124.77L1003.8 144.956C1003.8 144.956 1007.57 134.628 1020.74 136.038C1033.91 137.449 1033.91 146.366 1032.51 155.284C1031.1 164.202 1026.87 163.261 1026.87 163.261C1026.87 163.261 1033.45 162.791 1032.98 171.239C1032.51 179.686 1028.28 181.097 1022.63 181.567C1016.99 182.037 1011.33 179.216 1011.8 162.791C1011.8 162.791 1009.91 159.03 995.332 162.321C995.332 162.321 1001.44 164.202 1002.39 177.335C1003.33 190.469 1014.16 195.171 1025.91 194.231C1037.68 193.29 1046.62 186.723 1046.62 171.709C1046.62 156.695 1051.79 158.575 1051.79 158.575C1051.79 158.575 1045.68 160.456 1044.74 145.896C1043.78 131.336 1046.13 124.299 1043.32 122.889Z" fill="white"/>
<path d="M879.586 83.4566C879.586 83.4566 885.384 96.1671 868.209 97.703C851.034 99.2389 824.384 96.0887 816.025 113.579C816.025 113.579 814.296 95.2424 839.752 91.1205C865.208 86.9986 872.483 93.299 879.586 83.4566Z" fill="white"/>
<path d="M882.147 99.1919C882.147 99.1919 887.945 111.902 870.77 113.438C853.596 114.974 826.945 111.824 818.586 129.315C818.586 129.315 816.857 110.978 842.313 106.856C867.785 102.75 875.029 109.019 882.147 99.1919Z" fill="white"/>
<path d="M1054.73 83.2529C1054.73 83.2529 1051.99 95.885 1067.39 95.885C1088.2 95.885 1102.67 94.0826 1104.48 111.213C1104.48 111.213 1094.53 99.4897 1071.01 101.292C1047.5 103.11 1046.59 85.9642 1054.73 83.2529Z" fill="white"/>
<path d="M1102.67 118.438C1102.67 118.438 1104.48 107.608 1088.2 107.608C1071.92 107.608 1052.92 111.213 1050.22 99.4897C1050.22 99.4897 1040.27 110.319 1060.17 113.015C1080.06 115.726 1092.72 109.41 1102.67 118.438Z" fill="white"/>
<path d="M989.502 1.34784L983.499 6.73922C983.499 6.73922 984.018 32.7401 985.464 38.9621C985.574 39.4636 986.186 39.6674 986.595 39.3382L992.252 34.6051C992.032 35.7962 988.983 7.46016 990.02 2.60165C990.178 1.86504 990.115 1.34784 989.502 1.34784Z" fill="white"/>
<path d="M980.624 42.8175L972.767 51.9077L971.887 51.2807L966.89 31.0004L960.778 39.589C960.778 39.589 956.158 39.5106 949.778 34.417C949.778 34.417 952.654 43.3191 954.036 44.8236L946.557 53.1615C946.557 53.1615 938.826 34.8715 936.94 11.9582L943.681 3.49499H945.3C945.3 3.49499 952.167 25.1545 962.647 31.0004C962.647 31.0004 964.015 17.8041 961.768 9.34087L970.253 0L971.871 1.00305C971.871 1.00305 972.123 11.5821 974.873 21.5342C977.638 31.4863 978.754 42.1906 980.624 42.8175Z" fill="white"/>
</svg>
