<svg width="907" height="463" viewBox="0 0 907 463" fill="none" xmlns="http://www.w3.org/2000/svg">
<g clip-path="url(#clip0_8_1007)">
<path d="M50.6761 339.265C49.7176 336.397 48.4291 332.808 46.8263 328.498H22.7375L18.9662 339.265H0L21.1504 284.583H48.9319L70.2237 339.265H50.6761ZM42.5208 316.743C40.6037 311.477 38.6395 306.195 36.6282 300.929L34.8212 296.04C33.0612 300.616 30.4685 307.512 27.043 316.759H42.5208V316.743Z" fill="white"/>
<path d="M91.1383 324.047C105.736 323.952 117.82 323.702 127.389 323.294C126.729 325.849 126.337 328.309 126.179 330.676C126.022 333.043 125.959 335.895 125.959 339.265H72.722C73.1306 329.532 73.3192 320.41 73.3192 311.932C73.3192 303.453 73.1149 294.331 72.722 284.599H91.1383V324.047Z" fill="white"/>
<path d="M174.357 284.505H193.088V314.486C192.993 321.868 190.464 327.965 185.498 332.792C180.533 337.619 172.189 340.017 160.466 340.017C148.587 340.017 140.447 337.713 136.079 333.121C131.695 328.529 129.558 322.495 129.668 315.003V284.505H148.399V313.797C148.399 316.006 148.556 317.809 148.886 319.188C149.216 320.567 150.268 321.868 152.06 323.059C153.851 324.266 156.727 324.861 160.702 324.861C165.039 324.861 168.198 324.25 170.225 323.012C172.236 321.79 173.43 320.41 173.807 318.906C174.184 317.401 174.373 315.474 174.373 313.107V284.505H174.357Z" fill="white"/>
<path d="M269.738 284.583L275.631 339.265H256.068L254.858 300.256L247.299 339.265H227.532L219.832 300.553L218.701 339.265H199.138L205.03 284.583H230.706L237.274 320.207L243.01 284.583H269.738Z" fill="white"/>
<path d="M343.136 322.996C343.136 326.413 342.35 329.313 340.795 331.695C339.239 334.077 336.442 335.942 332.419 337.274C328.397 338.606 322.803 339.265 315.653 339.265H281.665C282.073 329.532 282.262 320.41 282.262 311.932C282.262 303.453 282.058 294.331 281.665 284.599H299.405V284.677H315.496C321.734 284.677 326.653 285.194 330.267 286.229C333.865 287.263 336.411 288.752 337.888 290.711C339.365 292.67 340.119 295.162 340.119 298.171C340.119 301.227 339.051 303.954 336.914 306.336C334.776 308.719 331.115 310.646 325.93 312.104C337.401 312.073 343.136 315.724 343.136 322.996ZM299.405 298.375V305.38H313.909C317.036 305.38 319.204 305.098 320.446 304.55C321.671 304.001 322.3 302.998 322.3 301.541C322.3 300.381 321.656 299.566 320.367 299.096C319.079 298.626 316.926 298.375 313.909 298.375H299.405ZM313.909 325.488C316.533 325.488 318.529 325.379 319.911 325.144C321.294 324.924 322.284 324.517 322.897 323.937C323.494 323.357 323.808 322.573 323.808 321.57C323.808 320.269 323.086 319.329 321.656 318.749C320.226 318.169 317.633 317.887 313.909 317.887H299.405V325.488H313.909Z" fill="white"/>
<path d="M406.603 313.891C404.466 316.9 400.805 319.094 395.619 320.442C396.217 321.241 396.656 321.868 396.908 322.323L409.149 339.265H388.595C386.38 335.143 382.876 329.328 378.099 321.79H367.005V339.265H349.186C349.594 329.532 349.783 320.41 349.783 311.932C349.783 303.453 349.579 294.331 349.186 284.599H367.005V284.677H382.483C392.65 284.677 399.752 286.307 403.775 289.567C407.797 292.827 409.809 297.246 409.809 302.826C409.809 307.183 408.74 310.866 406.603 313.891ZM367.005 299.127V307.716H377.203C381.477 307.716 384.714 307.575 386.914 307.308C389.098 307.026 390.622 306.587 391.487 305.992C392.335 305.396 392.775 304.518 392.775 303.359C392.775 302.262 392.367 301.4 391.565 300.804C390.764 300.209 389.255 299.77 387.04 299.519C384.824 299.268 381.556 299.143 377.219 299.143H367.005V299.127Z" fill="white"/>
<path d="M458.976 339.265C458.018 336.397 456.729 332.808 455.126 328.498H431.037L427.266 339.265H408.316L429.466 284.583H457.263L478.555 339.265H458.976ZM450.821 316.743C448.904 311.477 446.94 306.195 444.928 300.929L443.121 296.04C441.361 300.616 438.768 307.512 435.343 316.759H450.821V316.743Z" fill="white"/>
<path d="M527.613 287.185C533.097 289.473 536.931 292.639 539.131 296.682C541.315 300.726 542.415 305.678 542.415 311.555C542.415 317.135 541.158 321.993 538.644 326.162C536.129 330.331 532.342 333.56 527.314 335.848C522.286 338.136 516.095 339.28 508.741 339.28C504.262 339.28 499.705 339.28 495.07 339.28C490.435 339.28 485.752 339.249 481.022 339.202C481.431 329.313 481.619 320.097 481.619 311.555C481.619 302.92 481.415 293.908 481.022 284.52C487.009 284.019 495.07 283.768 505.19 283.768C514.649 283.752 522.129 284.896 527.613 287.185ZM510.846 324.282C515.529 324.282 518.656 323.153 520.212 320.896C521.767 318.639 522.553 315.521 522.553 311.555C522.553 307.747 521.736 304.66 520.102 302.293C518.467 299.926 515.388 298.751 510.846 298.751C505.959 298.751 502.314 298.908 499.894 299.205V324.282H510.846Z" fill="white"/>
<path d="M556.62 332.525C551.183 327.526 548.465 320.505 548.465 311.477C548.465 302.544 551.167 295.554 556.588 290.539C561.994 285.523 570.495 283 582.076 283C593.704 283 602.22 285.508 607.642 290.539C613.047 295.554 615.766 302.544 615.766 311.477C615.766 320.567 613.079 327.589 607.689 332.572C602.299 337.541 593.767 340.033 582.091 340.033C570.526 340.017 562.057 337.525 556.62 332.525ZM594.144 321.461C596.611 319.329 597.836 316.006 597.836 311.477C597.836 307.057 596.595 303.766 594.144 301.603C591.677 299.441 587.654 298.359 582.06 298.359C576.529 298.359 572.522 299.441 570.055 301.603C567.588 303.766 566.362 307.057 566.362 311.477C566.362 315.944 567.588 319.266 570.055 321.414C572.522 323.576 576.529 324.658 582.06 324.658C587.654 324.658 591.677 323.592 594.144 321.461Z" fill="white"/>
<path d="M654.704 325.488C673.827 325.394 687.702 325.112 696.313 324.658C695.967 326.711 695.747 328.842 695.669 331.021C695.59 333.199 695.559 335.958 695.559 339.265H636.884C637.293 329.532 637.482 320.41 637.482 311.932C637.482 303.453 637.277 294.331 636.884 284.599H695.559V298.234H654.704V305.459C657.123 305.506 660.69 305.537 665.42 305.537C673.418 305.537 681.699 305.38 690.263 305.083V318.044C681.699 317.746 673.418 317.589 665.42 317.589C660.69 317.589 657.108 317.621 654.704 317.668V325.488Z" fill="white"/>
<path d="M765.704 284.661C765.358 293.14 765.17 302.23 765.17 311.932C765.17 321.68 765.343 330.786 765.704 339.265H738.677L720.402 298.14L721.769 339.265H702.363C702.771 329.532 702.96 320.41 702.96 311.932C702.96 303.5 702.756 294.41 702.363 284.661H730.16L748.514 326.915L747.225 284.661H765.704Z" fill="white"/>
<path d="M804.674 325.488C823.797 325.394 837.672 325.112 846.283 324.658C845.937 326.711 845.717 328.842 845.639 331.021C845.56 333.199 845.529 335.958 845.529 339.265H786.854C787.263 329.532 787.451 320.41 787.451 311.932C787.451 303.453 787.247 294.331 786.854 284.599H845.529V298.234H804.674V305.459C807.093 305.506 810.66 305.537 815.39 305.537C823.388 305.537 831.669 305.38 840.233 305.083V318.044C831.669 317.746 823.388 317.589 815.39 317.589C810.66 317.589 807.078 317.621 804.674 317.668V325.488Z" fill="white"/>
<path d="M870.749 324.047C885.347 323.952 897.431 323.702 907 323.294C906.34 325.849 905.947 328.309 905.79 330.676C905.633 333.043 905.57 335.895 905.57 339.265H852.333C852.741 329.532 852.93 320.41 852.93 311.932C852.93 303.453 852.726 294.331 852.333 284.599H870.765V324.047H870.749Z" fill="white"/>
<path d="M11.8952 401.908C6.0026 396.626 3.04846 389.104 3.04846 379.308C3.04846 369.466 6.0026 361.692 11.8952 355.972C17.7877 350.251 26.9644 347.399 39.4253 347.399C56.8358 347.399 68.4953 353.37 74.4035 365.297C69.4381 367.005 63.6241 369.56 56.9615 372.961C55.3588 369.889 52.8446 367.601 49.4033 366.112C45.9621 364.623 42.4422 363.886 38.8596 363.886C33.5641 363.886 29.62 365.281 27.043 368.055C24.4503 370.829 23.1618 374.262 23.1618 378.321C23.1618 382.725 24.5603 386.314 27.3416 389.088C30.1228 391.862 34.3812 393.257 40.1166 393.257C44.6893 393.257 48.3348 392.505 51.0375 390.984C53.7403 389.48 55.7202 387.066 56.993 383.775C61.5185 386.188 67.301 388.915 74.3564 391.94C71.6065 398.585 67.0025 403.24 60.5442 405.873C54.1017 408.506 47.062 409.838 39.4567 409.838C26.9801 409.838 17.8035 407.19 11.8952 401.908Z" fill="white"/>
<path d="M100.535 393.915C121.481 393.805 136.66 393.507 146.089 393.006C145.696 395.263 145.476 397.582 145.381 399.98C145.303 402.378 145.256 405.387 145.256 409.008H81.0189C81.4589 398.35 81.6789 388.367 81.6789 379.073C81.6789 369.779 81.4589 359.811 81.0189 349.138H145.256V364.059H100.535V371.973C103.175 372.036 107.088 372.052 112.273 372.052C121.041 372.052 130.108 371.879 139.473 371.55V385.734C130.108 385.405 121.041 385.232 112.273 385.232C107.088 385.232 103.175 385.264 100.535 385.311V393.915Z" fill="white"/>
<path d="M222.064 349.217C221.671 358.511 221.482 368.463 221.482 379.073C221.482 389.746 221.671 399.714 222.064 409.008H192.459L172.456 363.98L173.949 409.008H152.704C153.144 398.35 153.364 388.367 153.364 379.073C153.364 369.842 153.144 359.89 152.704 349.217H183.125L203.223 395.482L201.825 349.217H222.064Z" fill="white"/>
<path d="M299.704 366.457C291.046 366.175 282.639 366.018 274.484 365.955V409.008H253.82V365.955C245.602 366.018 237.227 366.175 228.679 366.457V349.138H299.704V366.457Z" fill="white"/>
<path d="M369.189 381.22C366.848 384.511 362.841 386.909 357.153 388.398C357.812 389.276 358.284 389.965 358.551 390.467L371.939 409.023H349.469C347.049 404.51 343.215 398.131 337.982 389.887H325.836V409.023H306.319C306.759 398.366 306.979 388.383 306.979 379.089C306.979 369.795 306.759 359.827 306.319 349.154H325.836V349.232H342.79C353.931 349.232 361.694 351.019 366.109 354.592C370.525 358.166 372.725 363.009 372.725 369.105C372.709 373.87 371.53 377.913 369.189 381.22ZM325.82 365.046V374.45H336.976C341.659 374.45 345.21 374.293 347.599 373.995C350.003 373.697 351.669 373.211 352.596 372.553C353.538 371.895 353.994 370.939 353.994 369.669C353.994 368.463 353.554 367.522 352.674 366.864C351.794 366.206 350.144 365.736 347.709 365.469C345.289 365.187 341.706 365.062 336.961 365.062H325.82V365.046Z" fill="white"/>
<path d="M388.25 401.626C382.294 396.156 379.324 388.477 379.324 378.572C379.324 368.792 382.294 361.144 388.218 355.643C394.142 350.141 403.445 347.399 416.126 347.399C428.853 347.399 438.187 350.141 444.111 355.643C450.035 361.144 453.005 368.776 453.005 378.572C453.005 388.524 450.051 396.219 444.158 401.657C438.266 407.096 428.916 409.823 416.126 409.823C403.492 409.838 394.205 407.096 388.25 401.626ZM429.341 389.511C432.043 387.176 433.395 383.54 433.395 378.587C433.395 373.744 432.043 370.155 429.341 367.789C426.638 365.422 422.238 364.247 416.11 364.247C410.044 364.247 405.66 365.422 402.958 367.789C400.255 370.155 398.904 373.76 398.904 378.587C398.904 383.477 400.255 387.113 402.958 389.48C405.66 391.846 410.044 393.022 416.11 393.022C422.222 393.006 426.638 391.846 429.341 389.511Z" fill="white"/>
<path d="M527.141 351.991C533.144 354.498 537.355 357.962 539.744 362.382C542.148 366.801 543.342 372.24 543.342 378.666C543.342 384.762 541.959 390.106 539.209 394.667C536.459 399.228 532.311 402.77 526.811 405.262C521.296 407.77 514.523 409.008 506.478 409.008C501.575 409.008 496.579 409.008 491.519 409.008C486.443 409.008 481.321 408.976 476.135 408.929C476.575 398.1 476.795 388.006 476.795 378.666C476.795 369.215 476.575 359.341 476.135 349.06C482.688 348.511 491.519 348.229 502.597 348.229C512.952 348.229 521.139 349.483 527.141 351.991ZM508.788 392.598C513.911 392.598 517.336 391.36 519.033 388.884C520.746 386.408 521.594 383.007 521.594 378.666C521.594 374.481 520.699 371.111 518.907 368.525C517.116 365.939 513.738 364.654 508.772 364.654C503.43 364.654 499.423 364.827 496.783 365.156V392.614H508.788V392.598Z" fill="white"/>
<path d="M569.474 393.915C590.42 393.805 605.599 393.507 615.027 393.006C614.634 395.263 614.414 397.582 614.32 399.98C614.241 402.378 614.194 405.387 614.194 409.008H549.957C550.397 398.35 550.617 388.367 550.617 379.073C550.617 369.779 550.397 359.811 549.957 349.138H614.194V364.059H569.458V371.973C572.098 372.036 576.01 372.052 581.196 372.052C589.964 372.052 599.031 371.879 608.396 371.55V385.734C599.031 385.405 589.964 385.232 581.196 385.232C576.01 385.232 572.098 385.264 569.458 385.311V393.915H569.474Z" fill="white"/>
<path d="M647.02 401.908C641.127 396.626 638.173 389.104 638.173 379.308C638.173 369.466 641.127 361.692 647.02 355.972C652.913 350.251 662.089 347.399 674.55 347.399C691.961 347.399 703.62 353.37 709.528 365.297C704.563 367.005 698.749 369.56 692.086 372.961C690.484 369.889 687.969 367.601 684.528 366.112C681.087 364.623 677.567 363.886 673.984 363.886C668.689 363.886 664.745 365.281 662.168 368.055C659.575 370.829 658.287 374.262 658.287 378.321C658.287 382.725 659.685 386.314 662.466 389.088C665.248 391.862 669.506 393.257 675.242 393.257C679.814 393.257 683.46 392.505 686.162 390.984C688.865 389.48 690.845 387.066 692.118 383.775C696.643 386.188 702.426 388.915 709.481 391.94C706.731 398.585 702.127 403.24 695.669 405.873C689.227 408.506 682.187 409.838 674.582 409.838C662.105 409.838 652.928 407.19 647.02 401.908Z" fill="white"/>
<path d="M768.313 409.008C767.26 405.873 765.861 401.939 764.101 397.222H737.734L733.601 409.008H712.844L735.99 349.138H766.411L789.73 409.008H768.313ZM759.387 384.355C757.297 378.587 755.145 372.804 752.945 367.036L750.965 361.676C749.032 366.676 746.204 374.246 742.448 384.355H759.387Z" fill="white"/>
<path d="M812.625 392.348C828.605 392.238 841.836 391.956 852.317 391.517C851.594 394.323 851.154 397.018 850.997 399.604C850.824 402.19 850.745 405.325 850.745 409.008H792.464C792.904 398.35 793.124 388.367 793.124 379.073C793.124 369.779 792.904 359.811 792.464 349.138H812.64V392.348H812.625Z" fill="white"/>
<path d="M906.969 365.548C900.416 365.219 895.561 365.03 892.418 364.968V393.163C895.608 393.116 900.463 392.912 906.969 392.583V408.992H858.932V392.583C865.265 392.912 870.089 393.1 873.405 393.163V364.968C870.105 365.03 865.281 365.219 858.932 365.548V349.138H906.969V365.548Z" fill="white"/>
<path d="M430.362 130.412C430.362 130.412 440.246 132.292 441.189 144.956C442.131 157.619 442.603 169.358 434.605 173.59C434.605 173.59 441.189 174.53 440.717 183.448C440.246 192.366 432.248 192.836 432.248 192.836L485.894 190.955L484.951 169.358C484.951 169.358 485.894 175.925 476.953 177.806C468.012 179.686 457.656 181.097 455.299 174.985C452.942 168.888 466.597 167.477 476.01 171.693C476.01 171.693 477.424 171.693 477.895 167.007C478.367 162.321 477.424 154.328 477.424 154.328C477.424 154.328 470.369 159.955 462.37 159.955C454.372 159.955 453.429 153.388 453.901 149.156C454.372 144.925 466.613 132.731 479.781 142.119L479.31 124.754L430.362 130.412Z" fill="white"/>
<path d="M444.472 115.476L466.801 115.162C466.801 115.162 452.785 105.006 460.626 95.4148C460.626 95.4148 457.106 93.5341 456.43 85.0709C455.755 76.592 447.254 60.3395 442.854 58.0043C438.454 55.6691 427.659 58.9446 427.659 58.9446C427.659 58.9446 435.296 56.9229 433.269 66.2167C431.242 75.5106 427.706 91.0108 427.706 91.0108C427.706 91.0108 427.109 96.7783 420.839 97.5149C420.839 97.5149 426.59 99.4427 424.626 106.072C422.662 112.702 417.712 114.347 417.712 114.347L438.203 115.774C438.203 115.774 433.347 113.423 435.327 106.354C437.291 99.2859 449.752 100.947 449.139 107.608C448.527 114.269 444.472 115.476 444.472 115.476ZM436.553 94.3334L442.037 72.2193L446.829 93.7222L436.553 94.3334Z" fill="white"/>
<path d="M591.3 154.814C591.3 154.814 584.025 153.764 582.359 141.68C580.615 129.017 581.526 119.112 564.477 123.375C564.477 123.375 551.309 127.136 551.309 146.837C551.309 166.051 544.16 167.869 543.798 167.948C544.112 167.885 549.973 166.819 552.723 176.395C555.552 186.253 559.307 189.529 568.72 189.074C578.132 188.604 587.545 182.037 586.602 169.358C585.659 156.695 591.3 154.814 591.3 154.814ZM574.125 167.713C573.654 173.809 572.24 177.571 568.484 178.041C564.713 178.511 565.656 174.279 565.184 167.713C564.713 161.146 560.942 162.556 560.942 162.556C562.827 161.146 563.299 154.579 563.299 154.579C562.356 135.333 567.541 136.273 567.541 136.273C574.125 135.333 572.711 143.31 572.24 149.877C571.768 156.444 577.409 158.795 577.409 158.795C573.654 161.616 574.597 161.616 574.125 167.713Z" fill="white"/>
<path d="M401.339 78.7705L419.991 75.6673C419.991 75.6673 411.993 72.1253 412.449 66.3735C412.889 60.6216 407.562 56.1863 397.804 57.0796C388.03 57.9729 380.927 60.6216 380.487 79.225C380.047 97.8284 376.04 98.706 376.04 98.706C376.04 98.706 383.143 100.038 383.143 108C383.143 115.977 396.908 117.294 405.786 114.645C414.664 111.981 416.44 108 416.88 102.248C417.32 96.4962 423.102 93.8319 423.102 93.8319L403.13 94.7252C403.13 94.7252 406.242 103.58 400.459 105.351C394.692 107.122 389.365 96.935 390.245 90.2899C391.141 83.6447 388.03 72.141 396.908 69.9155C405.77 67.7056 401.339 78.7705 401.339 78.7705Z" fill="white"/>
<path d="M530.913 56.6408L509.558 57.3931C509.558 57.3931 513.533 60.2768 514.759 69.5393C515.985 78.8018 516.786 93.3147 509.904 94.9289C509.904 94.9289 517.588 97.75 517.179 105.006C516.77 112.263 516.378 113.877 512.324 115.883L535.768 115.476C535.768 115.476 529.106 112.043 529.498 102.781C529.907 93.5184 534.747 93.9102 534.747 93.9102C534.747 93.9102 530.3 93.9102 529.09 83.8327C527.88 73.7553 527.471 66.0913 527.471 66.0913C527.471 66.0913 527.079 58.8506 530.913 56.6408Z" fill="white"/>
<path d="M420.179 125.334L396.012 126.18C396.012 126.18 400.522 129.44 401.889 139.925C403.256 150.41 404.167 166.819 396.405 168.653C396.405 168.653 405.094 171.85 404.639 180.047C404.183 188.244 403.727 190.077 399.155 192.35L425.663 191.895C425.663 191.895 418.121 188.024 418.577 177.539C419.032 167.054 424.516 167.509 424.516 167.509C424.516 167.509 419.488 167.509 418.121 156.115C416.754 144.721 416.298 136.054 416.298 136.054C416.298 136.054 415.842 127.841 420.179 125.334Z" fill="white"/>
<path d="M396.012 126.18C396.012 126.18 380.063 121.494 374.359 131.807C368.655 142.135 358.41 177.335 358.41 177.335L338.296 134.157C338.296 134.157 334.871 124.77 321.2 129.471C321.2 129.471 323.856 129.942 328.036 139.8C332.215 149.658 338.296 166.083 338.296 166.083C338.296 166.083 340.575 169.374 338.296 173.12C338.296 173.12 344.755 173.59 346.279 179.216C347.803 184.843 352.36 193.29 356.917 192.82C361.474 192.35 365.277 192.35 365.277 191.409C365.277 190.469 369.079 171.223 375.538 170.753C375.538 170.753 372.882 167.462 375.16 161.835C377.439 156.209 384.997 130.882 396.012 126.18Z" fill="white"/>
<path d="M483.929 57.3774H463.8C463.8 57.3774 470.023 59.1954 471.123 67.9721C472.223 76.733 475.145 90.9794 468.2 97.9067C468.2 97.9067 473.684 100.101 474.423 105.571C475.161 111.04 468.939 116.165 468.939 116.165L509.574 114.708V95.7282C509.574 95.7282 498.779 105.398 486.695 106.135C486.695 106.135 481.572 97.3739 489.256 94.8192C489.256 94.8192 483.772 91.528 483.772 86.7792C483.772 82.0304 482.672 68.5676 482.672 67.0631C482.657 65.6055 481.918 63.4113 483.929 57.3774Z" fill="white"/>
<path d="M533.898 122.889L492.493 124.77L494.379 144.956C494.379 144.956 498.15 134.628 511.318 136.038C524.486 137.449 524.486 146.366 523.087 155.284C521.673 164.202 517.446 163.261 517.446 163.261C517.446 163.261 524.03 162.791 523.559 171.239C523.087 179.686 518.861 181.097 513.204 181.567C507.563 182.037 501.906 179.216 502.377 162.791C502.377 162.791 500.491 159.03 485.909 162.321C485.909 162.321 492.022 164.202 492.965 177.335C493.907 190.469 504.734 195.171 516.488 194.231C528.257 193.29 537.198 186.723 537.198 171.709C537.198 156.695 542.368 158.575 542.368 158.575C542.368 158.575 536.255 160.456 535.313 145.896C534.354 131.336 536.711 124.299 533.898 122.889Z" fill="white"/>
<path d="M370.163 83.4566C370.163 83.4566 375.962 96.1671 358.787 97.703C341.612 99.2389 314.962 96.0887 306.602 113.579C306.602 113.579 304.874 95.2424 330.33 91.1205C355.786 86.9986 363.061 93.299 370.163 83.4566Z" fill="white"/>
<path d="M372.725 99.1919C372.725 99.1919 378.523 111.902 361.348 113.438C344.173 114.974 317.523 111.824 309.163 129.315C309.163 129.315 307.435 110.978 332.891 106.856C358.362 102.75 365.606 109.019 372.725 99.1919Z" fill="white"/>
<path d="M545.306 83.2529C545.306 83.2529 542.572 95.885 557.971 95.885C578.776 95.885 593.248 94.0826 595.055 111.213C595.055 111.213 585.109 99.4897 561.586 101.292C538.078 103.11 537.167 85.9642 545.306 83.2529Z" fill="white"/>
<path d="M593.248 118.438C593.248 118.438 595.055 107.608 578.776 107.608C562.497 107.608 543.499 111.213 540.796 99.4897C540.796 99.4897 530.85 110.319 550.743 113.015C570.636 115.726 583.302 109.41 593.248 118.438Z" fill="white"/>
<path d="M480.079 1.34784L474.077 6.73922C474.077 6.73922 474.595 32.7401 476.041 38.9621C476.151 39.4636 476.764 39.6674 477.172 39.3382L482.829 34.6051C482.609 35.7962 479.561 7.46016 480.598 2.60165C480.755 1.86504 480.692 1.34784 480.079 1.34784Z" fill="white"/>
<path d="M471.201 42.8175L463.344 51.9076L462.465 51.2808L457.468 31.0004L451.355 39.589C451.355 39.589 446.735 39.5106 440.356 34.417C440.356 34.417 443.231 43.3191 444.614 44.8236L437.134 53.1615C437.134 53.1615 429.403 34.8715 427.518 11.9582L434.259 3.49499H435.877C435.877 3.49499 442.744 25.1545 453.225 31.0004C453.225 31.0004 454.592 17.8041 452.345 9.34087L460.83 0L462.449 1.00305C462.449 1.00305 462.7 11.5821 465.45 21.5342C468.216 31.4863 469.331 42.1906 471.201 42.8175Z" fill="white"/>
</g>
<defs>
<clipPath id="clip0_8_1007">
<rect width="907" height="463" fill="white"/>
</clipPath>
</defs>
</svg>
