<svg width="1920" height="611" viewBox="0 0 1920 611" fill="none" xmlns="http://www.w3.org/2000/svg">
<path d="M-423 469.025C-423 469.025 -328.203 676.494 371.24 391.87C1070.68 107.245 1493.78 -30.6909 1752.61 159.619C2011.43 349.93 1657.33 574.334 1476.06 556.91C1294.79 539.486 1264.63 466.009 1264.67 422.805C1264.7 379.602 1273.51 154.932 1765.45 302.212C2257.39 449.492 2154.1 51.9056 2076.45 0C2076.45 0 2318.16 0.183404 2274.79 268.036C2231.42 535.889 1748.13 379.968 1601.4 353.934C1454.67 327.9 1325.13 388.283 1333.73 440.138C1342.32 491.992 1385.46 526.596 1532.21 518.067C1678.96 509.539 1920.88 250.49 1636.09 146.566C1351.3 42.6433 764.038 361.923 591.341 430.926C418.643 499.93 -159.943 775.995 -423 469.025Z" fill="#E2BE24"/>
</svg>
