<svg width="375" height="352" viewBox="0 0 375 352" fill="none" xmlns="http://www.w3.org/2000/svg">
<g clip-path="url(#clip0_7_389)">
<path d="M-716 270.209C-716 270.209 -661.394 389.734 -258.497 225.759C144.4 61.7848 388.118 -17.6813 537.206 91.958C686.295 201.597 482.325 330.879 377.909 320.84C273.494 310.802 256.121 268.472 256.144 243.582C256.162 218.692 261.234 89.2577 544.606 174.107C827.977 258.956 768.476 29.9032 723.75 0C723.75 0 862.982 0.105661 837.998 154.418C813.014 308.73 534.626 218.903 450.105 203.904C365.585 188.906 290.967 223.693 295.922 253.567C300.87 283.441 325.719 303.376 410.252 298.463C494.784 293.55 634.134 144.309 470.088 84.4382C306.042 24.5671 -32.2348 208.507 -131.713 248.26C-231.191 288.014 -564.472 447.058 -716 270.209Z" fill="#E2BE24"/>
</g>
<defs>
<clipPath id="clip0_7_389">
<rect width="402" height="352" fill="white" transform="translate(-15)"/>
</clipPath>
</defs>
</svg>
