<svg width="1920" height="863" viewBox="0 0 1920 863" fill="none" xmlns="http://www.w3.org/2000/svg">
<g opacity="0.5" clip-path="url(#clip0_8_1062)">
<path opacity="0.65" d="M1892.78 96.487C1855.99 96.487 1836.9 77.6864 1821.55 62.5673C1808.38 49.5928 1798.86 40.2104 1778.54 40.2104C1758.22 40.2104 1748.7 49.5928 1735.53 62.5673C1720.2 77.6864 1701.11 96.487 1664.3 96.487C1627.51 96.487 1608.42 77.6864 1593.09 62.5673C1579.92 49.5928 1570.4 40.2104 1550.08 40.2104C1529.76 40.2104 1520.24 49.5928 1507.07 62.5673C1491.74 77.6864 1472.65 96.487 1435.86 96.487C1399.07 96.487 1379.98 77.6864 1364.65 62.5673C1351.48 49.5928 1341.95 40.2104 1321.64 40.2104C1301.32 40.2104 1291.8 49.5928 1278.63 62.5673C1263.29 77.6864 1244.21 96.487 1207.42 96.487C1170.62 96.487 1151.54 77.6864 1136.21 62.5673C1123.04 49.5928 1113.51 40.2104 1093.19 40.2104C1072.88 40.2104 1063.35 49.5928 1050.18 62.5673C1034.85 77.6864 1015.77 96.487 978.973 96.487C942.18 96.487 923.096 77.6864 907.764 62.5673C894.594 49.5928 885.07 40.2104 864.752 40.2104C844.435 40.2104 834.91 49.5928 821.74 62.5673C806.408 77.6864 787.324 96.487 750.531 96.487C713.738 96.487 694.653 77.6864 679.321 62.5673C666.151 49.5928 656.627 40.2104 636.31 40.2104C615.992 40.2104 606.468 49.5928 593.298 62.5673C577.966 77.6864 558.881 96.487 522.088 96.487C485.295 96.487 466.211 77.6864 450.879 62.5673C437.709 49.5928 428.185 40.2104 407.867 40.2104C387.55 40.2104 378.025 49.5928 364.855 62.5673C349.523 77.6864 330.439 96.487 293.646 96.487C256.853 96.487 237.768 77.6864 222.436 62.5673C209.266 49.5928 199.742 40.2104 179.425 40.2104C159.107 40.2104 149.601 49.5928 136.413 62.5673C121.081 77.6864 101.996 96.487 65.2034 96.487C28.4103 96.487 9.32574 77.6864 -6.00621 62.5673C-19.176 49.5749 -28.6825 40.1925 -49 40.1925V0C-12.2069 0 6.87762 18.8006 22.2096 33.9197C35.3793 46.8942 44.9037 56.2766 65.2212 56.2766C85.5387 56.2766 95.0453 46.8942 108.233 33.9197C123.565 18.8006 142.649 0 179.442 0C216.236 0 235.32 18.8006 250.652 33.9197C263.822 46.8942 273.346 56.2766 293.664 56.2766C313.981 56.2766 323.506 46.8942 336.675 33.9197C352.007 18.8006 371.092 0 407.885 0C444.678 0 463.763 18.8006 479.094 33.9197C492.264 46.8942 501.789 56.2766 522.106 56.2766C542.424 56.2766 551.948 46.8942 565.118 33.9197C580.45 18.8006 599.534 0 636.327 0C673.12 0 692.205 18.8006 707.537 33.9197C720.707 46.8942 730.231 56.2766 750.549 56.2766C770.866 56.2766 780.391 46.8942 793.56 33.9197C808.892 18.8006 827.977 0 864.77 0C901.563 0 920.648 18.8006 935.979 33.9197C949.149 46.8942 958.674 56.2766 978.991 56.2766C999.309 56.2766 1008.83 46.8942 1022 33.9197C1037.33 18.8006 1056.42 0 1093.21 0C1130.01 0 1149.09 18.8006 1164.42 33.9197C1177.59 46.8942 1187.12 56.2766 1207.43 56.2766C1227.75 56.2766 1237.28 46.8942 1250.45 33.9197C1265.78 18.8006 1284.86 0 1321.65 0C1358.45 0 1377.53 18.8006 1392.86 33.9197C1406.03 46.8942 1415.56 56.2766 1435.88 56.2766C1456.19 56.2766 1465.72 46.8942 1478.89 33.9197C1494.22 18.8006 1513.3 0 1550.1 0C1586.89 0 1605.97 18.8006 1621.31 33.9197C1634.48 46.8942 1644 56.2766 1664.32 56.2766C1684.64 56.2766 1694.16 46.8942 1707.33 33.9197C1722.66 18.8006 1741.75 0 1778.54 0C1815.33 0 1834.42 18.8006 1849.77 33.9197C1862.94 46.8942 1872.46 56.2766 1892.78 56.2766C1913.1 56.2766 1922.62 46.8942 1935.79 33.9197C1951.12 18.8006 1970.21 0 2007 0V40.1925C1986.68 40.1925 1977.16 49.5749 1963.99 62.5495C1948.66 77.6686 1929.57 96.487 1892.78 96.487Z" fill="#594C9A"/>
<path opacity="0.65" d="M1892.78 197.192C1855.99 197.192 1836.9 178.391 1821.55 163.272C1808.38 150.297 1798.86 140.915 1778.54 140.915C1758.22 140.915 1748.7 150.297 1735.53 163.272C1720.2 178.391 1701.11 197.192 1664.3 197.192C1627.51 197.192 1608.42 178.391 1593.09 163.272C1579.92 150.297 1570.4 140.915 1550.08 140.915C1529.76 140.915 1520.24 150.297 1507.07 163.272C1491.74 178.391 1472.65 197.192 1435.86 197.192C1399.07 197.192 1379.98 178.391 1364.65 163.272C1351.48 150.297 1341.95 140.915 1321.64 140.915C1301.32 140.915 1291.8 150.297 1278.63 163.272C1263.29 178.391 1244.21 197.192 1207.42 197.192C1170.62 197.192 1151.54 178.391 1136.21 163.272C1123.04 150.297 1113.51 140.915 1093.19 140.915C1072.88 140.915 1063.35 150.297 1050.18 163.272C1034.85 178.391 1015.77 197.192 978.973 197.192C942.18 197.192 923.096 178.391 907.764 163.272C894.594 150.297 885.07 140.915 864.752 140.915C844.435 140.915 834.91 150.297 821.74 163.272C806.408 178.391 787.324 197.192 750.531 197.192C713.738 197.192 694.653 178.391 679.321 163.272C666.151 150.297 656.627 140.915 636.31 140.915C615.992 140.915 606.468 150.297 593.298 163.272C577.966 178.391 558.881 197.192 522.088 197.192C485.295 197.192 466.211 178.391 450.879 163.272C437.709 150.297 428.185 140.915 407.867 140.915C387.55 140.915 378.025 150.297 364.855 163.272C349.523 178.391 330.439 197.192 293.646 197.192C256.853 197.192 237.768 178.391 222.436 163.272C209.266 150.297 199.742 140.915 179.425 140.915C159.107 140.915 149.601 150.297 136.413 163.272C121.081 178.391 101.996 197.192 65.2034 197.192C28.4103 197.192 9.32574 178.391 -6.00621 163.272C-19.176 150.297 -28.6825 140.915 -49 140.915V100.705C-12.2069 100.705 6.87762 119.505 22.2096 134.624C35.3793 147.599 44.9037 156.981 65.2212 156.981C85.5387 156.981 95.0453 147.599 108.233 134.624C123.565 119.505 142.649 100.705 179.442 100.705C216.236 100.705 235.32 119.505 250.652 134.624C263.822 147.599 273.346 156.981 293.664 156.981C313.981 156.981 323.506 147.599 336.675 134.624C352.007 119.505 371.092 100.705 407.885 100.705C444.678 100.705 463.763 119.505 479.094 134.624C492.264 147.599 501.789 156.981 522.106 156.981C542.424 156.981 551.948 147.599 565.118 134.624C580.45 119.505 599.534 100.705 636.327 100.705C673.12 100.705 692.205 119.505 707.537 134.624C720.707 147.599 730.231 156.981 750.549 156.981C770.866 156.981 780.391 147.599 793.56 134.624C808.892 119.505 827.977 100.705 864.77 100.705C901.563 100.705 920.648 119.505 935.979 134.624C949.149 147.599 958.674 156.981 978.991 156.981C999.309 156.981 1008.83 147.599 1022 134.624C1037.33 119.505 1056.42 100.705 1093.21 100.705C1130.01 100.705 1149.09 119.505 1164.42 134.624C1177.59 147.599 1187.12 156.981 1207.43 156.981C1227.75 156.981 1237.28 147.599 1250.45 134.624C1265.78 119.505 1284.86 100.705 1321.65 100.705C1358.45 100.705 1377.53 119.505 1392.86 134.624C1406.03 147.599 1415.56 156.981 1435.88 156.981C1456.19 156.981 1465.72 147.599 1478.89 134.624C1494.22 119.505 1513.3 100.705 1550.1 100.705C1586.89 100.705 1605.97 119.505 1621.31 134.624C1634.48 147.599 1644 156.981 1664.32 156.981C1684.64 156.981 1694.16 147.599 1707.33 134.624C1722.66 119.505 1741.75 100.705 1778.54 100.705C1815.33 100.705 1834.42 119.505 1849.77 134.624C1862.94 147.599 1872.46 156.981 1892.78 156.981C1913.1 156.981 1922.62 147.599 1935.79 134.624C1951.12 119.505 1970.22 100.705 2007.02 100.705V140.897C1986.7 140.897 1977.18 150.28 1964.01 163.254C1948.66 178.373 1929.57 197.192 1892.78 197.192Z" fill="#594C9A"/>
<path opacity="0.65" d="M1892.78 297.896C1855.99 297.896 1836.9 279.096 1821.55 263.977C1808.38 251.002 1798.86 241.62 1778.54 241.62C1758.22 241.62 1748.7 251.002 1735.53 263.977C1720.2 279.096 1701.11 297.896 1664.3 297.896C1627.51 297.896 1608.42 279.096 1593.09 263.977C1579.92 251.002 1570.4 241.62 1550.08 241.62C1529.76 241.62 1520.24 251.002 1507.07 263.977C1491.74 279.096 1472.65 297.896 1435.86 297.896C1399.07 297.896 1379.98 279.096 1364.65 263.977C1351.48 251.002 1341.95 241.62 1321.64 241.62C1301.32 241.62 1291.8 251.002 1278.63 263.977C1263.29 279.096 1244.21 297.896 1207.42 297.896C1170.62 297.896 1151.54 279.096 1136.21 263.977C1123.04 251.002 1113.51 241.62 1093.19 241.62C1072.88 241.62 1063.35 251.002 1050.18 263.977C1034.85 279.096 1015.77 297.896 978.973 297.896C942.18 297.896 923.096 279.096 907.764 263.977C894.594 251.002 885.07 241.62 864.752 241.62C844.435 241.62 834.91 251.002 821.74 263.977C806.408 279.096 787.324 297.896 750.531 297.896C713.738 297.896 694.653 279.096 679.321 263.977C666.151 251.002 656.627 241.62 636.31 241.62C615.992 241.62 606.468 251.002 593.298 263.977C577.966 279.096 558.881 297.896 522.088 297.896C485.295 297.896 466.211 279.096 450.879 263.977C437.709 251.002 428.185 241.62 407.867 241.62C387.55 241.62 378.025 251.002 364.855 263.977C349.523 279.096 330.439 297.896 293.646 297.896C256.853 297.896 237.768 279.096 222.436 263.977C209.266 251.002 199.742 241.62 179.425 241.62C159.107 241.62 149.601 251.002 136.413 263.977C121.081 279.096 101.996 297.896 65.2034 297.896C28.4103 297.896 9.32574 279.096 -6.00621 263.977C-19.176 251.002 -28.6825 241.62 -49 241.62V201.427C-12.2069 201.427 6.87762 220.228 22.2096 235.347C35.3793 248.321 44.9037 257.704 65.2212 257.704C85.5387 257.704 95.0453 248.321 108.233 235.347C123.565 220.228 142.649 201.427 179.442 201.427C216.236 201.427 235.32 220.228 250.652 235.347C263.822 248.321 273.346 257.704 293.664 257.704C313.981 257.704 323.506 248.321 336.675 235.347C352.007 220.228 371.092 201.427 407.885 201.427C444.678 201.427 463.763 220.228 479.094 235.347C492.264 248.321 501.789 257.704 522.106 257.704C542.424 257.704 551.948 248.321 565.118 235.347C580.45 220.228 599.534 201.427 636.327 201.427C673.12 201.427 692.205 220.228 707.537 235.347C720.707 248.321 730.231 257.704 750.549 257.704C770.866 257.704 780.391 248.321 793.56 235.347C808.892 220.228 827.977 201.427 864.77 201.427C901.563 201.427 920.648 220.228 935.979 235.347C949.149 248.321 958.674 257.704 978.991 257.704C999.309 257.704 1008.83 248.321 1022 235.347C1037.33 220.228 1056.42 201.427 1093.21 201.427C1130.01 201.427 1149.09 220.228 1164.42 235.347C1177.59 248.321 1187.12 257.704 1207.43 257.704C1227.75 257.704 1237.28 248.321 1250.45 235.347C1265.78 220.228 1284.86 201.427 1321.65 201.427C1358.45 201.427 1377.53 220.228 1392.86 235.347C1406.03 248.321 1415.56 257.704 1435.88 257.704C1456.19 257.704 1465.72 248.321 1478.89 235.347C1494.22 220.228 1513.3 201.427 1550.1 201.427C1586.89 201.427 1605.97 220.228 1621.31 235.347C1634.48 248.321 1644 257.704 1664.32 257.704C1684.64 257.704 1694.16 248.321 1707.33 235.347C1722.66 220.228 1741.75 201.427 1778.54 201.427C1815.33 201.427 1834.42 220.228 1849.77 235.347C1862.94 248.321 1872.46 257.704 1892.78 257.704C1913.1 257.704 1922.62 248.321 1935.79 235.347C1951.12 220.228 1970.22 201.427 2007.02 201.427V241.62C1986.7 241.62 1977.18 251.002 1964.01 263.977C1948.66 279.096 1929.57 297.896 1892.78 297.896Z" fill="#594C9A"/>
<path opacity="0.65" d="M1892.78 398.619C1855.99 398.619 1836.9 379.818 1821.55 364.699C1808.38 351.725 1798.86 342.342 1778.54 342.342C1758.22 342.342 1748.7 351.725 1735.53 364.699C1720.2 379.818 1701.11 398.619 1664.3 398.619C1627.51 398.619 1608.42 379.818 1593.09 364.699C1579.92 351.725 1570.4 342.342 1550.08 342.342C1529.76 342.342 1520.24 351.725 1507.07 364.699C1491.74 379.818 1472.65 398.619 1435.86 398.619C1399.06 398.619 1379.98 379.818 1364.65 364.699C1351.48 351.725 1341.95 342.342 1321.64 342.342C1301.32 342.342 1291.79 351.725 1278.63 364.699C1263.29 379.818 1244.21 398.619 1207.42 398.619C1170.62 398.619 1151.54 379.818 1136.21 364.699C1123.04 351.725 1113.51 342.342 1093.19 342.342C1072.88 342.342 1063.35 351.725 1050.18 364.699C1034.85 379.818 1015.77 398.619 978.973 398.619C942.18 398.619 923.096 379.818 907.764 364.699C894.594 351.725 885.069 342.342 864.752 342.342C844.434 342.342 834.91 351.725 821.74 364.699C806.408 379.818 787.324 398.619 750.531 398.619C713.738 398.619 694.653 379.818 679.321 364.699C666.151 351.725 656.627 342.342 636.31 342.342C615.992 342.342 606.468 351.725 593.298 364.699C577.966 379.818 558.881 398.619 522.088 398.619C485.295 398.619 466.211 379.818 450.879 364.699C437.709 351.725 428.185 342.342 407.867 342.342C387.55 342.342 378.025 351.725 364.855 364.699C349.523 379.818 330.439 398.619 293.646 398.619C256.853 398.619 237.768 379.818 222.436 364.699C209.267 351.725 199.742 342.342 179.425 342.342C159.107 342.342 149.601 351.725 136.413 364.699C121.081 379.818 101.996 398.619 65.2034 398.619C28.4103 398.619 9.32578 379.818 -6.00617 364.699C-19.1759 351.725 -28.7003 342.342 -49.0178 342.342V302.15C-12.2247 302.15 6.85979 320.95 22.1917 336.069C35.3615 349.044 44.8859 358.426 65.2034 358.426C85.5209 358.426 95.0274 349.044 108.215 336.069C123.547 320.95 142.632 302.15 179.425 302.15C216.218 302.15 235.302 320.95 250.634 336.069C263.804 349.044 273.328 358.426 293.646 358.426C313.963 358.426 323.488 349.044 336.658 336.069C351.989 320.95 371.074 302.15 407.867 302.15C444.66 302.15 463.745 320.95 479.077 336.069C492.246 349.044 501.771 358.426 522.088 358.426C542.406 358.426 551.93 349.044 565.1 336.069C580.432 320.95 599.516 302.15 636.31 302.15C673.103 302.15 692.187 320.95 707.519 336.069C720.689 349.044 730.213 358.426 750.531 358.426C770.848 358.426 780.373 349.044 793.542 336.069C808.874 320.95 827.959 302.15 864.752 302.15C901.545 302.15 920.63 320.95 935.962 336.069C949.131 349.044 958.656 358.426 978.973 358.426C999.291 358.426 1008.82 349.044 1021.98 336.069C1037.32 320.95 1056.4 302.15 1093.19 302.15C1129.99 302.15 1149.07 320.95 1164.4 336.069C1177.57 349.044 1187.1 358.426 1207.42 358.426C1227.73 358.426 1237.26 349.044 1250.43 336.069C1265.76 320.95 1284.84 302.15 1321.64 302.15C1358.43 302.15 1377.51 320.95 1392.85 336.069C1406.02 349.044 1415.54 358.426 1435.86 358.426C1456.18 358.426 1465.7 349.044 1478.87 336.069C1494.2 320.95 1513.29 302.15 1550.08 302.15C1586.87 302.15 1605.96 320.95 1621.29 336.069C1634.46 349.044 1643.98 358.426 1664.3 358.426C1684.62 358.426 1694.14 349.044 1707.31 336.069C1722.64 320.95 1741.73 302.15 1778.52 302.15C1815.31 302.15 1834.4 320.95 1849.75 336.069C1862.92 349.044 1872.44 358.426 1892.76 358.426C1913.08 358.426 1922.6 349.044 1935.77 336.069C1951.1 320.95 1970.21 302.15 2007 302.15V342.342C1986.68 342.342 1977.16 351.725 1963.99 364.699C1948.66 379.8 1929.57 398.619 1892.78 398.619Z" fill="#594C9A"/>
<path opacity="0.65" d="M1892.78 499.323C1855.99 499.323 1836.9 480.523 1821.55 465.404C1808.38 452.429 1798.86 443.047 1778.54 443.047C1758.22 443.047 1748.7 452.429 1735.53 465.404C1720.2 480.523 1701.11 499.323 1664.3 499.323C1627.51 499.323 1608.42 480.523 1593.09 465.404C1579.92 452.429 1570.4 443.047 1550.08 443.047C1529.76 443.047 1520.24 452.429 1507.07 465.404C1491.74 480.523 1472.65 499.323 1435.86 499.323C1399.06 499.323 1379.98 480.523 1364.65 465.404C1351.48 452.429 1341.95 443.047 1321.64 443.047C1301.32 443.047 1291.79 452.429 1278.63 465.404C1263.29 480.523 1244.21 499.323 1207.42 499.323C1170.62 499.323 1151.54 480.523 1136.21 465.404C1123.04 452.429 1113.51 443.047 1093.19 443.047C1072.88 443.047 1063.35 452.429 1050.18 465.404C1034.85 480.523 1015.77 499.323 978.973 499.323C942.18 499.323 923.096 480.523 907.764 465.404C894.594 452.429 885.069 443.047 864.752 443.047C844.434 443.047 834.91 452.429 821.74 465.404C806.408 480.523 787.324 499.323 750.531 499.323C713.738 499.323 694.653 480.523 679.321 465.404C666.151 452.429 656.627 443.047 636.31 443.047C615.992 443.047 606.468 452.429 593.298 465.404C577.966 480.523 558.881 499.323 522.088 499.323C485.295 499.323 466.211 480.523 450.879 465.404C437.709 452.429 428.185 443.047 407.867 443.047C387.55 443.047 378.025 452.429 364.855 465.404C349.523 480.523 330.439 499.323 293.646 499.323C256.853 499.323 237.768 480.523 222.436 465.404C209.267 452.429 199.742 443.047 179.425 443.047C159.107 443.047 149.601 452.429 136.413 465.404C121.081 480.523 101.996 499.323 65.2034 499.323C28.4103 499.323 9.32578 480.523 -6.00617 465.404C-19.1759 452.429 -28.7003 443.047 -49.0178 443.047V402.854C-12.2247 402.854 6.85979 421.655 22.1917 436.774C35.3615 449.748 44.8859 459.131 65.2034 459.131C85.5209 459.131 95.0274 449.748 108.215 436.774C123.547 421.655 142.632 402.854 179.425 402.854C216.218 402.854 235.302 421.655 250.634 436.774C263.804 449.748 273.328 459.131 293.646 459.131C313.963 459.131 323.488 449.748 336.658 436.774C351.989 421.655 371.074 402.854 407.867 402.854C444.66 402.854 463.745 421.655 479.077 436.774C492.246 449.748 501.771 459.131 522.088 459.131C542.406 459.131 551.93 449.748 565.1 436.774C580.432 421.655 599.516 402.854 636.31 402.854C673.103 402.854 692.187 421.655 707.519 436.774C720.689 449.748 730.213 459.131 750.531 459.131C770.848 459.131 780.373 449.748 793.542 436.774C808.874 421.655 827.959 402.854 864.752 402.854C901.545 402.854 920.63 421.655 935.962 436.774C949.131 449.748 958.656 459.131 978.973 459.131C999.291 459.131 1008.82 449.748 1021.98 436.774C1037.32 421.655 1056.4 402.854 1093.19 402.854C1129.99 402.854 1149.07 421.655 1164.4 436.774C1177.57 449.748 1187.1 459.131 1207.42 459.131C1227.73 459.131 1237.26 449.748 1250.43 436.774C1265.76 421.655 1284.84 402.854 1321.64 402.854C1358.43 402.854 1377.51 421.655 1392.85 436.774C1406.02 449.748 1415.54 459.131 1435.86 459.131C1456.18 459.131 1465.7 449.748 1478.87 436.774C1494.2 421.655 1513.29 402.854 1550.08 402.854C1586.87 402.854 1605.96 421.655 1621.29 436.774C1634.46 449.748 1643.98 459.131 1664.3 459.131C1684.62 459.131 1694.14 449.748 1707.31 436.774C1722.64 421.655 1741.73 402.854 1778.52 402.854C1815.31 402.854 1834.4 421.655 1849.75 436.774C1862.92 449.748 1872.44 459.131 1892.76 459.131C1913.08 459.131 1922.6 449.748 1935.77 436.774C1951.1 421.655 1970.21 402.854 2007 402.854V443.047C1986.68 443.047 1977.16 452.429 1963.99 465.404C1948.66 480.523 1929.57 499.323 1892.78 499.323Z" fill="#594C9A"/>
<path opacity="0.65" d="M1892.78 600.028C1855.99 600.028 1836.9 581.227 1821.55 566.108C1808.38 553.134 1798.86 543.751 1778.54 543.751C1758.22 543.751 1748.7 553.134 1735.53 566.108C1720.2 581.227 1701.11 600.028 1664.3 600.028C1627.51 600.028 1608.42 581.227 1593.09 566.108C1579.92 553.134 1570.4 543.751 1550.08 543.751C1529.76 543.751 1520.24 553.134 1507.07 566.108C1491.74 581.227 1472.65 600.028 1435.86 600.028C1399.06 600.028 1379.98 581.227 1364.65 566.108C1351.48 553.134 1341.95 543.751 1321.64 543.751C1301.32 543.751 1291.79 553.134 1278.63 566.108C1263.29 581.227 1244.21 600.028 1207.42 600.028C1170.62 600.028 1151.54 581.227 1136.21 566.108C1123.04 553.134 1113.51 543.751 1093.19 543.751C1072.88 543.751 1063.35 553.134 1050.18 566.108C1034.85 581.227 1015.77 600.028 978.973 600.028C942.18 600.028 923.096 581.227 907.764 566.108C894.594 553.134 885.069 543.751 864.752 543.751C844.434 543.751 834.91 553.134 821.74 566.108C806.408 581.227 787.324 600.028 750.531 600.028C713.738 600.028 694.653 581.227 679.321 566.108C666.151 553.134 656.627 543.751 636.31 543.751C615.992 543.751 606.468 553.134 593.298 566.108C577.966 581.227 558.881 600.028 522.088 600.028C485.295 600.028 466.211 581.227 450.879 566.108C437.709 553.134 428.185 543.751 407.867 543.751C387.55 543.751 378.025 553.134 364.855 566.108C349.523 581.227 330.439 600.028 293.646 600.028C256.853 600.028 237.768 581.227 222.436 566.108C209.267 553.134 199.742 543.751 179.425 543.751C159.107 543.751 149.601 553.134 136.413 566.108C121.081 581.227 101.996 600.028 65.2034 600.028C28.4103 600.028 9.32578 581.227 -6.00617 566.108C-19.1759 553.134 -28.7003 543.751 -49.0178 543.751V503.559C-12.2247 503.559 6.85979 522.359 22.1917 537.479C35.3615 550.453 44.8859 559.836 65.2034 559.836C85.5209 559.836 95.0274 550.453 108.215 537.479C123.547 522.359 142.632 503.559 179.425 503.559C216.218 503.559 235.302 522.359 250.634 537.479C263.804 550.453 273.328 559.836 293.646 559.836C313.963 559.836 323.488 550.453 336.658 537.479C351.989 522.359 371.074 503.559 407.867 503.559C444.66 503.559 463.745 522.359 479.077 537.479C492.246 550.453 501.771 559.836 522.088 559.836C542.406 559.836 551.93 550.453 565.1 537.479C580.432 522.359 599.516 503.559 636.31 503.559C673.103 503.559 692.187 522.359 707.519 537.479C720.689 550.453 730.213 559.836 750.531 559.836C770.848 559.836 780.373 550.453 793.542 537.479C808.874 522.359 827.959 503.559 864.752 503.559C901.545 503.559 920.63 522.359 935.962 537.479C949.131 550.453 958.656 559.836 978.973 559.836C999.291 559.836 1008.82 550.453 1021.98 537.479C1037.32 522.359 1056.4 503.559 1093.19 503.559C1129.99 503.559 1149.07 522.359 1164.4 537.479C1177.57 550.453 1187.1 559.836 1207.42 559.836C1227.73 559.836 1237.26 550.453 1250.43 537.479C1265.76 522.359 1284.84 503.559 1321.64 503.559C1358.43 503.559 1377.51 522.359 1392.85 537.479C1406.02 550.453 1415.54 559.836 1435.86 559.836C1456.18 559.836 1465.7 550.453 1478.87 537.479C1494.2 522.359 1513.29 503.559 1550.08 503.559C1586.87 503.559 1605.96 522.359 1621.29 537.479C1634.46 550.453 1643.98 559.836 1664.3 559.836C1684.62 559.836 1694.14 550.453 1707.31 537.479C1722.64 522.359 1741.73 503.559 1778.52 503.559C1815.31 503.559 1834.4 522.359 1849.75 537.479C1862.92 550.453 1872.44 559.836 1892.76 559.836C1913.08 559.836 1922.6 550.453 1935.77 537.479C1951.1 522.359 1970.21 503.559 2007 503.559V543.751C1986.68 543.751 1977.16 553.134 1963.99 566.108C1948.66 581.227 1929.57 600.028 1892.78 600.028Z" fill="#594C9A"/>
<path opacity="0.65" d="M1892.78 700.75C1855.99 700.75 1836.9 681.95 1821.55 666.831C1808.38 653.856 1798.86 644.474 1778.54 644.474C1758.22 644.474 1748.7 653.856 1735.53 666.831C1720.2 681.95 1701.11 700.75 1664.3 700.75C1627.51 700.75 1608.42 681.95 1593.09 666.831C1579.92 653.856 1570.4 644.474 1550.08 644.474C1529.76 644.474 1520.24 653.856 1507.07 666.831C1491.74 681.95 1472.65 700.75 1435.86 700.75C1399.06 700.75 1379.98 681.95 1364.65 666.831C1351.48 653.856 1341.95 644.474 1321.64 644.474C1301.32 644.474 1291.79 653.856 1278.63 666.831C1263.29 681.95 1244.21 700.75 1207.42 700.75C1170.62 700.75 1151.54 681.95 1136.21 666.831C1123.04 653.856 1113.51 644.474 1093.19 644.474C1072.88 644.474 1063.35 653.856 1050.18 666.831C1034.85 681.95 1015.77 700.75 978.973 700.75C942.18 700.75 923.096 681.95 907.764 666.831C894.594 653.856 885.069 644.474 864.752 644.474C844.434 644.474 834.91 653.856 821.74 666.831C806.408 681.95 787.324 700.75 750.531 700.75C713.738 700.75 694.653 681.95 679.321 666.831C666.151 653.856 656.627 644.474 636.31 644.474C615.992 644.474 606.468 653.856 593.298 666.831C577.966 681.95 558.881 700.75 522.088 700.75C485.295 700.75 466.211 681.95 450.879 666.831C437.709 653.856 428.185 644.474 407.867 644.474C387.55 644.474 378.025 653.856 364.855 666.831C349.523 681.95 330.439 700.75 293.646 700.75C256.853 700.75 237.768 681.95 222.436 666.831C209.267 653.856 199.742 644.474 179.425 644.474C159.107 644.474 149.601 653.856 136.413 666.831C121.081 681.95 101.996 700.75 65.2034 700.75C28.4103 700.75 9.32578 681.95 -6.00617 666.831C-19.1759 653.856 -28.7003 644.474 -49.0178 644.474V604.281C-12.2247 604.281 6.85979 623.082 22.1917 638.201C35.3615 651.176 44.8859 660.558 65.2034 660.558C85.5209 660.558 95.0274 651.176 108.215 638.201C123.547 623.082 142.632 604.281 179.425 604.281C216.218 604.281 235.302 623.082 250.634 638.201C263.804 651.176 273.328 660.558 293.646 660.558C313.963 660.558 323.488 651.176 336.658 638.201C351.989 623.082 371.074 604.281 407.867 604.281C444.66 604.281 463.745 623.082 479.077 638.201C492.246 651.176 501.771 660.558 522.088 660.558C542.406 660.558 551.93 651.176 565.1 638.201C580.432 623.082 599.516 604.281 636.31 604.281C673.103 604.281 692.187 623.082 707.519 638.201C720.689 651.176 730.213 660.558 750.531 660.558C770.848 660.558 780.373 651.176 793.542 638.201C808.874 623.082 827.959 604.281 864.752 604.281C901.545 604.281 920.63 623.082 935.962 638.201C949.131 651.176 958.656 660.558 978.973 660.558C999.291 660.558 1008.82 651.176 1021.98 638.201C1037.32 623.082 1056.4 604.281 1093.19 604.281C1129.99 604.281 1149.07 623.082 1164.4 638.201C1177.57 651.176 1187.1 660.558 1207.42 660.558C1227.73 660.558 1237.26 651.176 1250.43 638.201C1265.76 623.082 1284.84 604.281 1321.64 604.281C1358.43 604.281 1377.51 623.082 1392.85 638.201C1406.02 651.176 1415.54 660.558 1435.86 660.558C1456.18 660.558 1465.7 651.176 1478.87 638.201C1494.2 623.082 1513.29 604.281 1550.08 604.281C1586.87 604.281 1605.96 623.082 1621.29 638.201C1634.46 651.176 1643.98 660.558 1664.3 660.558C1684.62 660.558 1694.14 651.176 1707.31 638.201C1722.64 623.082 1741.73 604.281 1778.52 604.281C1815.31 604.281 1834.4 623.082 1849.75 638.201C1862.92 651.176 1872.44 660.558 1892.76 660.558C1913.08 660.558 1922.6 651.176 1935.77 638.201C1951.1 623.082 1970.21 604.281 2007 604.281V644.474C1986.68 644.474 1977.16 653.856 1963.99 666.831C1948.66 681.932 1929.57 700.75 1892.78 700.75Z" fill="#594C9A"/>
<path opacity="0.65" d="M1892.78 801.455C1855.99 801.455 1836.9 782.655 1821.55 767.535C1808.38 754.561 1798.86 745.178 1778.54 745.178C1758.22 745.178 1748.7 754.561 1735.53 767.535C1720.2 782.655 1701.11 801.455 1664.3 801.455C1627.51 801.455 1608.42 782.655 1593.09 767.535C1579.92 754.561 1570.4 745.178 1550.08 745.178C1529.76 745.178 1520.24 754.561 1507.07 767.535C1491.74 782.655 1472.65 801.455 1435.86 801.455C1399.06 801.455 1379.98 782.655 1364.65 767.535C1351.48 754.561 1341.95 745.178 1321.64 745.178C1301.32 745.178 1291.79 754.561 1278.63 767.535C1263.29 782.655 1244.21 801.455 1207.42 801.455C1170.62 801.455 1151.54 782.655 1136.21 767.535C1123.04 754.561 1113.51 745.178 1093.19 745.178C1072.88 745.178 1063.35 754.561 1050.18 767.535C1034.85 782.655 1015.77 801.455 978.973 801.455C942.18 801.455 923.096 782.655 907.764 767.535C894.594 754.561 885.069 745.178 864.752 745.178C844.434 745.178 834.91 754.561 821.74 767.535C806.408 782.655 787.324 801.455 750.531 801.455C713.738 801.455 694.653 782.655 679.321 767.535C666.151 754.561 656.627 745.178 636.31 745.178C615.992 745.178 606.468 754.561 593.298 767.535C577.966 782.655 558.881 801.455 522.088 801.455C485.295 801.455 466.211 782.655 450.879 767.535C437.709 754.561 428.185 745.178 407.867 745.178C387.55 745.178 378.025 754.561 364.855 767.535C349.523 782.655 330.439 801.455 293.646 801.455C256.853 801.455 237.768 782.655 222.436 767.535C209.267 754.561 199.742 745.178 179.425 745.178C159.107 745.178 149.601 754.561 136.413 767.535C121.081 782.655 101.996 801.455 65.2034 801.455C28.4103 801.455 9.32578 782.655 -6.00617 767.535C-19.1759 754.561 -28.7003 745.178 -49.0178 745.178V704.986C-12.2247 704.986 6.85979 723.787 22.1917 738.906C35.3615 751.88 44.8859 761.263 65.2034 761.263C85.5209 761.263 95.0274 751.88 108.215 738.906C123.547 723.787 142.632 704.986 179.425 704.986C216.218 704.986 235.302 723.787 250.634 738.906C263.804 751.88 273.328 761.263 293.646 761.263C313.963 761.263 323.488 751.88 336.658 738.906C351.989 723.787 371.074 704.986 407.867 704.986C444.66 704.986 463.745 723.787 479.077 738.906C492.246 751.88 501.771 761.263 522.088 761.263C542.406 761.263 551.93 751.88 565.1 738.906C580.432 723.787 599.516 704.986 636.31 704.986C673.103 704.986 692.187 723.787 707.519 738.906C720.689 751.88 730.213 761.263 750.531 761.263C770.848 761.263 780.373 751.88 793.542 738.906C808.874 723.787 827.959 704.986 864.752 704.986C901.545 704.986 920.63 723.787 935.962 738.906C949.131 751.88 958.656 761.263 978.973 761.263C999.291 761.263 1008.82 751.88 1021.98 738.906C1037.32 723.787 1056.4 704.986 1093.19 704.986C1129.99 704.986 1149.07 723.787 1164.4 738.906C1177.57 751.88 1187.1 761.263 1207.42 761.263C1227.73 761.263 1237.26 751.88 1250.43 738.906C1265.76 723.787 1284.84 704.986 1321.64 704.986C1358.43 704.986 1377.51 723.787 1392.85 738.906C1406.02 751.88 1415.54 761.263 1435.86 761.263C1456.18 761.263 1465.7 751.88 1478.87 738.906C1494.2 723.787 1513.29 704.986 1550.08 704.986C1586.87 704.986 1605.96 723.787 1621.29 738.906C1634.46 751.88 1643.98 761.263 1664.3 761.263C1684.62 761.263 1694.14 751.88 1707.31 738.906C1722.64 723.787 1741.73 704.986 1778.52 704.986C1815.31 704.986 1834.4 723.787 1849.75 738.906C1862.92 751.88 1872.44 761.263 1892.76 761.263C1913.08 761.263 1922.6 751.88 1935.77 738.906C1951.1 723.787 1970.21 704.986 2007 704.986V745.178C1986.68 745.178 1977.16 754.561 1963.99 767.535C1948.66 782.655 1929.57 801.455 1892.78 801.455Z" fill="#594C9A"/>
<path opacity="0.65" d="M1892.78 902.178C1855.99 902.178 1836.9 883.377 1821.55 868.258C1808.38 855.283 1798.86 845.901 1778.54 845.901C1758.22 845.901 1748.7 855.283 1735.53 868.258C1720.2 883.377 1701.11 902.178 1664.3 902.178C1627.51 902.178 1608.42 883.377 1593.09 868.258C1579.92 855.283 1570.4 845.901 1550.08 845.901C1529.76 845.901 1520.24 855.283 1507.07 868.258C1491.74 883.377 1472.65 902.178 1435.86 902.178C1399.06 902.178 1379.98 883.377 1364.65 868.258C1351.48 855.283 1341.95 845.901 1321.64 845.901C1301.32 845.901 1291.79 855.283 1278.63 868.258C1263.29 883.377 1244.21 902.178 1207.42 902.178C1170.62 902.178 1151.54 883.377 1136.21 868.258C1123.04 855.283 1113.51 845.901 1093.19 845.901C1072.88 845.901 1063.35 855.283 1050.18 868.258C1034.85 883.377 1015.77 902.178 978.973 902.178C942.18 902.178 923.096 883.377 907.764 868.258C894.594 855.283 885.069 845.901 864.752 845.901C844.434 845.901 834.91 855.283 821.74 868.258C806.408 883.377 787.324 902.178 750.531 902.178C713.738 902.178 694.653 883.377 679.321 868.258C666.151 855.283 656.627 845.901 636.31 845.901C615.992 845.901 606.468 855.283 593.298 868.258C577.966 883.377 558.881 902.178 522.088 902.178C485.295 902.178 466.211 883.377 450.879 868.258C437.709 855.283 428.185 845.901 407.867 845.901C387.55 845.901 378.025 855.283 364.855 868.258C349.523 883.377 330.439 902.178 293.646 902.178C256.853 902.178 237.768 883.377 222.436 868.258C209.267 855.283 199.742 845.901 179.425 845.901C159.107 845.901 149.601 855.283 136.413 868.258C121.081 883.377 101.996 902.178 65.2034 902.178C28.4103 902.178 9.32578 883.377 -6.00617 868.258C-19.1759 855.283 -28.7003 845.901 -49.0178 845.901V805.708C-12.2247 805.708 6.85979 824.509 22.1917 839.628C35.3615 852.603 44.8859 861.985 65.2034 861.985C85.5209 861.985 95.0274 852.603 108.215 839.628C123.547 824.509 142.632 805.708 179.425 805.708C216.218 805.708 235.302 824.509 250.634 839.628C263.804 852.603 273.328 861.985 293.646 861.985C313.963 861.985 323.488 852.603 336.658 839.628C351.989 824.509 371.074 805.708 407.867 805.708C444.66 805.708 463.745 824.509 479.077 839.628C492.246 852.603 501.771 861.985 522.088 861.985C542.406 861.985 551.93 852.603 565.1 839.628C580.432 824.509 599.516 805.708 636.31 805.708C673.103 805.708 692.187 824.509 707.519 839.628C720.689 852.603 730.213 861.985 750.531 861.985C770.848 861.985 780.373 852.603 793.542 839.628C808.874 824.509 827.959 805.708 864.752 805.708C901.545 805.708 920.63 824.509 935.962 839.628C949.131 852.603 958.656 861.985 978.973 861.985C999.291 861.985 1008.82 852.603 1021.98 839.628C1037.32 824.509 1056.4 805.708 1093.19 805.708C1129.99 805.708 1149.07 824.509 1164.4 839.628C1177.57 852.603 1187.1 861.985 1207.42 861.985C1227.73 861.985 1237.26 852.603 1250.43 839.628C1265.76 824.509 1284.84 805.708 1321.64 805.708C1358.43 805.708 1377.51 824.509 1392.85 839.628C1406.02 852.603 1415.54 861.985 1435.86 861.985C1456.18 861.985 1465.7 852.603 1478.87 839.628C1494.2 824.509 1513.29 805.708 1550.08 805.708C1586.87 805.708 1605.96 824.509 1621.29 839.628C1634.46 852.603 1643.98 861.985 1664.3 861.985C1684.62 861.985 1694.14 852.603 1707.31 839.628C1722.64 824.509 1741.73 805.708 1778.52 805.708C1815.31 805.708 1834.4 824.509 1849.75 839.628C1862.92 852.603 1872.44 861.985 1892.76 861.985C1913.08 861.985 1922.6 852.603 1935.77 839.628C1951.1 824.509 1970.21 805.708 2007 805.708V845.901C1986.68 845.901 1977.16 855.283 1963.99 868.258C1948.66 883.359 1929.57 902.178 1892.78 902.178Z" fill="#594C9A"/>
</g>
<defs>
<clipPath id="clip0_8_1062">
<rect width="1958" height="863" fill="white" transform="translate(-25)"/>
</clipPath>
</defs>
</svg>
