<svg width="375" height="618" viewBox="0 0 375 618" fill="none" xmlns="http://www.w3.org/2000/svg">
<g opacity="0.5" clip-path="url(#clip0_7_317)">
<rect width="490" height="618" transform="translate(-59)" fill="black" fill-opacity="0.2"/>
<path opacity="0.65" d="M458.889 29.6662C447.579 29.6662 441.713 23.8857 436.994 19.2371C432.946 15.2479 430.018 12.3632 423.773 12.3632C417.527 12.3632 414.6 15.2479 410.551 19.2371C405.839 23.8857 399.972 29.6662 388.657 29.6662C377.347 29.6662 371.48 23.8857 366.767 19.2371C362.719 15.2479 359.791 12.3632 353.546 12.3632C347.3 12.3632 344.373 15.2479 340.324 19.2371C335.611 23.8857 329.745 29.6662 318.435 29.6662C307.125 29.6662 301.259 23.8857 296.546 19.2371C292.497 15.2479 289.57 12.3632 283.324 12.3632C277.079 12.3632 274.151 15.2479 270.103 19.2371C265.39 23.8857 259.523 29.6662 248.213 29.6662C236.903 29.6662 231.037 23.8857 226.324 19.2371C222.276 15.2479 219.348 12.3632 213.103 12.3632C206.857 12.3632 203.929 15.2479 199.881 19.2371C195.168 23.8857 189.302 29.6662 177.992 29.6662C166.682 29.6662 160.815 23.8857 156.102 19.2371C152.054 15.2479 149.126 12.3632 142.881 12.3632C136.636 12.3632 133.708 15.2479 129.659 19.2371C124.947 23.8857 119.08 29.6662 107.77 29.6662C96.4602 29.6662 90.5938 23.8857 85.8808 19.2371C81.8325 15.2479 78.9048 12.3632 72.6594 12.3632C66.4139 12.3632 63.4862 15.2479 59.4379 19.2371C54.7249 23.8857 48.8585 29.6662 37.5485 29.6662C26.2386 29.6662 20.3721 23.8857 15.6592 19.2371C11.6109 15.2479 8.6832 12.3632 2.43774 12.3632C-3.80773 12.3632 -6.73545 15.2479 -10.7837 19.2371C-15.4967 23.8857 -21.3631 29.6662 -32.6731 29.6662C-43.983 29.6662 -49.8495 23.8857 -54.5624 19.2371C-58.6107 15.2479 -61.5384 12.3632 -67.7839 12.3632C-74.0293 12.3632 -76.9516 15.2479 -81.0054 19.2371C-85.7183 23.8857 -91.5847 29.6662 -102.895 29.6662C-114.205 29.6662 -120.071 23.8857 -124.784 19.2371C-128.832 15.2424 -131.755 12.3577 -138 12.3577V0C-126.69 0 -120.824 5.78048 -116.111 10.429C-112.062 14.4182 -109.135 17.303 -102.889 17.303C-96.6437 17.303 -93.7215 14.4182 -89.6677 10.429C-84.9548 5.78048 -79.0883 0 -67.7784 0C-56.4684 0 -50.602 5.78048 -45.8891 10.429C-41.8408 14.4182 -38.913 17.303 -32.6676 17.303C-26.4221 17.303 -23.4944 14.4182 -19.4461 10.429C-14.7332 5.78048 -8.86672 0 2.44323 0C13.7532 0 19.6196 5.78048 24.3326 10.429C28.3808 14.4182 31.3086 17.303 37.554 17.303C43.7995 17.303 46.7272 14.4182 50.7755 10.429C55.4885 5.78048 61.3549 0 72.6648 0C83.9748 0 89.8412 5.78048 94.5542 10.429C98.6025 14.4182 101.53 17.303 107.776 17.303C114.021 17.303 116.949 14.4182 120.997 10.429C125.71 5.78048 131.577 0 142.886 0C154.196 0 160.063 5.78048 164.776 10.429C168.824 14.4182 171.752 17.303 177.997 17.303C184.243 17.303 187.17 14.4182 191.219 10.429C195.932 5.78048 201.798 0 213.108 0C224.418 0 230.284 5.78048 234.997 10.429C239.046 14.4182 241.973 17.303 248.219 17.303C254.464 17.303 257.392 14.4182 261.44 10.429C266.153 5.78048 272.02 0 283.33 0C294.64 0 300.506 5.78048 305.219 10.429C309.267 14.4182 312.195 17.303 318.441 17.303C324.686 17.303 327.614 14.4182 331.662 10.429C336.375 5.78048 342.241 0 353.551 0C364.861 0 370.728 5.78048 375.441 10.429C379.489 14.4182 382.417 17.303 388.662 17.303C394.908 17.303 397.835 14.4182 401.884 10.429C406.597 5.78048 412.463 0 423.773 0C435.083 0 440.949 5.78048 445.668 10.429C449.716 14.4182 452.644 17.303 458.889 17.303C465.135 17.303 468.062 14.4182 472.111 10.429C476.824 5.78048 482.69 0 494 0V12.3577C487.755 12.3577 484.827 15.2424 480.779 19.2316C476.066 23.8802 470.199 29.6662 458.889 29.6662Z" fill="#594C9A"/>
<path opacity="0.65" d="M458.889 60.6291C447.579 60.6291 441.713 54.8486 436.994 50.2C432.946 46.2109 430.018 43.3261 423.773 43.3261C417.527 43.3261 414.6 46.2109 410.551 50.2C405.839 54.8486 399.972 60.6291 388.657 60.6291C377.347 60.6291 371.48 54.8486 366.767 50.2C362.719 46.2109 359.791 43.3261 353.546 43.3261C347.3 43.3261 344.373 46.2109 340.324 50.2C335.611 54.8486 329.745 60.6291 318.435 60.6291C307.125 60.6291 301.259 54.8486 296.546 50.2C292.497 46.2109 289.57 43.3261 283.324 43.3261C277.079 43.3261 274.151 46.2109 270.103 50.2C265.39 54.8486 259.523 60.6291 248.213 60.6291C236.903 60.6291 231.037 54.8486 226.324 50.2C222.276 46.2109 219.348 43.3261 213.103 43.3261C206.857 43.3261 203.929 46.2109 199.881 50.2C195.168 54.8486 189.302 60.6291 177.992 60.6291C166.682 60.6291 160.815 54.8486 156.102 50.2C152.054 46.2109 149.126 43.3261 142.881 43.3261C136.636 43.3261 133.708 46.2109 129.659 50.2C124.947 54.8486 119.08 60.6291 107.77 60.6291C96.4602 60.6291 90.5938 54.8486 85.8808 50.2C81.8325 46.2109 78.9048 43.3261 72.6594 43.3261C66.4139 43.3261 63.4862 46.2109 59.4379 50.2C54.7249 54.8486 48.8585 60.6291 37.5485 60.6291C26.2386 60.6291 20.3721 54.8486 15.6592 50.2C11.6109 46.2109 8.6832 43.3261 2.43774 43.3261C-3.80773 43.3261 -6.73545 46.2109 -10.7837 50.2C-15.4967 54.8486 -21.3631 60.6291 -32.6731 60.6291C-43.983 60.6291 -49.8495 54.8486 -54.5624 50.2C-58.6107 46.2109 -61.5384 43.3261 -67.7839 43.3261C-74.0293 43.3261 -76.9516 46.2109 -81.0054 50.2C-85.7183 54.8486 -91.5847 60.6291 -102.895 60.6291C-114.205 60.6291 -120.071 54.8486 -124.784 50.2C-128.832 46.2109 -131.755 43.3261 -138 43.3261V30.9629C-126.69 30.9629 -120.824 36.7434 -116.111 41.392C-112.062 45.3811 -109.135 48.2659 -102.889 48.2659C-96.6437 48.2659 -93.7215 45.3811 -89.6677 41.392C-84.9548 36.7434 -79.0883 30.9629 -67.7784 30.9629C-56.4684 30.9629 -50.602 36.7434 -45.8891 41.392C-41.8408 45.3811 -38.913 48.2659 -32.6676 48.2659C-26.4221 48.2659 -23.4944 45.3811 -19.4461 41.392C-14.7332 36.7434 -8.86672 30.9629 2.44323 30.9629C13.7532 30.9629 19.6196 36.7434 24.3326 41.392C28.3808 45.3811 31.3086 48.2659 37.554 48.2659C43.7995 48.2659 46.7272 45.3811 50.7755 41.392C55.4885 36.7434 61.3549 30.9629 72.6648 30.9629C83.9748 30.9629 89.8412 36.7434 94.5542 41.392C98.6025 45.3811 101.53 48.2659 107.776 48.2659C114.021 48.2659 116.949 45.3811 120.997 41.392C125.71 36.7434 131.577 30.9629 142.886 30.9629C154.196 30.9629 160.063 36.7434 164.776 41.392C168.824 45.3811 171.752 48.2659 177.997 48.2659C184.243 48.2659 187.17 45.3811 191.219 41.392C195.932 36.7434 201.798 30.9629 213.108 30.9629C224.418 30.9629 230.284 36.7434 234.997 41.392C239.046 45.3811 241.973 48.2659 248.219 48.2659C254.464 48.2659 257.392 45.3811 261.44 41.392C266.153 36.7434 272.02 30.9629 283.33 30.9629C294.64 30.9629 300.506 36.7434 305.219 41.392C309.267 45.3811 312.195 48.2659 318.441 48.2659C324.686 48.2659 327.614 45.3811 331.662 41.392C336.375 36.7434 342.241 30.9629 353.551 30.9629C364.861 30.9629 370.728 36.7434 375.441 41.392C379.489 45.3811 382.417 48.2659 388.662 48.2659C394.908 48.2659 397.835 45.3811 401.884 41.392C406.597 36.7434 412.463 30.9629 423.773 30.9629C435.083 30.9629 440.949 36.7434 445.668 41.392C449.716 45.3811 452.644 48.2659 458.889 48.2659C465.135 48.2659 468.062 45.3811 472.111 41.392C476.824 36.7434 482.696 30.9629 494.005 30.9629V43.3206C487.76 43.3206 484.832 46.2054 480.784 50.1945C476.066 54.8431 470.199 60.6291 458.889 60.6291Z" fill="#594C9A"/>
<path opacity="0.65" d="M458.889 91.592C447.579 91.592 441.713 85.8115 436.994 81.1629C432.946 77.1737 430.018 74.289 423.773 74.289C417.527 74.289 414.6 77.1737 410.551 81.1629C405.839 85.8115 399.972 91.592 388.657 91.592C377.347 91.592 371.48 85.8115 366.767 81.1629C362.719 77.1737 359.791 74.289 353.546 74.289C347.3 74.289 344.373 77.1737 340.324 81.1629C335.611 85.8115 329.745 91.592 318.435 91.592C307.125 91.592 301.259 85.8115 296.546 81.1629C292.497 77.1737 289.57 74.289 283.324 74.289C277.079 74.289 274.151 77.1737 270.103 81.1629C265.39 85.8115 259.523 91.592 248.213 91.592C236.903 91.592 231.037 85.8115 226.324 81.1629C222.276 77.1737 219.348 74.289 213.103 74.289C206.857 74.289 203.929 77.1737 199.881 81.1629C195.168 85.8115 189.302 91.592 177.992 91.592C166.682 91.592 160.815 85.8115 156.102 81.1629C152.054 77.1737 149.126 74.289 142.881 74.289C136.636 74.289 133.708 77.1737 129.659 81.1629C124.947 85.8115 119.08 91.592 107.77 91.592C96.4602 91.592 90.5938 85.8115 85.8808 81.1629C81.8325 77.1737 78.9048 74.289 72.6594 74.289C66.4139 74.289 63.4862 77.1737 59.4379 81.1629C54.7249 85.8115 48.8585 91.592 37.5485 91.592C26.2386 91.592 20.3721 85.8115 15.6592 81.1629C11.6109 77.1737 8.6832 74.289 2.43774 74.289C-3.80773 74.289 -6.73545 77.1737 -10.7837 81.1629C-15.4967 85.8115 -21.3631 91.592 -32.6731 91.592C-43.983 91.592 -49.8495 85.8115 -54.5624 81.1629C-58.6107 77.1737 -61.5384 74.289 -67.7839 74.289C-74.0293 74.289 -76.9516 77.1737 -81.0054 81.1629C-85.7183 85.8115 -91.5847 91.592 -102.895 91.592C-114.205 91.592 -120.071 85.8115 -124.784 81.1629C-128.832 77.1737 -131.755 74.289 -138 74.289V61.9313C-126.69 61.9313 -120.824 67.7118 -116.111 72.3603C-112.062 76.3495 -109.135 79.2343 -102.889 79.2343C-96.6437 79.2343 -93.7215 76.3495 -89.6677 72.3603C-84.9548 67.7118 -79.0883 61.9313 -67.7784 61.9313C-56.4684 61.9313 -50.602 67.7118 -45.8891 72.3603C-41.8408 76.3495 -38.913 79.2343 -32.6676 79.2343C-26.4221 79.2343 -23.4944 76.3495 -19.4461 72.3603C-14.7332 67.7118 -8.86672 61.9313 2.44323 61.9313C13.7532 61.9313 19.6196 67.7118 24.3326 72.3603C28.3808 76.3495 31.3086 79.2343 37.554 79.2343C43.7995 79.2343 46.7272 76.3495 50.7755 72.3603C55.4885 67.7118 61.3549 61.9313 72.6648 61.9313C83.9748 61.9313 89.8412 67.7118 94.5542 72.3603C98.6025 76.3495 101.53 79.2343 107.776 79.2343C114.021 79.2343 116.949 76.3495 120.997 72.3603C125.71 67.7118 131.577 61.9313 142.886 61.9313C154.196 61.9313 160.063 67.7118 164.776 72.3603C168.824 76.3495 171.752 79.2343 177.997 79.2343C184.243 79.2343 187.17 76.3495 191.219 72.3603C195.932 67.7118 201.798 61.9313 213.108 61.9313C224.418 61.9313 230.284 67.7118 234.997 72.3603C239.046 76.3495 241.973 79.2343 248.219 79.2343C254.464 79.2343 257.392 76.3495 261.44 72.3603C266.153 67.7118 272.02 61.9313 283.33 61.9313C294.64 61.9313 300.506 67.7118 305.219 72.3603C309.267 76.3495 312.195 79.2343 318.441 79.2343C324.686 79.2343 327.614 76.3495 331.662 72.3603C336.375 67.7118 342.241 61.9313 353.551 61.9313C364.861 61.9313 370.728 67.7118 375.441 72.3603C379.489 76.3495 382.417 79.2343 388.662 79.2343C394.908 79.2343 397.835 76.3495 401.884 72.3603C406.597 67.7118 412.463 61.9313 423.773 61.9313C435.083 61.9313 440.949 67.7118 445.668 72.3603C449.716 76.3495 452.644 79.2343 458.889 79.2343C465.135 79.2343 468.062 76.3495 472.111 72.3603C476.824 67.7118 482.696 61.9313 494.005 61.9313V74.289C487.76 74.289 484.832 77.1737 480.784 81.1629C476.066 85.8115 470.199 91.592 458.889 91.592Z" fill="#594C9A"/>
<path opacity="0.65" d="M458.889 122.56C447.579 122.56 441.713 116.78 436.994 112.131C432.946 108.142 430.018 105.257 423.773 105.257C417.527 105.257 414.6 108.142 410.551 112.131C405.838 116.78 399.972 122.56 388.656 122.56C377.347 122.56 371.48 116.78 366.767 112.131C362.719 108.142 359.791 105.257 353.546 105.257C347.3 105.257 344.372 108.142 340.324 112.131C335.611 116.78 329.745 122.56 318.435 122.56C307.125 122.56 301.258 116.78 296.546 112.131C292.497 108.142 289.57 105.257 283.324 105.257C277.079 105.257 274.151 108.142 270.103 112.131C265.39 116.78 259.523 122.56 248.213 122.56C236.903 122.56 231.037 116.78 226.324 112.131C222.276 108.142 219.348 105.257 213.102 105.257C206.857 105.257 203.929 108.142 199.881 112.131C195.168 116.78 189.302 122.56 177.992 122.56C166.682 122.56 160.815 116.78 156.102 112.131C152.054 108.142 149.126 105.257 142.881 105.257C136.635 105.257 133.708 108.142 129.659 112.131C124.946 116.78 119.08 122.56 107.77 122.56C96.4601 122.56 90.5936 116.78 85.8807 112.131C81.8324 108.142 78.9047 105.257 72.6592 105.257C66.4138 105.257 63.486 108.142 59.4378 112.131C54.7248 116.78 48.8584 122.56 37.5484 122.56C26.2385 122.56 20.372 116.78 15.6591 112.131C11.6108 108.142 8.68307 105.257 2.43761 105.257C-3.80785 105.257 -6.73558 108.142 -10.7839 112.131C-15.4968 116.78 -21.3633 122.56 -32.6732 122.56C-43.9831 122.56 -49.8496 116.78 -54.5625 112.131C-58.6108 108.142 -61.5385 105.257 -67.784 105.257C-74.0295 105.257 -76.9517 108.142 -81.0055 112.131C-85.7184 116.78 -91.5849 122.56 -102.895 122.56C-114.205 122.56 -120.071 116.78 -124.784 112.131C-128.832 108.142 -131.76 105.257 -138.006 105.257V92.8997C-126.696 92.8997 -120.829 98.6802 -116.116 103.329C-112.068 107.318 -109.14 110.203 -102.895 110.203C-96.6493 110.203 -93.7271 107.318 -89.6733 103.329C-84.9604 98.6802 -79.0939 92.8997 -67.784 92.8997C-56.4741 92.8997 -50.6076 98.6802 -45.8947 103.329C-41.8464 107.318 -38.9187 110.203 -32.6732 110.203C-26.4277 110.203 -23.5 107.318 -19.4517 103.329C-14.7388 98.6802 -8.87233 92.8997 2.43761 92.8997C13.7476 92.8997 19.614 98.6802 24.3269 103.329C28.3752 107.318 31.303 110.203 37.5484 110.203C43.7939 110.203 46.7216 107.318 50.7699 103.329C55.4828 98.6802 61.3493 92.8997 72.6592 92.8997C83.9692 92.8997 89.8356 98.6802 94.5486 103.329C98.5968 107.318 101.525 110.203 107.77 110.203C114.015 110.203 116.943 107.318 120.992 103.329C125.704 98.6802 131.571 92.8997 142.881 92.8997C154.191 92.8997 160.057 98.6802 164.77 103.329C168.818 107.318 171.746 110.203 177.992 110.203C184.237 110.203 187.165 107.318 191.213 103.329C195.926 98.6802 201.793 92.8997 213.102 92.8997C224.412 92.8997 230.279 98.6802 234.992 103.329C239.04 107.318 241.968 110.203 248.213 110.203C254.459 110.203 257.386 107.318 261.435 103.329C266.148 98.6802 272.014 92.8997 283.324 92.8997C294.634 92.8997 300.5 98.6802 305.213 103.329C309.262 107.318 312.189 110.203 318.435 110.203C324.68 110.203 327.608 107.318 331.656 103.329C336.369 98.6802 342.236 92.8997 353.546 92.8997C364.856 92.8997 370.722 98.6802 375.435 103.329C379.483 107.318 382.411 110.203 388.656 110.203C394.902 110.203 397.83 107.318 401.878 103.329C406.591 98.6802 412.457 92.8997 423.767 92.8997C435.077 92.8997 440.944 98.6802 445.662 103.329C449.71 107.318 452.638 110.203 458.884 110.203C465.129 110.203 468.057 107.318 472.105 103.329C476.818 98.6802 482.69 92.8997 494 92.8997V105.257C487.754 105.257 484.827 108.142 480.778 112.131C476.065 116.774 470.199 122.56 458.889 122.56Z" fill="#594C9A"/>
<path opacity="0.65" d="M458.889 153.523C447.579 153.523 441.713 147.743 436.994 143.094C432.946 139.105 430.018 136.22 423.773 136.22C417.527 136.22 414.6 139.105 410.551 143.094C405.838 147.743 399.972 153.523 388.656 153.523C377.347 153.523 371.48 147.743 366.767 143.094C362.719 139.105 359.791 136.22 353.546 136.22C347.3 136.22 344.372 139.105 340.324 143.094C335.611 147.743 329.745 153.523 318.435 153.523C307.125 153.523 301.258 147.743 296.546 143.094C292.497 139.105 289.57 136.22 283.324 136.22C277.079 136.22 274.151 139.105 270.103 143.094C265.39 147.743 259.523 153.523 248.213 153.523C236.903 153.523 231.037 147.743 226.324 143.094C222.276 139.105 219.348 136.22 213.102 136.22C206.857 136.22 203.929 139.105 199.881 143.094C195.168 147.743 189.302 153.523 177.992 153.523C166.682 153.523 160.815 147.743 156.102 143.094C152.054 139.105 149.126 136.22 142.881 136.22C136.635 136.22 133.708 139.105 129.659 143.094C124.946 147.743 119.08 153.523 107.77 153.523C96.4601 153.523 90.5936 147.743 85.8807 143.094C81.8324 139.105 78.9047 136.22 72.6592 136.22C66.4138 136.22 63.486 139.105 59.4378 143.094C54.7248 147.743 48.8584 153.523 37.5484 153.523C26.2385 153.523 20.372 147.743 15.6591 143.094C11.6108 139.105 8.68307 136.22 2.43761 136.22C-3.80785 136.22 -6.73558 139.105 -10.7839 143.094C-15.4968 147.743 -21.3633 153.523 -32.6732 153.523C-43.9831 153.523 -49.8496 147.743 -54.5625 143.094C-58.6108 139.105 -61.5385 136.22 -67.784 136.22C-74.0295 136.22 -76.9517 139.105 -81.0055 143.094C-85.7184 147.743 -91.5849 153.523 -102.895 153.523C-114.205 153.523 -120.071 147.743 -124.784 143.094C-128.832 139.105 -131.76 136.22 -138.006 136.22V123.863C-126.696 123.863 -120.829 129.643 -116.116 134.292C-112.068 138.281 -109.14 141.166 -102.895 141.166C-96.6493 141.166 -93.7271 138.281 -89.6733 134.292C-84.9604 129.643 -79.0939 123.863 -67.784 123.863C-56.4741 123.863 -50.6076 129.643 -45.8947 134.292C-41.8464 138.281 -38.9187 141.166 -32.6732 141.166C-26.4277 141.166 -23.5 138.281 -19.4517 134.292C-14.7388 129.643 -8.87233 123.863 2.43761 123.863C13.7476 123.863 19.614 129.643 24.3269 134.292C28.3752 138.281 31.303 141.166 37.5484 141.166C43.7939 141.166 46.7216 138.281 50.7699 134.292C55.4828 129.643 61.3493 123.863 72.6592 123.863C83.9692 123.863 89.8356 129.643 94.5486 134.292C98.5968 138.281 101.525 141.166 107.77 141.166C114.015 141.166 116.943 138.281 120.992 134.292C125.704 129.643 131.571 123.863 142.881 123.863C154.191 123.863 160.057 129.643 164.77 134.292C168.818 138.281 171.746 141.166 177.992 141.166C184.237 141.166 187.165 138.281 191.213 134.292C195.926 129.643 201.793 123.863 213.102 123.863C224.412 123.863 230.279 129.643 234.992 134.292C239.04 138.281 241.968 141.166 248.213 141.166C254.459 141.166 257.386 138.281 261.435 134.292C266.148 129.643 272.014 123.863 283.324 123.863C294.634 123.863 300.5 129.643 305.213 134.292C309.262 138.281 312.189 141.166 318.435 141.166C324.68 141.166 327.608 138.281 331.656 134.292C336.369 129.643 342.236 123.863 353.546 123.863C364.856 123.863 370.722 129.643 375.435 134.292C379.483 138.281 382.411 141.166 388.656 141.166C394.902 141.166 397.83 138.281 401.878 134.292C406.591 129.643 412.457 123.863 423.767 123.863C435.077 123.863 440.944 129.643 445.662 134.292C449.71 138.281 452.638 141.166 458.884 141.166C465.129 141.166 468.057 138.281 472.105 134.292C476.818 129.643 482.69 123.863 494 123.863V136.22C487.754 136.22 484.827 139.105 480.778 143.094C476.065 147.743 470.199 153.523 458.889 153.523Z" fill="#594C9A"/>
<path opacity="0.65" d="M458.889 184.486C447.579 184.486 441.713 178.706 436.994 174.057C432.946 170.068 430.018 167.183 423.773 167.183C417.527 167.183 414.6 170.068 410.551 174.057C405.838 178.706 399.972 184.486 388.656 184.486C377.347 184.486 371.48 178.706 366.767 174.057C362.719 170.068 359.791 167.183 353.546 167.183C347.3 167.183 344.372 170.068 340.324 174.057C335.611 178.706 329.745 184.486 318.435 184.486C307.125 184.486 301.258 178.706 296.546 174.057C292.497 170.068 289.57 167.183 283.324 167.183C277.079 167.183 274.151 170.068 270.103 174.057C265.39 178.706 259.523 184.486 248.213 184.486C236.903 184.486 231.037 178.706 226.324 174.057C222.276 170.068 219.348 167.183 213.102 167.183C206.857 167.183 203.929 170.068 199.881 174.057C195.168 178.706 189.302 184.486 177.992 184.486C166.682 184.486 160.815 178.706 156.102 174.057C152.054 170.068 149.126 167.183 142.881 167.183C136.635 167.183 133.708 170.068 129.659 174.057C124.946 178.706 119.08 184.486 107.77 184.486C96.4601 184.486 90.5936 178.706 85.8807 174.057C81.8324 170.068 78.9047 167.183 72.6592 167.183C66.4138 167.183 63.486 170.068 59.4378 174.057C54.7248 178.706 48.8584 184.486 37.5484 184.486C26.2385 184.486 20.372 178.706 15.6591 174.057C11.6108 170.068 8.68307 167.183 2.43761 167.183C-3.80785 167.183 -6.73558 170.068 -10.7839 174.057C-15.4968 178.706 -21.3633 184.486 -32.6732 184.486C-43.9831 184.486 -49.8496 178.706 -54.5625 174.057C-58.6108 170.068 -61.5385 167.183 -67.784 167.183C-74.0295 167.183 -76.9517 170.068 -81.0055 174.057C-85.7184 178.706 -91.5849 184.486 -102.895 184.486C-114.205 184.486 -120.071 178.706 -124.784 174.057C-128.832 170.068 -131.76 167.183 -138.006 167.183V154.826C-126.696 154.826 -120.829 160.606 -116.116 165.255C-112.068 169.244 -109.14 172.129 -102.895 172.129C-96.6493 172.129 -93.7271 169.244 -89.6733 165.255C-84.9604 160.606 -79.0939 154.826 -67.784 154.826C-56.4741 154.826 -50.6076 160.606 -45.8947 165.255C-41.8464 169.244 -38.9187 172.129 -32.6732 172.129C-26.4277 172.129 -23.5 169.244 -19.4517 165.255C-14.7388 160.606 -8.87233 154.826 2.43761 154.826C13.7476 154.826 19.614 160.606 24.3269 165.255C28.3752 169.244 31.303 172.129 37.5484 172.129C43.7939 172.129 46.7216 169.244 50.7699 165.255C55.4828 160.606 61.3493 154.826 72.6592 154.826C83.9692 154.826 89.8356 160.606 94.5486 165.255C98.5968 169.244 101.525 172.129 107.77 172.129C114.015 172.129 116.943 169.244 120.992 165.255C125.704 160.606 131.571 154.826 142.881 154.826C154.191 154.826 160.057 160.606 164.77 165.255C168.818 169.244 171.746 172.129 177.992 172.129C184.237 172.129 187.165 169.244 191.213 165.255C195.926 160.606 201.793 154.826 213.102 154.826C224.412 154.826 230.279 160.606 234.992 165.255C239.04 169.244 241.968 172.129 248.213 172.129C254.459 172.129 257.386 169.244 261.435 165.255C266.148 160.606 272.014 154.826 283.324 154.826C294.634 154.826 300.5 160.606 305.213 165.255C309.262 169.244 312.189 172.129 318.435 172.129C324.68 172.129 327.608 169.244 331.656 165.255C336.369 160.606 342.236 154.826 353.546 154.826C364.856 154.826 370.722 160.606 375.435 165.255C379.483 169.244 382.411 172.129 388.656 172.129C394.902 172.129 397.83 169.244 401.878 165.255C406.591 160.606 412.457 154.826 423.767 154.826C435.077 154.826 440.944 160.606 445.662 165.255C449.71 169.244 452.638 172.129 458.884 172.129C465.129 172.129 468.057 169.244 472.105 165.255C476.818 160.606 482.69 154.826 494 154.826V167.183C487.754 167.183 484.827 170.068 480.778 174.057C476.065 178.706 470.199 184.486 458.889 184.486Z" fill="#594C9A"/>
<path opacity="0.65" d="M458.889 215.455C447.579 215.455 441.713 209.674 436.994 205.026C432.946 201.036 430.018 198.152 423.773 198.152C417.527 198.152 414.6 201.036 410.551 205.026C405.838 209.674 399.972 215.455 388.656 215.455C377.347 215.455 371.48 209.674 366.767 205.026C362.719 201.036 359.791 198.152 353.546 198.152C347.3 198.152 344.372 201.036 340.324 205.026C335.611 209.674 329.745 215.455 318.435 215.455C307.125 215.455 301.258 209.674 296.546 205.026C292.497 201.036 289.57 198.152 283.324 198.152C277.079 198.152 274.151 201.036 270.103 205.026C265.39 209.674 259.523 215.455 248.213 215.455C236.903 215.455 231.037 209.674 226.324 205.026C222.276 201.036 219.348 198.152 213.102 198.152C206.857 198.152 203.929 201.036 199.881 205.026C195.168 209.674 189.302 215.455 177.992 215.455C166.682 215.455 160.815 209.674 156.102 205.026C152.054 201.036 149.126 198.152 142.881 198.152C136.635 198.152 133.708 201.036 129.659 205.026C124.946 209.674 119.08 215.455 107.77 215.455C96.4601 215.455 90.5936 209.674 85.8807 205.026C81.8324 201.036 78.9047 198.152 72.6592 198.152C66.4138 198.152 63.486 201.036 59.4378 205.026C54.7248 209.674 48.8584 215.455 37.5484 215.455C26.2385 215.455 20.372 209.674 15.6591 205.026C11.6108 201.036 8.68307 198.152 2.43761 198.152C-3.80785 198.152 -6.73558 201.036 -10.7839 205.026C-15.4968 209.674 -21.3633 215.455 -32.6732 215.455C-43.9831 215.455 -49.8496 209.674 -54.5625 205.026C-58.6108 201.036 -61.5385 198.152 -67.784 198.152C-74.0295 198.152 -76.9517 201.036 -81.0055 205.026C-85.7184 209.674 -91.5849 215.455 -102.895 215.455C-114.205 215.455 -120.071 209.674 -124.784 205.026C-128.832 201.036 -131.76 198.152 -138.006 198.152V185.794C-126.696 185.794 -120.829 191.574 -116.116 196.223C-112.068 200.212 -109.14 203.097 -102.895 203.097C-96.6493 203.097 -93.7271 200.212 -89.6733 196.223C-84.9604 191.574 -79.0939 185.794 -67.784 185.794C-56.4741 185.794 -50.6076 191.574 -45.8947 196.223C-41.8464 200.212 -38.9187 203.097 -32.6732 203.097C-26.4277 203.097 -23.5 200.212 -19.4517 196.223C-14.7388 191.574 -8.87233 185.794 2.43761 185.794C13.7476 185.794 19.614 191.574 24.3269 196.223C28.3752 200.212 31.303 203.097 37.5484 203.097C43.7939 203.097 46.7216 200.212 50.7699 196.223C55.4828 191.574 61.3493 185.794 72.6592 185.794C83.9692 185.794 89.8356 191.574 94.5486 196.223C98.5968 200.212 101.525 203.097 107.77 203.097C114.015 203.097 116.943 200.212 120.992 196.223C125.704 191.574 131.571 185.794 142.881 185.794C154.191 185.794 160.057 191.574 164.77 196.223C168.818 200.212 171.746 203.097 177.992 203.097C184.237 203.097 187.165 200.212 191.213 196.223C195.926 191.574 201.793 185.794 213.102 185.794C224.412 185.794 230.279 191.574 234.992 196.223C239.04 200.212 241.968 203.097 248.213 203.097C254.459 203.097 257.386 200.212 261.435 196.223C266.148 191.574 272.014 185.794 283.324 185.794C294.634 185.794 300.5 191.574 305.213 196.223C309.262 200.212 312.189 203.097 318.435 203.097C324.68 203.097 327.608 200.212 331.656 196.223C336.369 191.574 342.236 185.794 353.546 185.794C364.856 185.794 370.722 191.574 375.435 196.223C379.483 200.212 382.411 203.097 388.656 203.097C394.902 203.097 397.83 200.212 401.878 196.223C406.591 191.574 412.457 185.794 423.767 185.794C435.077 185.794 440.944 191.574 445.662 196.223C449.71 200.212 452.638 203.097 458.884 203.097C465.129 203.097 468.057 200.212 472.105 196.223C476.818 191.574 482.69 185.794 494 185.794V198.152C487.754 198.152 484.827 201.036 480.778 205.026C476.065 209.669 470.199 215.455 458.889 215.455Z" fill="#594C9A"/>
<path opacity="0.65" d="M458.889 246.418C447.579 246.418 441.713 240.637 436.994 235.989C432.946 231.999 430.018 229.115 423.773 229.115C417.527 229.115 414.6 231.999 410.551 235.989C405.838 240.637 399.972 246.418 388.656 246.418C377.347 246.418 371.48 240.637 366.767 235.989C362.719 231.999 359.791 229.115 353.546 229.115C347.3 229.115 344.372 231.999 340.324 235.989C335.611 240.637 329.745 246.418 318.435 246.418C307.125 246.418 301.258 240.637 296.546 235.989C292.497 231.999 289.57 229.115 283.324 229.115C277.079 229.115 274.151 231.999 270.103 235.989C265.39 240.637 259.523 246.418 248.213 246.418C236.903 246.418 231.037 240.637 226.324 235.989C222.276 231.999 219.348 229.115 213.102 229.115C206.857 229.115 203.929 231.999 199.881 235.989C195.168 240.637 189.302 246.418 177.992 246.418C166.682 246.418 160.815 240.637 156.102 235.989C152.054 231.999 149.126 229.115 142.881 229.115C136.635 229.115 133.708 231.999 129.659 235.989C124.946 240.637 119.08 246.418 107.77 246.418C96.4601 246.418 90.5936 240.637 85.8807 235.989C81.8324 231.999 78.9047 229.115 72.6592 229.115C66.4138 229.115 63.486 231.999 59.4378 235.989C54.7248 240.637 48.8584 246.418 37.5484 246.418C26.2385 246.418 20.372 240.637 15.6591 235.989C11.6108 231.999 8.68307 229.115 2.43761 229.115C-3.80785 229.115 -6.73558 231.999 -10.7839 235.989C-15.4968 240.637 -21.3633 246.418 -32.6732 246.418C-43.9831 246.418 -49.8496 240.637 -54.5625 235.989C-58.6108 231.999 -61.5385 229.115 -67.784 229.115C-74.0295 229.115 -76.9517 231.999 -81.0055 235.989C-85.7184 240.637 -91.5849 246.418 -102.895 246.418C-114.205 246.418 -120.071 240.637 -124.784 235.989C-128.832 231.999 -131.76 229.115 -138.006 229.115V216.757C-126.696 216.757 -120.829 222.537 -116.116 227.186C-112.068 231.175 -109.14 234.06 -102.895 234.06C-96.6493 234.06 -93.7271 231.175 -89.6733 227.186C-84.9604 222.537 -79.0939 216.757 -67.784 216.757C-56.4741 216.757 -50.6076 222.537 -45.8947 227.186C-41.8464 231.175 -38.9187 234.06 -32.6732 234.06C-26.4277 234.06 -23.5 231.175 -19.4517 227.186C-14.7388 222.537 -8.87233 216.757 2.43761 216.757C13.7476 216.757 19.614 222.537 24.3269 227.186C28.3752 231.175 31.303 234.06 37.5484 234.06C43.7939 234.06 46.7216 231.175 50.7699 227.186C55.4828 222.537 61.3493 216.757 72.6592 216.757C83.9692 216.757 89.8356 222.537 94.5486 227.186C98.5968 231.175 101.525 234.06 107.77 234.06C114.015 234.06 116.943 231.175 120.992 227.186C125.704 222.537 131.571 216.757 142.881 216.757C154.191 216.757 160.057 222.537 164.77 227.186C168.818 231.175 171.746 234.06 177.992 234.06C184.237 234.06 187.165 231.175 191.213 227.186C195.926 222.537 201.793 216.757 213.102 216.757C224.412 216.757 230.279 222.537 234.992 227.186C239.04 231.175 241.968 234.06 248.213 234.06C254.459 234.06 257.386 231.175 261.435 227.186C266.148 222.537 272.014 216.757 283.324 216.757C294.634 216.757 300.5 222.537 305.213 227.186C309.262 231.175 312.189 234.06 318.435 234.06C324.68 234.06 327.608 231.175 331.656 227.186C336.369 222.537 342.236 216.757 353.546 216.757C364.856 216.757 370.722 222.537 375.435 227.186C379.483 231.175 382.411 234.06 388.656 234.06C394.902 234.06 397.83 231.175 401.878 227.186C406.591 222.537 412.457 216.757 423.767 216.757C435.077 216.757 440.944 222.537 445.662 227.186C449.71 231.175 452.638 234.06 458.884 234.06C465.129 234.06 468.057 231.175 472.105 227.186C476.818 222.537 482.69 216.757 494 216.757V229.115C487.754 229.115 484.827 231.999 480.778 235.989C476.065 240.637 470.199 246.418 458.889 246.418Z" fill="#594C9A"/>
<path opacity="0.65" d="M458.889 277.386C447.579 277.386 441.713 271.605 436.994 266.957C432.946 262.968 430.018 260.083 423.773 260.083C417.527 260.083 414.6 262.968 410.551 266.957C405.838 271.605 399.972 277.386 388.656 277.386C377.347 277.386 371.48 271.605 366.767 266.957C362.719 262.968 359.791 260.083 353.546 260.083C347.3 260.083 344.372 262.968 340.324 266.957C335.611 271.605 329.745 277.386 318.435 277.386C307.125 277.386 301.258 271.605 296.546 266.957C292.497 262.968 289.57 260.083 283.324 260.083C277.079 260.083 274.151 262.968 270.103 266.957C265.39 271.605 259.523 277.386 248.213 277.386C236.903 277.386 231.037 271.605 226.324 266.957C222.276 262.968 219.348 260.083 213.102 260.083C206.857 260.083 203.929 262.968 199.881 266.957C195.168 271.605 189.302 277.386 177.992 277.386C166.682 277.386 160.815 271.605 156.102 266.957C152.054 262.968 149.126 260.083 142.881 260.083C136.635 260.083 133.708 262.968 129.659 266.957C124.946 271.605 119.08 277.386 107.77 277.386C96.4601 277.386 90.5936 271.605 85.8807 266.957C81.8324 262.968 78.9047 260.083 72.6592 260.083C66.4138 260.083 63.486 262.968 59.4378 266.957C54.7248 271.605 48.8584 277.386 37.5484 277.386C26.2385 277.386 20.372 271.605 15.6591 266.957C11.6108 262.968 8.68307 260.083 2.43761 260.083C-3.80785 260.083 -6.73558 262.968 -10.7839 266.957C-15.4968 271.605 -21.3633 277.386 -32.6732 277.386C-43.9831 277.386 -49.8496 271.605 -54.5625 266.957C-58.6108 262.968 -61.5385 260.083 -67.784 260.083C-74.0295 260.083 -76.9517 262.968 -81.0055 266.957C-85.7184 271.605 -91.5849 277.386 -102.895 277.386C-114.205 277.386 -120.071 271.605 -124.784 266.957C-128.832 262.968 -131.76 260.083 -138.006 260.083V247.725C-126.696 247.725 -120.829 253.506 -116.116 258.154C-112.068 262.144 -109.14 265.028 -102.895 265.028C-96.6493 265.028 -93.7271 262.144 -89.6733 258.154C-84.9604 253.506 -79.0939 247.725 -67.784 247.725C-56.4741 247.725 -50.6076 253.506 -45.8947 258.154C-41.8464 262.144 -38.9187 265.028 -32.6732 265.028C-26.4277 265.028 -23.5 262.144 -19.4517 258.154C-14.7388 253.506 -8.87233 247.725 2.43761 247.725C13.7476 247.725 19.614 253.506 24.3269 258.154C28.3752 262.144 31.303 265.028 37.5484 265.028C43.7939 265.028 46.7216 262.144 50.7699 258.154C55.4828 253.506 61.3493 247.725 72.6592 247.725C83.9692 247.725 89.8356 253.506 94.5486 258.154C98.5968 262.144 101.525 265.028 107.77 265.028C114.015 265.028 116.943 262.144 120.992 258.154C125.704 253.506 131.571 247.725 142.881 247.725C154.191 247.725 160.057 253.506 164.77 258.154C168.818 262.144 171.746 265.028 177.992 265.028C184.237 265.028 187.165 262.144 191.213 258.154C195.926 253.506 201.793 247.725 213.102 247.725C224.412 247.725 230.279 253.506 234.992 258.154C239.04 262.144 241.968 265.028 248.213 265.028C254.459 265.028 257.386 262.144 261.435 258.154C266.148 253.506 272.014 247.725 283.324 247.725C294.634 247.725 300.5 253.506 305.213 258.154C309.262 262.144 312.189 265.028 318.435 265.028C324.68 265.028 327.608 262.144 331.656 258.154C336.369 253.506 342.236 247.725 353.546 247.725C364.856 247.725 370.722 253.506 375.435 258.154C379.483 262.144 382.411 265.028 388.656 265.028C394.902 265.028 397.83 262.144 401.878 258.154C406.591 253.506 412.457 247.725 423.767 247.725C435.077 247.725 440.944 253.506 445.662 258.154C449.71 262.144 452.638 265.028 458.884 265.028C465.129 265.028 468.057 262.144 472.105 258.154C476.818 253.506 482.69 247.725 494 247.725V260.083C487.754 260.083 484.827 262.968 480.778 266.957C476.065 271.6 470.199 277.386 458.889 277.386Z" fill="#594C9A"/>
<path opacity="0.65" d="M458.889 308.349C447.579 308.349 441.713 302.568 436.994 297.92C432.946 293.931 430.018 291.046 423.773 291.046C417.527 291.046 414.6 293.931 410.551 297.92C405.838 302.568 399.972 308.349 388.656 308.349C377.347 308.349 371.48 302.568 366.767 297.92C362.719 293.931 359.791 291.046 353.546 291.046C347.3 291.046 344.372 293.931 340.324 297.92C335.611 302.568 329.745 308.349 318.435 308.349C307.125 308.349 301.258 302.568 296.546 297.92C292.497 293.931 289.57 291.046 283.324 291.046C277.079 291.046 274.151 293.931 270.103 297.92C265.39 302.568 259.523 308.349 248.213 308.349C236.903 308.349 231.037 302.568 226.324 297.92C222.276 293.931 219.348 291.046 213.102 291.046C206.857 291.046 203.929 293.931 199.881 297.92C195.168 302.568 189.302 308.349 177.992 308.349C166.682 308.349 160.815 302.568 156.102 297.92C152.054 293.931 149.126 291.046 142.881 291.046C136.635 291.046 133.708 293.931 129.659 297.92C124.946 302.568 119.08 308.349 107.77 308.349C96.4601 308.349 90.5936 302.568 85.8807 297.92C81.8324 293.931 78.9047 291.046 72.6592 291.046C66.4138 291.046 63.486 293.931 59.4378 297.92C54.7248 302.568 48.8584 308.349 37.5484 308.349C26.2385 308.349 20.372 302.568 15.6591 297.92C11.6108 293.931 8.68307 291.046 2.43761 291.046C-3.80785 291.046 -6.73558 293.931 -10.7839 297.92C-15.4968 302.568 -21.3633 308.349 -32.6732 308.349C-43.9831 308.349 -49.8496 302.568 -54.5625 297.92C-58.6108 293.931 -61.5385 291.046 -67.784 291.046C-74.0295 291.046 -76.9517 293.931 -81.0055 297.92C-85.7184 302.568 -91.5849 308.349 -102.895 308.349C-114.205 308.349 -120.071 302.568 -124.784 297.92C-128.832 293.931 -131.76 291.046 -138.006 291.046V278.688C-126.696 278.688 -120.829 284.469 -116.116 289.117C-112.068 293.106 -109.14 295.991 -102.895 295.991C-96.6493 295.991 -93.7271 293.106 -89.6733 289.117C-84.9604 284.469 -79.0939 278.688 -67.784 278.688C-56.4741 278.688 -50.6076 284.469 -45.8947 289.117C-41.8464 293.106 -38.9187 295.991 -32.6732 295.991C-26.4277 295.991 -23.5 293.106 -19.4517 289.117C-14.7388 284.469 -8.87233 278.688 2.43761 278.688C13.7476 278.688 19.614 284.469 24.3269 289.117C28.3752 293.106 31.303 295.991 37.5484 295.991C43.7939 295.991 46.7216 293.106 50.7699 289.117C55.4828 284.469 61.3493 278.688 72.6592 278.688C83.9692 278.688 89.8356 284.469 94.5486 289.117C98.5968 293.106 101.525 295.991 107.77 295.991C114.015 295.991 116.943 293.106 120.992 289.117C125.704 284.469 131.571 278.688 142.881 278.688C154.191 278.688 160.057 284.469 164.77 289.117C168.818 293.106 171.746 295.991 177.992 295.991C184.237 295.991 187.165 293.106 191.213 289.117C195.926 284.469 201.793 278.688 213.102 278.688C224.412 278.688 230.279 284.469 234.992 289.117C239.04 293.106 241.968 295.991 248.213 295.991C254.459 295.991 257.386 293.106 261.435 289.117C266.148 284.469 272.014 278.688 283.324 278.688C294.634 278.688 300.5 284.469 305.213 289.117C309.262 293.106 312.189 295.991 318.435 295.991C324.68 295.991 327.608 293.106 331.656 289.117C336.369 284.469 342.236 278.688 353.546 278.688C364.856 278.688 370.722 284.469 375.435 289.117C379.483 293.106 382.411 295.991 388.656 295.991C394.902 295.991 397.83 293.106 401.878 289.117C406.591 284.469 412.457 278.688 423.767 278.688C435.077 278.688 440.944 284.469 445.662 289.117C449.71 293.106 452.638 295.991 458.884 295.991C465.129 295.991 468.057 293.106 472.105 289.117C476.818 284.469 482.69 278.688 494 278.688V291.046C487.754 291.046 484.827 293.931 480.778 297.92C476.065 302.563 470.199 308.349 458.889 308.349Z" fill="#594C9A"/>
<path opacity="0.65" d="M458.889 339.312C447.579 339.312 441.713 333.531 436.994 328.883C432.946 324.894 430.018 322.009 423.773 322.009C417.527 322.009 414.6 324.894 410.551 328.883C405.838 333.531 399.972 339.312 388.656 339.312C377.347 339.312 371.48 333.531 366.767 328.883C362.719 324.894 359.791 322.009 353.546 322.009C347.3 322.009 344.372 324.894 340.324 328.883C335.611 333.531 329.745 339.312 318.435 339.312C307.125 339.312 301.258 333.531 296.546 328.883C292.497 324.894 289.57 322.009 283.324 322.009C277.079 322.009 274.151 324.894 270.103 328.883C265.39 333.531 259.523 339.312 248.213 339.312C236.903 339.312 231.037 333.531 226.324 328.883C222.276 324.894 219.348 322.009 213.102 322.009C206.857 322.009 203.929 324.894 199.881 328.883C195.168 333.531 189.302 339.312 177.992 339.312C166.682 339.312 160.815 333.531 156.102 328.883C152.054 324.894 149.126 322.009 142.881 322.009C136.635 322.009 133.708 324.894 129.659 328.883C124.946 333.531 119.08 339.312 107.77 339.312C96.4601 339.312 90.5936 333.531 85.8807 328.883C81.8324 324.894 78.9047 322.009 72.6592 322.009C66.4138 322.009 63.486 324.894 59.4378 328.883C54.7248 333.531 48.8584 339.312 37.5484 339.312C26.2385 339.312 20.372 333.531 15.6591 328.883C11.6108 324.894 8.68307 322.009 2.43761 322.009C-3.80785 322.009 -6.73558 324.894 -10.7839 328.883C-15.4968 333.531 -21.3633 339.312 -32.6732 339.312C-43.9831 339.312 -49.8496 333.531 -54.5625 328.883C-58.6108 324.894 -61.5385 322.009 -67.784 322.009C-74.0295 322.009 -76.9517 324.894 -81.0055 328.883C-85.7184 333.531 -91.5849 339.312 -102.895 339.312C-114.205 339.312 -120.071 333.531 -124.784 328.883C-128.832 324.894 -131.76 322.009 -138.006 322.009V309.651C-126.696 309.651 -120.829 315.432 -116.116 320.08C-112.068 324.069 -109.14 326.954 -102.895 326.954C-96.6493 326.954 -93.7271 324.069 -89.6733 320.08C-84.9604 315.432 -79.0939 309.651 -67.784 309.651C-56.4741 309.651 -50.6076 315.432 -45.8947 320.08C-41.8464 324.069 -38.9187 326.954 -32.6732 326.954C-26.4277 326.954 -23.5 324.069 -19.4517 320.08C-14.7388 315.432 -8.87233 309.651 2.43761 309.651C13.7476 309.651 19.614 315.432 24.3269 320.08C28.3752 324.069 31.303 326.954 37.5484 326.954C43.7939 326.954 46.7216 324.069 50.7699 320.08C55.4828 315.432 61.3493 309.651 72.6592 309.651C83.9692 309.651 89.8356 315.432 94.5486 320.08C98.5968 324.069 101.525 326.954 107.77 326.954C114.015 326.954 116.943 324.069 120.992 320.08C125.704 315.432 131.571 309.651 142.881 309.651C154.191 309.651 160.057 315.432 164.77 320.08C168.818 324.069 171.746 326.954 177.992 326.954C184.237 326.954 187.165 324.069 191.213 320.08C195.926 315.432 201.793 309.651 213.102 309.651C224.412 309.651 230.279 315.432 234.992 320.08C239.04 324.069 241.968 326.954 248.213 326.954C254.459 326.954 257.386 324.069 261.435 320.08C266.148 315.432 272.014 309.651 283.324 309.651C294.634 309.651 300.5 315.432 305.213 320.08C309.262 324.069 312.189 326.954 318.435 326.954C324.68 326.954 327.608 324.069 331.656 320.08C336.369 315.432 342.236 309.651 353.546 309.651C364.856 309.651 370.722 315.432 375.435 320.08C379.483 324.069 382.411 326.954 388.656 326.954C394.902 326.954 397.83 324.069 401.878 320.08C406.591 315.432 412.457 309.651 423.767 309.651C435.077 309.651 440.944 315.432 445.662 320.08C449.71 324.069 452.638 326.954 458.884 326.954C465.129 326.954 468.057 324.069 472.105 320.08C476.818 315.432 482.69 309.651 494 309.651V322.009C487.754 322.009 484.827 324.894 480.778 328.883C476.065 333.531 470.199 339.312 458.889 339.312Z" fill="#594C9A"/>
<path opacity="0.65" d="M458.889 370.28C447.579 370.28 441.713 364.5 436.994 359.851C432.946 355.862 430.018 352.977 423.773 352.977C417.527 352.977 414.6 355.862 410.551 359.851C405.838 364.5 399.972 370.28 388.656 370.28C377.347 370.28 371.48 364.5 366.767 359.851C362.719 355.862 359.791 352.977 353.546 352.977C347.3 352.977 344.372 355.862 340.324 359.851C335.611 364.5 329.745 370.28 318.435 370.28C307.125 370.28 301.258 364.5 296.546 359.851C292.497 355.862 289.57 352.977 283.324 352.977C277.079 352.977 274.151 355.862 270.103 359.851C265.39 364.5 259.523 370.28 248.213 370.28C236.903 370.28 231.037 364.5 226.324 359.851C222.276 355.862 219.348 352.977 213.102 352.977C206.857 352.977 203.929 355.862 199.881 359.851C195.168 364.5 189.302 370.28 177.992 370.28C166.682 370.28 160.815 364.5 156.102 359.851C152.054 355.862 149.126 352.977 142.881 352.977C136.635 352.977 133.708 355.862 129.659 359.851C124.946 364.5 119.08 370.28 107.77 370.28C96.4601 370.28 90.5936 364.5 85.8807 359.851C81.8324 355.862 78.9047 352.977 72.6592 352.977C66.4138 352.977 63.486 355.862 59.4378 359.851C54.7248 364.5 48.8584 370.28 37.5484 370.28C26.2385 370.28 20.372 364.5 15.6591 359.851C11.6108 355.862 8.68307 352.977 2.43761 352.977C-3.80785 352.977 -6.73558 355.862 -10.7839 359.851C-15.4968 364.5 -21.3633 370.28 -32.6732 370.28C-43.9831 370.28 -49.8496 364.5 -54.5625 359.851C-58.6108 355.862 -61.5385 352.977 -67.784 352.977C-74.0295 352.977 -76.9517 355.862 -81.0055 359.851C-85.7184 364.5 -91.5849 370.28 -102.895 370.28C-114.205 370.28 -120.071 364.5 -124.784 359.851C-128.832 355.862 -131.76 352.977 -138.006 352.977V340.62C-126.696 340.62 -120.829 346.4 -116.116 351.049C-112.068 355.038 -109.14 357.923 -102.895 357.923C-96.6493 357.923 -93.7271 355.038 -89.6733 351.049C-84.9604 346.4 -79.0939 340.62 -67.784 340.62C-56.4741 340.62 -50.6076 346.4 -45.8947 351.049C-41.8464 355.038 -38.9187 357.923 -32.6732 357.923C-26.4277 357.923 -23.5 355.038 -19.4517 351.049C-14.7388 346.4 -8.87233 340.62 2.43761 340.62C13.7476 340.62 19.614 346.4 24.3269 351.049C28.3752 355.038 31.303 357.923 37.5484 357.923C43.7939 357.923 46.7216 355.038 50.7699 351.049C55.4828 346.4 61.3493 340.62 72.6592 340.62C83.9692 340.62 89.8356 346.4 94.5486 351.049C98.5968 355.038 101.525 357.923 107.77 357.923C114.015 357.923 116.943 355.038 120.992 351.049C125.704 346.4 131.571 340.62 142.881 340.62C154.191 340.62 160.057 346.4 164.77 351.049C168.818 355.038 171.746 357.923 177.992 357.923C184.237 357.923 187.165 355.038 191.213 351.049C195.926 346.4 201.793 340.62 213.102 340.62C224.412 340.62 230.279 346.4 234.992 351.049C239.04 355.038 241.968 357.923 248.213 357.923C254.459 357.923 257.386 355.038 261.435 351.049C266.148 346.4 272.014 340.62 283.324 340.62C294.634 340.62 300.5 346.4 305.213 351.049C309.262 355.038 312.189 357.923 318.435 357.923C324.68 357.923 327.608 355.038 331.656 351.049C336.369 346.4 342.236 340.62 353.546 340.62C364.856 340.62 370.722 346.4 375.435 351.049C379.483 355.038 382.411 357.923 388.656 357.923C394.902 357.923 397.83 355.038 401.878 351.049C406.591 346.4 412.457 340.62 423.767 340.62C435.077 340.62 440.944 346.4 445.662 351.049C449.71 355.038 452.638 357.923 458.884 357.923C465.129 357.923 468.057 355.038 472.105 351.049C476.818 346.4 482.69 340.62 494 340.62V352.977C487.754 352.977 484.827 355.862 480.778 359.851C476.065 364.494 470.199 370.28 458.889 370.28Z" fill="#594C9A"/>
<path opacity="0.65" d="M458.889 401.243C447.579 401.243 441.713 395.463 436.994 390.814C432.946 386.825 430.018 383.94 423.773 383.94C417.527 383.94 414.6 386.825 410.551 390.814C405.838 395.463 399.972 401.243 388.656 401.243C377.347 401.243 371.48 395.463 366.767 390.814C362.719 386.825 359.791 383.94 353.546 383.94C347.3 383.94 344.372 386.825 340.324 390.814C335.611 395.463 329.745 401.243 318.435 401.243C307.125 401.243 301.258 395.463 296.546 390.814C292.497 386.825 289.57 383.94 283.324 383.94C277.079 383.94 274.151 386.825 270.103 390.814C265.39 395.463 259.523 401.243 248.213 401.243C236.903 401.243 231.037 395.463 226.324 390.814C222.276 386.825 219.348 383.94 213.102 383.94C206.857 383.94 203.929 386.825 199.881 390.814C195.168 395.463 189.302 401.243 177.992 401.243C166.682 401.243 160.815 395.463 156.102 390.814C152.054 386.825 149.126 383.94 142.881 383.94C136.635 383.94 133.708 386.825 129.659 390.814C124.946 395.463 119.08 401.243 107.77 401.243C96.4601 401.243 90.5936 395.463 85.8807 390.814C81.8324 386.825 78.9047 383.94 72.6592 383.94C66.4138 383.94 63.486 386.825 59.4378 390.814C54.7248 395.463 48.8584 401.243 37.5484 401.243C26.2385 401.243 20.372 395.463 15.6591 390.814C11.6108 386.825 8.68307 383.94 2.43761 383.94C-3.80785 383.94 -6.73558 386.825 -10.7839 390.814C-15.4968 395.463 -21.3633 401.243 -32.6732 401.243C-43.9831 401.243 -49.8496 395.463 -54.5625 390.814C-58.6108 386.825 -61.5385 383.94 -67.784 383.94C-74.0295 383.94 -76.9517 386.825 -81.0055 390.814C-85.7184 395.463 -91.5849 401.243 -102.895 401.243C-114.205 401.243 -120.071 395.463 -124.784 390.814C-128.832 386.825 -131.76 383.94 -138.006 383.94V371.582C-126.696 371.582 -120.829 377.363 -116.116 382.012C-112.068 386.001 -109.14 388.885 -102.895 388.885C-96.6493 388.885 -93.7271 386.001 -89.6733 382.012C-84.9604 377.363 -79.0939 371.582 -67.784 371.582C-56.4741 371.582 -50.6076 377.363 -45.8947 382.012C-41.8464 386.001 -38.9187 388.885 -32.6732 388.885C-26.4277 388.885 -23.5 386.001 -19.4517 382.012C-14.7388 377.363 -8.87233 371.582 2.43761 371.582C13.7476 371.582 19.614 377.363 24.3269 382.012C28.3752 386.001 31.303 388.885 37.5484 388.885C43.7939 388.885 46.7216 386.001 50.7699 382.012C55.4828 377.363 61.3493 371.582 72.6592 371.582C83.9692 371.582 89.8356 377.363 94.5486 382.012C98.5968 386.001 101.525 388.885 107.77 388.885C114.015 388.885 116.943 386.001 120.992 382.012C125.704 377.363 131.571 371.582 142.881 371.582C154.191 371.582 160.057 377.363 164.77 382.012C168.818 386.001 171.746 388.885 177.992 388.885C184.237 388.885 187.165 386.001 191.213 382.012C195.926 377.363 201.793 371.582 213.102 371.582C224.412 371.582 230.279 377.363 234.992 382.012C239.04 386.001 241.968 388.885 248.213 388.885C254.459 388.885 257.386 386.001 261.435 382.012C266.148 377.363 272.014 371.582 283.324 371.582C294.634 371.582 300.5 377.363 305.213 382.012C309.262 386.001 312.189 388.885 318.435 388.885C324.68 388.885 327.608 386.001 331.656 382.012C336.369 377.363 342.236 371.582 353.546 371.582C364.856 371.582 370.722 377.363 375.435 382.012C379.483 386.001 382.411 388.885 388.656 388.885C394.902 388.885 397.83 386.001 401.878 382.012C406.591 377.363 412.457 371.582 423.767 371.582C435.077 371.582 440.944 377.363 445.662 382.012C449.71 386.001 452.638 388.885 458.884 388.885C465.129 388.885 468.057 386.001 472.105 382.012C476.818 377.363 482.69 371.582 494 371.582V383.94C487.754 383.94 484.827 386.825 480.778 390.814C476.065 395.463 470.199 401.243 458.889 401.243Z" fill="#594C9A"/>
<path opacity="0.65" d="M458.889 432.206C447.579 432.206 441.713 426.426 436.994 421.777C432.946 417.788 430.018 414.903 423.773 414.903C417.527 414.903 414.6 417.788 410.551 421.777C405.838 426.426 399.972 432.206 388.656 432.206C377.347 432.206 371.48 426.426 366.767 421.777C362.719 417.788 359.791 414.903 353.546 414.903C347.3 414.903 344.372 417.788 340.324 421.777C335.611 426.426 329.745 432.206 318.435 432.206C307.125 432.206 301.258 426.426 296.546 421.777C292.497 417.788 289.57 414.903 283.324 414.903C277.079 414.903 274.151 417.788 270.103 421.777C265.39 426.426 259.523 432.206 248.213 432.206C236.903 432.206 231.037 426.426 226.324 421.777C222.276 417.788 219.348 414.903 213.102 414.903C206.857 414.903 203.929 417.788 199.881 421.777C195.168 426.426 189.302 432.206 177.992 432.206C166.682 432.206 160.815 426.426 156.102 421.777C152.054 417.788 149.126 414.903 142.881 414.903C136.635 414.903 133.708 417.788 129.659 421.777C124.946 426.426 119.08 432.206 107.77 432.206C96.4601 432.206 90.5936 426.426 85.8807 421.777C81.8324 417.788 78.9047 414.903 72.6592 414.903C66.4138 414.903 63.486 417.788 59.4378 421.777C54.7248 426.426 48.8584 432.206 37.5484 432.206C26.2385 432.206 20.372 426.426 15.6591 421.777C11.6108 417.788 8.68307 414.903 2.43761 414.903C-3.80785 414.903 -6.73558 417.788 -10.7839 421.777C-15.4968 426.426 -21.3633 432.206 -32.6732 432.206C-43.9831 432.206 -49.8496 426.426 -54.5625 421.777C-58.6108 417.788 -61.5385 414.903 -67.784 414.903C-74.0295 414.903 -76.9517 417.788 -81.0055 421.777C-85.7184 426.426 -91.5849 432.206 -102.895 432.206C-114.205 432.206 -120.071 426.426 -124.784 421.777C-128.832 417.788 -131.76 414.903 -138.006 414.903V402.545C-126.696 402.545 -120.829 408.326 -116.116 412.974C-112.068 416.964 -109.14 419.848 -102.895 419.848C-96.6493 419.848 -93.7271 416.964 -89.6733 412.974C-84.9604 408.326 -79.0939 402.545 -67.784 402.545C-56.4741 402.545 -50.6076 408.326 -45.8947 412.974C-41.8464 416.964 -38.9187 419.848 -32.6732 419.848C-26.4277 419.848 -23.5 416.964 -19.4517 412.974C-14.7388 408.326 -8.87233 402.545 2.43761 402.545C13.7476 402.545 19.614 408.326 24.3269 412.974C28.3752 416.964 31.303 419.848 37.5484 419.848C43.7939 419.848 46.7216 416.964 50.7699 412.974C55.4828 408.326 61.3493 402.545 72.6592 402.545C83.9692 402.545 89.8356 408.326 94.5486 412.974C98.5968 416.964 101.525 419.848 107.77 419.848C114.015 419.848 116.943 416.964 120.992 412.974C125.704 408.326 131.571 402.545 142.881 402.545C154.191 402.545 160.057 408.326 164.77 412.974C168.818 416.964 171.746 419.848 177.992 419.848C184.237 419.848 187.165 416.964 191.213 412.974C195.926 408.326 201.793 402.545 213.102 402.545C224.412 402.545 230.279 408.326 234.992 412.974C239.04 416.964 241.968 419.848 248.213 419.848C254.459 419.848 257.386 416.964 261.435 412.974C266.148 408.326 272.014 402.545 283.324 402.545C294.634 402.545 300.5 408.326 305.213 412.974C309.262 416.964 312.189 419.848 318.435 419.848C324.68 419.848 327.608 416.964 331.656 412.974C336.369 408.326 342.236 402.545 353.546 402.545C364.856 402.545 370.722 408.326 375.435 412.974C379.483 416.964 382.411 419.848 388.656 419.848C394.902 419.848 397.83 416.964 401.878 412.974C406.591 408.326 412.457 402.545 423.767 402.545C435.077 402.545 440.944 408.326 445.662 412.974C449.71 416.964 452.638 419.848 458.884 419.848C465.129 419.848 468.057 416.964 472.105 412.974C476.818 408.326 482.69 402.545 494 402.545V414.903C487.754 414.903 484.827 417.788 480.778 421.777C476.065 426.426 470.199 432.206 458.889 432.206Z" fill="#594C9A"/>
<path opacity="0.65" d="M458.889 463.174C447.579 463.174 441.713 457.394 436.994 452.745C432.946 448.756 430.018 445.871 423.773 445.871C417.527 445.871 414.6 448.756 410.551 452.745C405.838 457.394 399.972 463.174 388.656 463.174C377.347 463.174 371.48 457.394 366.767 452.745C362.719 448.756 359.791 445.871 353.546 445.871C347.3 445.871 344.372 448.756 340.324 452.745C335.611 457.394 329.745 463.174 318.435 463.174C307.125 463.174 301.258 457.394 296.546 452.745C292.497 448.756 289.57 445.871 283.324 445.871C277.079 445.871 274.151 448.756 270.103 452.745C265.39 457.394 259.523 463.174 248.213 463.174C236.903 463.174 231.037 457.394 226.324 452.745C222.276 448.756 219.348 445.871 213.102 445.871C206.857 445.871 203.929 448.756 199.881 452.745C195.168 457.394 189.302 463.174 177.992 463.174C166.682 463.174 160.815 457.394 156.102 452.745C152.054 448.756 149.126 445.871 142.881 445.871C136.635 445.871 133.708 448.756 129.659 452.745C124.946 457.394 119.08 463.174 107.77 463.174C96.4601 463.174 90.5936 457.394 85.8807 452.745C81.8324 448.756 78.9047 445.871 72.6592 445.871C66.4138 445.871 63.486 448.756 59.4378 452.745C54.7248 457.394 48.8584 463.174 37.5484 463.174C26.2385 463.174 20.372 457.394 15.6591 452.745C11.6108 448.756 8.68307 445.871 2.43761 445.871C-3.80785 445.871 -6.73558 448.756 -10.7839 452.745C-15.4968 457.394 -21.3633 463.174 -32.6732 463.174C-43.9831 463.174 -49.8496 457.394 -54.5625 452.745C-58.6108 448.756 -61.5385 445.871 -67.784 445.871C-74.0295 445.871 -76.9517 448.756 -81.0055 452.745C-85.7184 457.394 -91.5849 463.174 -102.895 463.174C-114.205 463.174 -120.071 457.394 -124.784 452.745C-128.832 448.756 -131.76 445.871 -138.006 445.871V433.514C-126.696 433.514 -120.829 439.294 -116.116 443.943C-112.068 447.932 -109.14 450.817 -102.895 450.817C-96.6493 450.817 -93.7271 447.932 -89.6733 443.943C-84.9604 439.294 -79.0939 433.514 -67.784 433.514C-56.4741 433.514 -50.6076 439.294 -45.8947 443.943C-41.8464 447.932 -38.9187 450.817 -32.6732 450.817C-26.4277 450.817 -23.5 447.932 -19.4517 443.943C-14.7388 439.294 -8.87233 433.514 2.43761 433.514C13.7476 433.514 19.614 439.294 24.3269 443.943C28.3752 447.932 31.303 450.817 37.5484 450.817C43.7939 450.817 46.7216 447.932 50.7699 443.943C55.4828 439.294 61.3493 433.514 72.6592 433.514C83.9692 433.514 89.8356 439.294 94.5486 443.943C98.5968 447.932 101.525 450.817 107.77 450.817C114.015 450.817 116.943 447.932 120.992 443.943C125.704 439.294 131.571 433.514 142.881 433.514C154.191 433.514 160.057 439.294 164.77 443.943C168.818 447.932 171.746 450.817 177.992 450.817C184.237 450.817 187.165 447.932 191.213 443.943C195.926 439.294 201.793 433.514 213.102 433.514C224.412 433.514 230.279 439.294 234.992 443.943C239.04 447.932 241.968 450.817 248.213 450.817C254.459 450.817 257.386 447.932 261.435 443.943C266.148 439.294 272.014 433.514 283.324 433.514C294.634 433.514 300.5 439.294 305.213 443.943C309.262 447.932 312.189 450.817 318.435 450.817C324.68 450.817 327.608 447.932 331.656 443.943C336.369 439.294 342.236 433.514 353.546 433.514C364.856 433.514 370.722 439.294 375.435 443.943C379.483 447.932 382.411 450.817 388.656 450.817C394.902 450.817 397.83 447.932 401.878 443.943C406.591 439.294 412.457 433.514 423.767 433.514C435.077 433.514 440.944 439.294 445.662 443.943C449.71 447.932 452.638 450.817 458.884 450.817C465.129 450.817 468.057 447.932 472.105 443.943C476.818 439.294 482.69 433.514 494 433.514V445.871C487.754 445.871 484.827 448.756 480.778 452.745C476.065 457.388 470.199 463.174 458.889 463.174Z" fill="#594C9A"/>
<path opacity="0.65" d="M458.889 494.137C447.579 494.137 441.713 488.357 436.994 483.708C432.946 479.719 430.018 476.834 423.773 476.834C417.527 476.834 414.6 479.719 410.551 483.708C405.839 488.357 399.972 494.137 388.657 494.137C377.347 494.137 371.48 488.357 366.767 483.708C362.719 479.719 359.791 476.834 353.546 476.834C347.3 476.834 344.373 479.719 340.324 483.708C335.611 488.357 329.745 494.137 318.435 494.137C307.125 494.137 301.259 488.357 296.546 483.708C292.497 479.719 289.57 476.834 283.324 476.834C277.079 476.834 274.151 479.719 270.103 483.708C265.39 488.357 259.523 494.137 248.213 494.137C236.903 494.137 231.037 488.357 226.324 483.708C222.276 479.719 219.348 476.834 213.103 476.834C206.857 476.834 203.929 479.719 199.881 483.708C195.168 488.357 189.302 494.137 177.992 494.137C166.682 494.137 160.815 488.357 156.102 483.708C152.054 479.719 149.126 476.834 142.881 476.834C136.636 476.834 133.708 479.719 129.659 483.708C124.947 488.357 119.08 494.137 107.77 494.137C96.4602 494.137 90.5938 488.357 85.8808 483.708C81.8325 479.719 78.9048 476.834 72.6594 476.834C66.4139 476.834 63.4862 479.719 59.4379 483.708C54.7249 488.357 48.8585 494.137 37.5485 494.137C26.2386 494.137 20.3721 488.357 15.6592 483.708C11.6109 479.719 8.6832 476.834 2.43774 476.834C-3.80773 476.834 -6.73545 479.719 -10.7837 483.708C-15.4967 488.357 -21.3631 494.137 -32.6731 494.137C-43.983 494.137 -49.8495 488.357 -54.5624 483.708C-58.6107 479.719 -61.5384 476.834 -67.7839 476.834C-74.0293 476.834 -76.9516 479.719 -81.0054 483.708C-85.7183 488.357 -91.5847 494.137 -102.895 494.137C-114.205 494.137 -120.071 488.357 -124.784 483.708C-128.832 479.719 -131.755 476.834 -138 476.834V464.477C-126.69 464.477 -120.824 470.257 -116.111 474.906C-112.062 478.895 -109.135 481.78 -102.889 481.78C-96.6437 481.78 -93.7215 478.895 -89.6677 474.906C-84.9548 470.257 -79.0883 464.477 -67.7784 464.477C-56.4684 464.477 -50.602 470.257 -45.8891 474.906C-41.8408 478.895 -38.913 481.78 -32.6676 481.78C-26.4221 481.78 -23.4944 478.895 -19.4461 474.906C-14.7332 470.257 -8.86672 464.477 2.44323 464.477C13.7532 464.477 19.6196 470.257 24.3326 474.906C28.3808 478.895 31.3086 481.78 37.554 481.78C43.7995 481.78 46.7272 478.895 50.7755 474.906C55.4885 470.257 61.3549 464.477 72.6648 464.477C83.9748 464.477 89.8412 470.257 94.5542 474.906C98.6025 478.895 101.53 481.78 107.776 481.78C114.021 481.78 116.949 478.895 120.997 474.906C125.71 470.257 131.577 464.477 142.886 464.477C154.196 464.477 160.063 470.257 164.776 474.906C168.824 478.895 171.752 481.78 177.997 481.78C184.243 481.78 187.17 478.895 191.219 474.906C195.932 470.257 201.798 464.477 213.108 464.477C224.418 464.477 230.284 470.257 234.997 474.906C239.046 478.895 241.973 481.78 248.219 481.78C254.464 481.78 257.392 478.895 261.44 474.906C266.153 470.257 272.02 464.477 283.33 464.477C294.64 464.477 300.506 470.257 305.219 474.906C309.267 478.895 312.195 481.78 318.441 481.78C324.686 481.78 327.614 478.895 331.662 474.906C336.375 470.257 342.241 464.477 353.551 464.477C364.861 464.477 370.728 470.257 375.441 474.906C379.489 478.895 382.417 481.78 388.662 481.78C394.908 481.78 397.835 478.895 401.884 474.906C406.597 470.257 412.463 464.477 423.773 464.477C435.083 464.477 440.949 470.257 445.668 474.906C449.716 478.895 452.644 481.78 458.889 481.78C465.135 481.78 468.062 478.895 472.111 474.906C476.824 470.257 482.696 464.477 494.005 464.477V476.834C487.76 476.834 484.832 479.719 480.784 483.708C476.066 488.357 470.199 494.137 458.889 494.137Z" fill="#594C9A"/>
<path opacity="0.65" d="M458.889 525.1C447.579 525.1 441.713 519.32 436.994 514.671C432.946 510.682 430.018 507.797 423.773 507.797C417.527 507.797 414.6 510.682 410.551 514.671C405.838 519.32 399.972 525.1 388.656 525.1C377.347 525.1 371.48 519.32 366.767 514.671C362.719 510.682 359.791 507.797 353.546 507.797C347.3 507.797 344.372 510.682 340.324 514.671C335.611 519.32 329.745 525.1 318.435 525.1C307.125 525.1 301.258 519.32 296.546 514.671C292.497 510.682 289.57 507.797 283.324 507.797C277.079 507.797 274.151 510.682 270.103 514.671C265.39 519.32 259.523 525.1 248.213 525.1C236.903 525.1 231.037 519.32 226.324 514.671C222.276 510.682 219.348 507.797 213.102 507.797C206.857 507.797 203.929 510.682 199.881 514.671C195.168 519.32 189.302 525.1 177.992 525.1C166.682 525.1 160.815 519.32 156.102 514.671C152.054 510.682 149.126 507.797 142.881 507.797C136.635 507.797 133.708 510.682 129.659 514.671C124.946 519.32 119.08 525.1 107.77 525.1C96.4601 525.1 90.5936 519.32 85.8807 514.671C81.8324 510.682 78.9047 507.797 72.6592 507.797C66.4138 507.797 63.486 510.682 59.4378 514.671C54.7248 519.32 48.8584 525.1 37.5484 525.1C26.2385 525.1 20.372 519.32 15.6591 514.671C11.6108 510.682 8.68307 507.797 2.43761 507.797C-3.80785 507.797 -6.73558 510.682 -10.7839 514.671C-15.4968 519.32 -21.3633 525.1 -32.6732 525.1C-43.9831 525.1 -49.8496 519.32 -54.5625 514.671C-58.6108 510.682 -61.5385 507.797 -67.784 507.797C-74.0295 507.797 -76.9517 510.682 -81.0055 514.671C-85.7184 519.32 -91.5849 525.1 -102.895 525.1C-114.205 525.1 -120.071 519.32 -124.784 514.671C-128.832 510.682 -131.76 507.797 -138.006 507.797V495.44C-126.696 495.44 -120.829 501.22 -116.116 505.869C-112.068 509.858 -109.14 512.743 -102.895 512.743C-96.6493 512.743 -93.7271 509.858 -89.6733 505.869C-84.9604 501.22 -79.0939 495.44 -67.784 495.44C-56.4741 495.44 -50.6076 501.22 -45.8947 505.869C-41.8464 509.858 -38.9187 512.743 -32.6732 512.743C-26.4277 512.743 -23.5 509.858 -19.4517 505.869C-14.7388 501.22 -8.87233 495.44 2.43761 495.44C13.7476 495.44 19.614 501.22 24.3269 505.869C28.3752 509.858 31.303 512.743 37.5484 512.743C43.7939 512.743 46.7216 509.858 50.7699 505.869C55.4828 501.22 61.3493 495.44 72.6592 495.44C83.9692 495.44 89.8356 501.22 94.5486 505.869C98.5968 509.858 101.525 512.743 107.77 512.743C114.015 512.743 116.943 509.858 120.992 505.869C125.704 501.22 131.571 495.44 142.881 495.44C154.191 495.44 160.057 501.22 164.77 505.869C168.818 509.858 171.746 512.743 177.992 512.743C184.237 512.743 187.165 509.858 191.213 505.869C195.926 501.22 201.793 495.44 213.102 495.44C224.412 495.44 230.279 501.22 234.992 505.869C239.04 509.858 241.968 512.743 248.213 512.743C254.459 512.743 257.386 509.858 261.435 505.869C266.148 501.22 272.014 495.44 283.324 495.44C294.634 495.44 300.5 501.22 305.213 505.869C309.262 509.858 312.189 512.743 318.435 512.743C324.68 512.743 327.608 509.858 331.656 505.869C336.369 501.22 342.236 495.44 353.546 495.44C364.856 495.44 370.722 501.22 375.435 505.869C379.483 509.858 382.411 512.743 388.656 512.743C394.902 512.743 397.83 509.858 401.878 505.869C406.591 501.22 412.457 495.44 423.767 495.44C435.077 495.44 440.944 501.22 445.662 505.869C449.71 509.858 452.638 512.743 458.884 512.743C465.129 512.743 468.057 509.858 472.105 505.869C476.818 501.22 482.69 495.44 494 495.44V507.797C487.754 507.797 484.827 510.682 480.778 514.671C476.065 519.32 470.199 525.1 458.889 525.1Z" fill="#594C9A"/>
<path opacity="0.65" d="M458.889 556.069C447.579 556.069 441.713 550.288 436.994 545.64C432.946 541.65 430.018 538.766 423.773 538.766C417.527 538.766 414.6 541.65 410.551 545.64C405.838 550.288 399.972 556.069 388.656 556.069C377.347 556.069 371.48 550.288 366.767 545.64C362.719 541.65 359.791 538.766 353.546 538.766C347.3 538.766 344.372 541.65 340.324 545.64C335.611 550.288 329.745 556.069 318.435 556.069C307.125 556.069 301.258 550.288 296.546 545.64C292.497 541.65 289.57 538.766 283.324 538.766C277.079 538.766 274.151 541.65 270.103 545.64C265.39 550.288 259.523 556.069 248.213 556.069C236.903 556.069 231.037 550.288 226.324 545.64C222.276 541.65 219.348 538.766 213.102 538.766C206.857 538.766 203.929 541.65 199.881 545.64C195.168 550.288 189.302 556.069 177.992 556.069C166.682 556.069 160.815 550.288 156.102 545.64C152.054 541.65 149.126 538.766 142.881 538.766C136.635 538.766 133.708 541.65 129.659 545.64C124.946 550.288 119.08 556.069 107.77 556.069C96.4601 556.069 90.5936 550.288 85.8807 545.64C81.8324 541.65 78.9047 538.766 72.6592 538.766C66.4138 538.766 63.486 541.65 59.4378 545.64C54.7248 550.288 48.8584 556.069 37.5484 556.069C26.2385 556.069 20.372 550.288 15.6591 545.64C11.6108 541.65 8.68307 538.766 2.43761 538.766C-3.80785 538.766 -6.73558 541.65 -10.7839 545.64C-15.4968 550.288 -21.3633 556.069 -32.6732 556.069C-43.9831 556.069 -49.8496 550.288 -54.5625 545.64C-58.6108 541.65 -61.5385 538.766 -67.784 538.766C-74.0295 538.766 -76.9517 541.65 -81.0055 545.64C-85.7184 550.288 -91.5849 556.069 -102.895 556.069C-114.205 556.069 -120.071 550.288 -124.784 545.64C-128.832 541.65 -131.76 538.766 -138.006 538.766V526.408C-126.696 526.408 -120.829 532.188 -116.116 536.837C-112.068 540.826 -109.14 543.711 -102.895 543.711C-96.6493 543.711 -93.7271 540.826 -89.6733 536.837C-84.9604 532.188 -79.0939 526.408 -67.784 526.408C-56.4741 526.408 -50.6076 532.188 -45.8947 536.837C-41.8464 540.826 -38.9187 543.711 -32.6732 543.711C-26.4277 543.711 -23.5 540.826 -19.4517 536.837C-14.7388 532.188 -8.87233 526.408 2.43761 526.408C13.7476 526.408 19.614 532.188 24.3269 536.837C28.3752 540.826 31.303 543.711 37.5484 543.711C43.7939 543.711 46.7216 540.826 50.7699 536.837C55.4828 532.188 61.3493 526.408 72.6592 526.408C83.9692 526.408 89.8356 532.188 94.5486 536.837C98.5968 540.826 101.525 543.711 107.77 543.711C114.015 543.711 116.943 540.826 120.992 536.837C125.704 532.188 131.571 526.408 142.881 526.408C154.191 526.408 160.057 532.188 164.77 536.837C168.818 540.826 171.746 543.711 177.992 543.711C184.237 543.711 187.165 540.826 191.213 536.837C195.926 532.188 201.793 526.408 213.102 526.408C224.412 526.408 230.279 532.188 234.992 536.837C239.04 540.826 241.968 543.711 248.213 543.711C254.459 543.711 257.386 540.826 261.435 536.837C266.148 532.188 272.014 526.408 283.324 526.408C294.634 526.408 300.5 532.188 305.213 536.837C309.262 540.826 312.189 543.711 318.435 543.711C324.68 543.711 327.608 540.826 331.656 536.837C336.369 532.188 342.236 526.408 353.546 526.408C364.856 526.408 370.722 532.188 375.435 536.837C379.483 540.826 382.411 543.711 388.656 543.711C394.902 543.711 397.83 540.826 401.878 536.837C406.591 532.188 412.457 526.408 423.767 526.408C435.077 526.408 440.944 532.188 445.662 536.837C449.71 540.826 452.638 543.711 458.884 543.711C465.129 543.711 468.057 540.826 472.105 536.837C476.818 532.188 482.69 526.408 494 526.408V538.766C487.754 538.766 484.827 541.65 480.778 545.64C476.065 550.283 470.199 556.069 458.889 556.069Z" fill="#594C9A"/>
<path opacity="0.65" d="M458.889 587.032C447.579 587.032 441.713 581.251 436.994 576.603C432.946 572.613 430.018 569.729 423.773 569.729C417.527 569.729 414.6 572.613 410.551 576.603C405.838 581.251 399.972 587.032 388.656 587.032C377.347 587.032 371.48 581.251 366.767 576.603C362.719 572.613 359.791 569.729 353.546 569.729C347.3 569.729 344.372 572.613 340.324 576.603C335.611 581.251 329.745 587.032 318.435 587.032C307.125 587.032 301.258 581.251 296.546 576.603C292.497 572.613 289.57 569.729 283.324 569.729C277.079 569.729 274.151 572.613 270.103 576.603C265.39 581.251 259.523 587.032 248.213 587.032C236.903 587.032 231.037 581.251 226.324 576.603C222.276 572.613 219.348 569.729 213.102 569.729C206.857 569.729 203.929 572.613 199.881 576.603C195.168 581.251 189.302 587.032 177.992 587.032C166.682 587.032 160.815 581.251 156.102 576.603C152.054 572.613 149.126 569.729 142.881 569.729C136.635 569.729 133.708 572.613 129.659 576.603C124.946 581.251 119.08 587.032 107.77 587.032C96.4601 587.032 90.5936 581.251 85.8807 576.603C81.8324 572.613 78.9047 569.729 72.6592 569.729C66.4138 569.729 63.486 572.613 59.4378 576.603C54.7248 581.251 48.8584 587.032 37.5484 587.032C26.2385 587.032 20.372 581.251 15.6591 576.603C11.6108 572.613 8.68307 569.729 2.43761 569.729C-3.80785 569.729 -6.73558 572.613 -10.7839 576.603C-15.4968 581.251 -21.3633 587.032 -32.6732 587.032C-43.9831 587.032 -49.8496 581.251 -54.5625 576.603C-58.6108 572.613 -61.5385 569.729 -67.784 569.729C-74.0295 569.729 -76.9517 572.613 -81.0055 576.603C-85.7184 581.251 -91.5849 587.032 -102.895 587.032C-114.205 587.032 -120.071 581.251 -124.784 576.603C-128.832 572.613 -131.76 569.729 -138.006 569.729V557.371C-126.696 557.371 -120.829 563.151 -116.116 567.8C-112.068 571.789 -109.14 574.674 -102.895 574.674C-96.6493 574.674 -93.7271 571.789 -89.6733 567.8C-84.9604 563.151 -79.0939 557.371 -67.784 557.371C-56.4741 557.371 -50.6076 563.151 -45.8947 567.8C-41.8464 571.789 -38.9187 574.674 -32.6732 574.674C-26.4277 574.674 -23.5 571.789 -19.4517 567.8C-14.7388 563.151 -8.87233 557.371 2.43761 557.371C13.7476 557.371 19.614 563.151 24.3269 567.8C28.3752 571.789 31.303 574.674 37.5484 574.674C43.7939 574.674 46.7216 571.789 50.7699 567.8C55.4828 563.151 61.3493 557.371 72.6592 557.371C83.9692 557.371 89.8356 563.151 94.5486 567.8C98.5968 571.789 101.525 574.674 107.77 574.674C114.015 574.674 116.943 571.789 120.992 567.8C125.704 563.151 131.571 557.371 142.881 557.371C154.191 557.371 160.057 563.151 164.77 567.8C168.818 571.789 171.746 574.674 177.992 574.674C184.237 574.674 187.165 571.789 191.213 567.8C195.926 563.151 201.793 557.371 213.102 557.371C224.412 557.371 230.279 563.151 234.992 567.8C239.04 571.789 241.968 574.674 248.213 574.674C254.459 574.674 257.386 571.789 261.435 567.8C266.148 563.151 272.014 557.371 283.324 557.371C294.634 557.371 300.5 563.151 305.213 567.8C309.262 571.789 312.189 574.674 318.435 574.674C324.68 574.674 327.608 571.789 331.656 567.8C336.369 563.151 342.236 557.371 353.546 557.371C364.856 557.371 370.722 563.151 375.435 567.8C379.483 571.789 382.411 574.674 388.656 574.674C394.902 574.674 397.83 571.789 401.878 567.8C406.591 563.151 412.457 557.371 423.767 557.371C435.077 557.371 440.944 563.151 445.662 567.8C449.71 571.789 452.638 574.674 458.884 574.674C465.129 574.674 468.057 571.789 472.105 567.8C476.818 563.151 482.69 557.371 494 557.371V569.729C487.754 569.729 484.827 572.613 480.778 576.603C476.065 581.251 470.199 587.032 458.889 587.032Z" fill="#594C9A"/>
<path opacity="0.65" d="M458.889 618C447.579 618 441.713 612.22 436.994 607.571C432.946 603.582 430.018 600.697 423.773 600.697C417.527 600.697 414.6 603.582 410.551 607.571C405.838 612.22 399.972 618 388.656 618C377.347 618 371.48 612.22 366.767 607.571C362.719 603.582 359.791 600.697 353.546 600.697C347.3 600.697 344.372 603.582 340.324 607.571C335.611 612.22 329.745 618 318.435 618C307.125 618 301.258 612.22 296.546 607.571C292.497 603.582 289.57 600.697 283.324 600.697C277.079 600.697 274.151 603.582 270.103 607.571C265.39 612.22 259.523 618 248.213 618C236.903 618 231.037 612.22 226.324 607.571C222.276 603.582 219.348 600.697 213.102 600.697C206.857 600.697 203.929 603.582 199.881 607.571C195.168 612.22 189.302 618 177.992 618C166.682 618 160.815 612.22 156.102 607.571C152.054 603.582 149.126 600.697 142.881 600.697C136.635 600.697 133.708 603.582 129.659 607.571C124.946 612.22 119.08 618 107.77 618C96.4601 618 90.5936 612.22 85.8807 607.571C81.8324 603.582 78.9047 600.697 72.6592 600.697C66.4138 600.697 63.486 603.582 59.4378 607.571C54.7248 612.22 48.8584 618 37.5484 618C26.2385 618 20.372 612.22 15.6591 607.571C11.6108 603.582 8.68307 600.697 2.43761 600.697C-3.80785 600.697 -6.73558 603.582 -10.7839 607.571C-15.4968 612.22 -21.3633 618 -32.6732 618C-43.9831 618 -49.8496 612.22 -54.5625 607.571C-58.6108 603.582 -61.5385 600.697 -67.784 600.697C-74.0295 600.697 -76.9517 603.582 -81.0055 607.571C-85.7184 612.22 -91.5849 618 -102.895 618C-114.205 618 -120.071 612.22 -124.784 607.571C-128.832 603.582 -131.76 600.697 -138.006 600.697V588.339C-126.696 588.339 -120.829 594.12 -116.116 598.768C-112.068 602.758 -109.14 605.642 -102.895 605.642C-96.6493 605.642 -93.7271 602.758 -89.6733 598.768C-84.9604 594.12 -79.0939 588.339 -67.784 588.339C-56.4741 588.339 -50.6076 594.12 -45.8947 598.768C-41.8464 602.758 -38.9187 605.642 -32.6732 605.642C-26.4277 605.642 -23.5 602.758 -19.4517 598.768C-14.7388 594.12 -8.87233 588.339 2.43761 588.339C13.7476 588.339 19.614 594.12 24.3269 598.768C28.3752 602.758 31.303 605.642 37.5484 605.642C43.7939 605.642 46.7216 602.758 50.7699 598.768C55.4828 594.12 61.3493 588.339 72.6592 588.339C83.9692 588.339 89.8356 594.12 94.5486 598.768C98.5968 602.758 101.525 605.642 107.77 605.642C114.015 605.642 116.943 602.758 120.992 598.768C125.704 594.12 131.571 588.339 142.881 588.339C154.191 588.339 160.057 594.12 164.77 598.768C168.818 602.758 171.746 605.642 177.992 605.642C184.237 605.642 187.165 602.758 191.213 598.768C195.926 594.12 201.793 588.339 213.102 588.339C224.412 588.339 230.279 594.12 234.992 598.768C239.04 602.758 241.968 605.642 248.213 605.642C254.459 605.642 257.386 602.758 261.435 598.768C266.148 594.12 272.014 588.339 283.324 588.339C294.634 588.339 300.5 594.12 305.213 598.768C309.262 602.758 312.189 605.642 318.435 605.642C324.68 605.642 327.608 602.758 331.656 598.768C336.369 594.12 342.236 588.339 353.546 588.339C364.856 588.339 370.722 594.12 375.435 598.768C379.483 602.758 382.411 605.642 388.656 605.642C394.902 605.642 397.83 602.758 401.878 598.768C406.591 594.12 412.457 588.339 423.767 588.339C435.077 588.339 440.944 594.12 445.662 598.768C449.71 602.758 452.638 605.642 458.884 605.642C465.129 605.642 468.057 602.758 472.105 598.768C476.818 594.12 482.69 588.339 494 588.339V600.697C487.754 600.697 484.827 603.582 480.778 607.571C476.065 612.214 470.199 618 458.889 618Z" fill="#594C9A"/>
</g>
<defs>
<clipPath id="clip0_7_317">
<rect width="490" height="618" fill="white" transform="translate(-59)"/>
</clipPath>
</defs>
</svg>
